<svg id="Layer_1" data-name="Layer 1" xmlns="http://www.w3.org/2000/svg" viewBox="0 0 477.87 338.37"><defs><style>.cls-1{fill:#d14a4a;}.cls-2{fill:#d24b4b;}.cls-3{fill:#d24c4c;}.cls-4{fill:#d34d4d;}.cls-5{fill:#d34e4e;}.cls-6{fill:#d44f4f;}.cls-7{fill:#d45050;}.cls-8{fill:#d55151;}.cls-9{fill:#d55252;}.cls-10{fill:#d65353;}.cls-11{fill:#d65454;}.cls-12{fill:#d75555;}.cls-13{fill:#d75656;}.cls-14{fill:#d85757;}.cls-15{fill:#d85858;}.cls-16{fill:#d95959;}.cls-17{fill:#da5a5a;}.cls-18{fill:#da5b5b;}.cls-19{fill:#db5c5c;}.cls-20{fill:#db5d5d;}.cls-21{fill:#dc5e5e;}.cls-22{fill:#dc5f5f;}.cls-23{fill:#dd6060;}.cls-24{fill:#dd6161;}.cls-25{fill:#de6161;}.cls-26{fill:#de6262;}.cls-27{fill:#df6363;}.cls-28{fill:#df6464;}.cls-29{fill:#e06565;}.cls-30{fill:#e06666;}.cls-31{fill:#e16767;}.cls-32{fill:#e16868;}.cls-33{fill:#e26969;}.cls-34{fill:#e36a6a;}.cls-35{fill:#e36b6b;}.cls-36{fill:#e46c6c;}.cls-37{fill:#e46d6d;}.cls-38{fill:#e56e6e;}.cls-39{fill:#e56f6f;}.cls-40{fill:#e67070;}.cls-41{fill:#e67171;}.cls-42{fill:#e77272;}.cls-43{fill:#e77373;}.cls-44{fill:#e87474;}.cls-45{fill:#e87575;}.cls-46{fill:#e97676;}.cls-47{fill:#e97777;}.cls-48{fill:#ea7878;}.cls-49{fill:#ea7979;}.cls-50{fill:#eb7a7a;}.cls-51{fill:#eb7b7b;}.cls-52{fill:#eb7c7c;}.cls-53{fill:#eb7d7d;}.cls-54{fill:#ec7e7e;}.cls-55{fill:#ec7f7f;}.cls-56{fill:#ec8080;}.cls-57{fill:#ed8181;}.cls-58{fill:#ed8282;}.cls-59{fill:#ed8383;}.cls-60{fill:#ed8484;}.cls-61{fill:#ee8585;}.cls-62{fill:#ee8686;}.cls-63{fill:#ee8787;}.cls-64{fill:#e88;}.cls-65{fill:#ef8989;}.cls-66{fill:#ef8a8a;}.cls-67{fill:#ef8b8b;}.cls-68{fill:#f08c8c;}.cls-69{fill:#f08d8d;}.cls-70{fill:#f08e8e;}.cls-71{fill:#f08f8f;}.cls-72{fill:#f19090;}.cls-73{fill:#f19191;}.cls-74{fill:#f19292;}.cls-75{fill:#f29393;}.cls-76{fill:#f29494;}.cls-77{fill:#f29595;}.cls-78{fill:#f29696;}.cls-79{fill:#f39797;}.cls-80{fill:#f39898;}.cls-81{fill:#f39999;}.cls-82{fill:#f49a9a;}.cls-83{fill:#f49b9b;}.cls-84{fill:#f49c9c;}.cls-85{fill:#f49d9d;}.cls-86{fill:#f59d9d;}.cls-87{fill:#f59e9e;}.cls-88{fill:#f59f9f;}.cls-89{fill:#f5a0a0;}.cls-90{fill:#f6a1a1;}.cls-91{fill:#f6a2a2;}.cls-92{fill:#f6a3a3;}.cls-93{fill:#f7a4a4;}.cls-94{fill:#f7a5a5;}.cls-95{fill:#f7a6a6;}.cls-96{fill:#f7a7a7;}.cls-97{fill:#f8a8a8;}.cls-98{fill:#f8a9a9;}.cls-99{fill:#f8aaaa;}.cls-100{fill:#f9abab;}.cls-101{fill:#f9acac;}.cls-102{fill:#f9adad;}.cls-103{fill:#f9aeae;}.cls-104{fill:#faafaf;}.cls-105{fill:#fab0b0;}.cls-106{fill:#fab1b1;}.cls-107{fill:#fbb2b2;}.cls-108{fill:#fbb3b3;}.cls-109{fill:#fbb4b4;}.cls-110{fill:#fbb5b5;}.cls-111{fill:#fcb6b6;}.cls-112{fill:#fcb7b7;}.cls-113{fill:#fcb8b8;}.cls-114{fill:#fcb9b9;}.cls-115{fill:#fdbaba;}.cls-116{fill:#fdbbbb;}.cls-117{fill:#fdbcbc;}.cls-118{fill:#febdbd;}.cls-119{fill:#febebe;}.cls-120{fill:#febfbf;}.cls-121{fill:#fec0c0;}.cls-122{fill:#ffc1c1;}.cls-123{fill:#ffc2c2;}.cls-124{fill:#ff979c;}.cls-125{fill:#e67272;}.cls-126{fill:#e77474;}.cls-127{fill:#e77575;}.cls-128{fill:#e87676;}.cls-129{fill:#e87777;}.cls-130{fill:#e97878;}.cls-131{fill:#e97979;}.cls-132{fill:#e97a7a;}.cls-133{fill:#ea7b7b;}.cls-134{fill:#ea7c7c;}.cls-135{fill:#ea7d7d;}.cls-136{fill:#eb7e7e;}.cls-137{fill:#eb7f7f;}.cls-138{fill:#eb8080;}.cls-139{fill:#ec8181;}.cls-140{fill:#ec8282;}.cls-141{fill:#ec8383;}.cls-142{fill:#ed8585;}.cls-143{fill:#f18f8f;}.cls-144{fill:#f29292;}.cls-145{fill:#f39393;}.cls-146{fill:#f39494;}.cls-147{fill:#f39595;}.cls-148{fill:#f49696;}.cls-149{fill:#f49797;}.cls-150{fill:#f49898;}.cls-151{fill:#f59999;}.cls-152{fill:#f59a9a;}.cls-153{fill:#f59b9b;}.cls-154{fill:#f69c9c;}.cls-155{fill:#f69d9d;}.cls-156{fill:#f69e9e;}.cls-157{fill:#f79f9f;}.cls-158{fill:#f7a0a0;}.cls-159{fill:#f8a1a1;}.cls-160{fill:#f8a2a2;}.cls-161{fill:#f8a3a3;}.cls-162{fill:#f9a4a4;}.cls-163{fill:#f9a5a5;}.cls-164{fill:#f9a6a6;}.cls-165{fill:#faa7a7;}.cls-166{fill:#faa8a8;}.cls-167{fill:#faa9a9;}.cls-168{fill:#fbaaaa;}.cls-169{fill:#fbabab;}.cls-170{fill:#fbacac;}.cls-171{fill:#fcadad;}.cls-172{fill:#fcaeae;}.cls-173{fill:#fdafaf;}.cls-174{fill:#fdb0b0;}.cls-175{fill:#fdb1b1;}.cls-176{fill:#feb2b2;}.cls-177{fill:#feb3b3;}.cls-178{fill:#feb4b4;}.cls-179{fill:#ffb5b5;}.cls-180{fill:#ffb6b6;}.cls-181{fill:#ed8686;}.cls-182{fill:#f39696;}.cls-183{fill:#f49999;}.cls-184{fill:#fcafaf;}.cls-185{fill:#f7a1a1;}.cls-186{fill:#f8a4a4;}.cls-187{fill:#f39b9b;}.cls-188{fill:#f49f9f;}.cls-189{fill:#f5a4a4;}.cls-190{fill:#f6a8a8;}.cls-191{fill:#f6acac;}.cls-192{fill:#f7b1b1;}.cls-193{fill:#f8b5b5;}.cls-194{fill:#f9baba;}.cls-195{fill:#f9bebe;}.cls-196{fill:#fac2c2;}.cls-197{fill:#fbc7c7;}.cls-198{fill:#fbcbcb;}.cls-199{fill:#fccfcf;}.cls-200{fill:#fdd4d4;}.cls-201{fill:#fed8d8;}.cls-202{fill:#fedddd;}.cls-203{fill:#ffe1e1;}.cls-204{fill:#f59c9c;}.cls-205{fill:#f69f9f;}.cls-206{fill:#f6a0a0;}.cls-207{fill:#f7a2a2;}.cls-208{fill:#f7a3a3;}.cls-209{fill:#f8a5a5;}.cls-210{fill:#f8a6a6;}.cls-211{fill:#f8a7a7;}.cls-212{fill:#f9a9a9;}.cls-213{fill:#f9aaaa;}.cls-214{fill:#faadad;}.cls-215{fill:#faaeae;}.cls-216{fill:#fbb0b0;}.cls-217{fill:#fbb1b1;}.cls-218{fill:#fcb4b4;}.cls-219{fill:#fcb5b5;}.cls-220{fill:#fdb8b8;}.cls-221{fill:#fdb9b9;}.cls-222{fill:#febcbc;}.cls-223{fill:#ffc0c0;}.cls-224{opacity:0.44;}.cls-225{fill:#fff8f8;}</style></defs><title>옷_1</title><path class="cls-1" d="M417.47,192.27,622.11,317a20.35,20.35,0,0,1-.56,35.55L418.27,469.29a54.7,54.7,0,0,1-53.17-.8L161.17,340.07a13.5,13.5,0,0,1,.39-23.61L374,191.52A44.78,44.78,0,0,1,417.47,192.27Z" transform="translate(-154.41 -137.42)"/><path class="cls-2" d="M417.47,191.91,622.11,316.64a20.35,20.35,0,0,1-.56,35.55L418.27,468.94a54.72,54.72,0,0,1-53.17-.8L161.17,339.72a13.51,13.51,0,0,1,.39-23.62L374,191.16A44.8,44.8,0,0,1,417.47,191.91Z" transform="translate(-154.41 -137.42)"/><path class="cls-3" d="M417.47,191.56,622.11,316.29a20.34,20.34,0,0,1-.56,35.54L418.27,468.59a54.7,54.7,0,0,1-53.17-.81L161.17,339.36a13.5,13.5,0,0,1,.39-23.61L374,190.81A44.8,44.8,0,0,1,417.47,191.56Z" transform="translate(-154.41 -137.42)"/><path class="cls-4" d="M417.47,191.21,622.11,315.93a20.35,20.35,0,0,1-.56,35.55L418.27,468.23a54.7,54.7,0,0,1-53.17-.8L161.17,339a13.5,13.5,0,0,1,.39-23.61L374,190.46A44.78,44.78,0,0,1,417.47,191.21Z" transform="translate(-154.41 -137.42)"/><path class="cls-5" d="M417.47,190.85,622.11,315.58a20.34,20.34,0,0,1-.56,35.54L418.27,467.88a54.72,54.72,0,0,1-53.17-.8L161.17,338.66a13.51,13.51,0,0,1,.39-23.62L374,190.1A44.8,44.8,0,0,1,417.47,190.85Z" transform="translate(-154.41 -137.42)"/><path class="cls-6" d="M417.47,190.5,622.11,315.23a20.34,20.34,0,0,1-.56,35.54L418.27,467.53a54.7,54.7,0,0,1-53.17-.81L161.17,338.3a13.5,13.5,0,0,1,.39-23.61L374,189.75A44.78,44.78,0,0,1,417.47,190.5Z" transform="translate(-154.41 -137.42)"/><path class="cls-7" d="M417.47,190.14,622.11,314.87a20.35,20.35,0,0,1-.56,35.55L418.27,467.17a54.7,54.7,0,0,1-53.17-.8L161.17,338a13.5,13.5,0,0,1,.39-23.61L374,189.4A44.78,44.78,0,0,1,417.47,190.14Z" transform="translate(-154.41 -137.42)"/><path class="cls-8" d="M417.47,189.79,622.11,314.52a20.34,20.34,0,0,1-.56,35.54L418.27,466.82a54.72,54.72,0,0,1-53.17-.8L161.17,337.6a13.51,13.51,0,0,1,.39-23.62L374,189A44.8,44.8,0,0,1,417.47,189.79Z" transform="translate(-154.41 -137.42)"/><path class="cls-9" d="M417.47,189.44,622.11,314.16a20.35,20.35,0,0,1-.56,35.55L418.27,466.46a54.7,54.7,0,0,1-53.17-.8L161.17,337.24a13.5,13.5,0,0,1,.39-23.61L374,188.69A44.78,44.78,0,0,1,417.47,189.44Z" transform="translate(-154.41 -137.42)"/><path class="cls-10" d="M417.47,189.08,622.11,313.81a20.35,20.35,0,0,1-.56,35.55L418.27,466.11a54.72,54.72,0,0,1-53.17-.8L161.17,336.89a13.51,13.51,0,0,1,.39-23.62L374,188.33A44.8,44.8,0,0,1,417.47,189.08Z" transform="translate(-154.41 -137.42)"/><path class="cls-11" d="M417.47,188.73,622.11,313.46a20.34,20.34,0,0,1-.56,35.54L418.27,465.76A54.7,54.7,0,0,1,365.1,465L161.17,336.53a13.5,13.5,0,0,1,.39-23.61L374,188A44.8,44.8,0,0,1,417.47,188.73Z" transform="translate(-154.41 -137.42)"/><path class="cls-12" d="M417.47,188.38,622.11,313.1a20.35,20.35,0,0,1-.56,35.55L418.27,465.4a54.7,54.7,0,0,1-53.17-.8L161.17,336.18a13.5,13.5,0,0,1,.39-23.61L374,187.63A44.78,44.78,0,0,1,417.47,188.38Z" transform="translate(-154.41 -137.42)"/><path class="cls-13" d="M417.47,188,622.11,312.75a20.34,20.34,0,0,1-.56,35.54L418.27,465.05a54.72,54.72,0,0,1-53.17-.8L161.17,335.83a13.51,13.51,0,0,1,.39-23.62L374,187.27A44.8,44.8,0,0,1,417.47,188Z" transform="translate(-154.41 -137.42)"/><path class="cls-14" d="M417.47,187.67,622.11,312.4a20.34,20.34,0,0,1-.56,35.54L418.27,464.7a54.7,54.7,0,0,1-53.17-.81L161.17,335.47a13.5,13.5,0,0,1,.39-23.61L374,186.92A44.78,44.78,0,0,1,417.47,187.67Z" transform="translate(-154.41 -137.42)"/><path class="cls-15" d="M417.47,187.31,622.11,312a20.35,20.35,0,0,1-.56,35.55L418.27,464.34a54.7,54.7,0,0,1-53.17-.8L161.17,335.12a13.51,13.51,0,0,1,.39-23.62L374,186.56A44.8,44.8,0,0,1,417.47,187.31Z" transform="translate(-154.41 -137.42)"/><path class="cls-16" d="M417.47,187,622.11,311.69a20.34,20.34,0,0,1-.56,35.54L418.27,464a54.72,54.72,0,0,1-53.17-.8L161.17,334.77a13.51,13.51,0,0,1,.39-23.62L374,186.21A44.8,44.8,0,0,1,417.47,187Z" transform="translate(-154.41 -137.42)"/><path class="cls-17" d="M417.47,186.61,622.11,311.33a20.35,20.35,0,0,1-.56,35.55L418.27,463.63a54.7,54.7,0,0,1-53.17-.8L161.17,334.41a13.5,13.5,0,0,1,.39-23.61L374,185.86A44.78,44.78,0,0,1,417.47,186.61Z" transform="translate(-154.41 -137.42)"/><path class="cls-18" d="M417.47,186.25,622.11,311a20.34,20.34,0,0,1-.56,35.54L418.27,463.28a54.72,54.72,0,0,1-53.17-.8L161.17,334.06a13.51,13.51,0,0,1,.39-23.62L374,185.5A44.8,44.8,0,0,1,417.47,186.25Z" transform="translate(-154.41 -137.42)"/><path class="cls-19" d="M417.47,185.9,622.11,310.63a20.34,20.34,0,0,1-.56,35.54L418.27,462.93a54.7,54.7,0,0,1-53.17-.81L161.17,333.7a13.5,13.5,0,0,1,.39-23.61L374,185.15A44.8,44.8,0,0,1,417.47,185.9Z" transform="translate(-154.41 -137.42)"/><path class="cls-20" d="M417.47,185.54,622.11,310.27a20.35,20.35,0,0,1-.56,35.55L418.27,462.57a54.7,54.7,0,0,1-53.17-.8L161.17,333.35a13.5,13.5,0,0,1,.39-23.61L374,184.8A44.78,44.78,0,0,1,417.47,185.54Z" transform="translate(-154.41 -137.42)"/><path class="cls-21" d="M417.47,185.19,622.11,309.92a20.34,20.34,0,0,1-.56,35.54L418.27,462.22a54.72,54.72,0,0,1-53.17-.8L161.17,333a13.51,13.51,0,0,1,.39-23.62L374,184.44A44.8,44.8,0,0,1,417.47,185.19Z" transform="translate(-154.41 -137.42)"/><path class="cls-22" d="M417.47,184.84,622.11,309.56a20.35,20.35,0,0,1-.56,35.55L418.27,461.86a54.67,54.67,0,0,1-53.17-.8L161.17,332.64a13.5,13.5,0,0,1,.39-23.61L374,184.09A44.78,44.78,0,0,1,417.47,184.84Z" transform="translate(-154.41 -137.42)"/><path class="cls-23" d="M417.47,184.48,622.11,309.21a20.35,20.35,0,0,1-.56,35.55L418.27,461.51a54.72,54.72,0,0,1-53.17-.8L161.17,332.29a13.51,13.51,0,0,1,.39-23.62L374,183.73A44.8,44.8,0,0,1,417.47,184.48Z" transform="translate(-154.41 -137.42)"/><path class="cls-24" d="M417.47,184.13,622.11,308.86a20.34,20.34,0,0,1-.56,35.54L418.27,461.16a54.7,54.7,0,0,1-53.17-.81L161.17,331.93a13.5,13.5,0,0,1,.39-23.61L374,183.38A44.8,44.8,0,0,1,417.47,184.13Z" transform="translate(-154.41 -137.42)"/><path class="cls-25" d="M417.47,183.78,622.11,308.5a20.35,20.35,0,0,1-.56,35.55L418.27,460.8a54.7,54.7,0,0,1-53.17-.8L161.17,331.58a13.5,13.5,0,0,1,.39-23.61L374,183A44.78,44.78,0,0,1,417.47,183.78Z" transform="translate(-154.41 -137.42)"/><path class="cls-26" d="M417.47,183.42,622.11,308.15a20.34,20.34,0,0,1-.56,35.54L418.27,460.45a54.72,54.72,0,0,1-53.17-.8L161.17,331.23a13.51,13.51,0,0,1,.39-23.62L374,182.67A44.8,44.8,0,0,1,417.47,183.42Z" transform="translate(-154.41 -137.42)"/><path class="cls-27" d="M417.47,183.07,622.11,307.8a20.34,20.34,0,0,1-.56,35.54L418.27,460.1a54.7,54.7,0,0,1-53.17-.81L161.17,330.87a13.5,13.5,0,0,1,.39-23.61L374,182.32A44.8,44.8,0,0,1,417.47,183.07Z" transform="translate(-154.41 -137.42)"/><path class="cls-28" d="M417.47,182.71,622.11,307.44a20.35,20.35,0,0,1-.56,35.55L418.27,459.74a54.7,54.7,0,0,1-53.17-.8L161.17,330.52a13.5,13.5,0,0,1,.39-23.61L374,182A44.78,44.78,0,0,1,417.47,182.71Z" transform="translate(-154.41 -137.42)"/><path class="cls-29" d="M417.47,182.36,622.11,307.09a20.34,20.34,0,0,1-.56,35.54L418.27,459.39a54.72,54.72,0,0,1-53.17-.8L161.17,330.17a13.51,13.51,0,0,1,.39-23.62L374,181.61A44.8,44.8,0,0,1,417.47,182.36Z" transform="translate(-154.41 -137.42)"/><path class="cls-30" d="M417.47,182,622.11,306.73a20.35,20.35,0,0,1-.56,35.55L418.27,459a54.7,54.7,0,0,1-53.17-.8L161.17,329.81a13.5,13.5,0,0,1,.39-23.61L374,181.26A44.78,44.78,0,0,1,417.47,182Z" transform="translate(-154.41 -137.42)"/><path class="cls-31" d="M417.47,181.65,622.11,306.38a20.35,20.35,0,0,1-.56,35.55L418.27,458.68a54.72,54.72,0,0,1-53.17-.8L161.17,329.46a13.51,13.51,0,0,1,.39-23.62L374,180.9A44.8,44.8,0,0,1,417.47,181.65Z" transform="translate(-154.41 -137.42)"/><path class="cls-32" d="M417.47,181.3,622.11,306a20.34,20.34,0,0,1-.56,35.54L418.27,458.33a54.7,54.7,0,0,1-53.17-.81L161.17,329.1a13.5,13.5,0,0,1,.39-23.61L374,180.55A44.8,44.8,0,0,1,417.47,181.3Z" transform="translate(-154.41 -137.42)"/><path class="cls-33" d="M417.47,181,622.11,305.67a20.35,20.35,0,0,1-.56,35.55L418.27,458a54.7,54.7,0,0,1-53.17-.8L161.17,328.75a13.5,13.5,0,0,1,.39-23.61L374,180.2A44.78,44.78,0,0,1,417.47,181Z" transform="translate(-154.41 -137.42)"/><path class="cls-34" d="M417.47,180.59,622.11,305.32a20.34,20.34,0,0,1-.56,35.54L418.27,457.62a54.72,54.72,0,0,1-53.17-.8L161.17,328.4a13.51,13.51,0,0,1,.39-23.62L374,179.84A44.8,44.8,0,0,1,417.47,180.59Z" transform="translate(-154.41 -137.42)"/><path class="cls-35" d="M417.47,180.24,622.11,305a20.34,20.34,0,0,1-.56,35.54L418.27,457.27a54.7,54.7,0,0,1-53.17-.81L161.17,328a13.5,13.5,0,0,1,.39-23.61L374,179.49A44.78,44.78,0,0,1,417.47,180.24Z" transform="translate(-154.41 -137.42)"/><path class="cls-36" d="M417.47,179.88,622.11,304.61a20.35,20.35,0,0,1-.56,35.55L418.27,456.91a54.7,54.7,0,0,1-53.17-.8L161.17,327.69a13.51,13.51,0,0,1,.39-23.62L374,179.14A44.78,44.78,0,0,1,417.47,179.88Z" transform="translate(-154.41 -137.42)"/><path class="cls-37" d="M417.47,179.53,622.11,304.26a20.34,20.34,0,0,1-.56,35.54L418.27,456.56a54.72,54.72,0,0,1-53.17-.8L161.17,327.34a13.51,13.51,0,0,1,.39-23.62L374,178.78A44.8,44.8,0,0,1,417.47,179.53Z" transform="translate(-154.41 -137.42)"/><path class="cls-38" d="M417.47,179.18,622.11,303.9a20.35,20.35,0,0,1-.56,35.55L418.27,456.2a54.7,54.7,0,0,1-53.17-.8L161.17,327a13.5,13.5,0,0,1,.39-23.61L374,178.43A44.78,44.78,0,0,1,417.47,179.18Z" transform="translate(-154.41 -137.42)"/><path class="cls-39" d="M417.47,178.82,622.11,303.55a20.35,20.35,0,0,1-.56,35.55L418.27,455.85a54.72,54.72,0,0,1-53.17-.8L161.17,326.63a13.51,13.51,0,0,1,.39-23.62L374,178.07A44.8,44.8,0,0,1,417.47,178.82Z" transform="translate(-154.41 -137.42)"/><path class="cls-40" d="M417.47,178.47,622.11,303.2a20.34,20.34,0,0,1-.56,35.54L418.27,455.5a54.7,54.7,0,0,1-53.17-.81L161.17,326.27a13.5,13.5,0,0,1,.39-23.61L374,177.72A44.8,44.8,0,0,1,417.47,178.47Z" transform="translate(-154.41 -137.42)"/><path class="cls-41" d="M417.47,178.12,622.11,302.84a20.35,20.35,0,0,1-.56,35.55L418.27,455.14a54.7,54.7,0,0,1-53.17-.8L161.17,325.92a13.5,13.5,0,0,1,.39-23.61L374,177.37A44.78,44.78,0,0,1,417.47,178.12Z" transform="translate(-154.41 -137.42)"/><path class="cls-42" d="M417.47,177.76,622.11,302.49a20.34,20.34,0,0,1-.56,35.54L418.27,454.79a54.72,54.72,0,0,1-53.17-.8L161.17,325.57a13.51,13.51,0,0,1,.39-23.62L374,177A44.8,44.8,0,0,1,417.47,177.76Z" transform="translate(-154.41 -137.42)"/><path class="cls-43" d="M417.47,177.41,622.11,302.14a20.34,20.34,0,0,1-.56,35.54L418.27,454.44a54.7,54.7,0,0,1-53.17-.81L161.17,325.21a13.5,13.5,0,0,1,.39-23.61L374,176.66A44.78,44.78,0,0,1,417.47,177.41Z" transform="translate(-154.41 -137.42)"/><path class="cls-44" d="M417.47,177.05,622.11,301.78a20.35,20.35,0,0,1-.56,35.55L418.27,454.08a54.72,54.72,0,0,1-53.17-.8L161.17,324.86a13.51,13.51,0,0,1,.39-23.62L374,176.3A44.8,44.8,0,0,1,417.47,177.05Z" transform="translate(-154.41 -137.42)"/><path class="cls-45" d="M417.47,176.7,622.11,301.43a20.34,20.34,0,0,1-.56,35.54L418.27,453.73a54.72,54.72,0,0,1-53.17-.8L161.17,324.51a13.51,13.51,0,0,1,.39-23.62L374,176A44.8,44.8,0,0,1,417.47,176.7Z" transform="translate(-154.41 -137.42)"/><path class="cls-46" d="M417.47,176.35,622.11,301.07a20.35,20.35,0,0,1-.56,35.55L418.27,453.37a54.7,54.7,0,0,1-53.17-.8L161.17,324.15a13.5,13.5,0,0,1,.39-23.61L374,175.6A44.78,44.78,0,0,1,417.47,176.35Z" transform="translate(-154.41 -137.42)"/><path class="cls-47" d="M417.47,176,622.11,300.72a20.34,20.34,0,0,1-.56,35.54L418.27,453a54.72,54.72,0,0,1-53.17-.8L161.17,323.8a13.51,13.51,0,0,1,.39-23.62L374,175.24A44.8,44.8,0,0,1,417.47,176Z" transform="translate(-154.41 -137.42)"/><path class="cls-48" d="M417.47,175.64,622.11,300.37a20.34,20.34,0,0,1-.56,35.54L418.27,452.67a54.7,54.7,0,0,1-53.17-.81L161.17,323.44a13.5,13.5,0,0,1,.39-23.61L374,174.89A44.8,44.8,0,0,1,417.47,175.64Z" transform="translate(-154.41 -137.42)"/><path class="cls-49" d="M417.47,175.21,622.11,299.94a20.34,20.34,0,0,1-.56,35.54L418.27,452.24a54.7,54.7,0,0,1-53.17-.81L161.17,323a13.5,13.5,0,0,1,.39-23.61L374,174.46A44.8,44.8,0,0,1,417.47,175.21Z" transform="translate(-154.41 -137.42)"/><path class="cls-50" d="M417.47,174.78,622.11,299.51a20.34,20.34,0,0,1-.56,35.54L418.27,451.81A54.7,54.7,0,0,1,365.1,451L161.17,322.58a13.5,13.5,0,0,1,.39-23.61L374,174A44.8,44.8,0,0,1,417.47,174.78Z" transform="translate(-154.41 -137.42)"/><path class="cls-51" d="M417.47,174.35,622.11,299.08a20.34,20.34,0,0,1-.56,35.54L418.27,451.38a54.72,54.72,0,0,1-53.17-.8L161.17,322.16a13.51,13.51,0,0,1,.39-23.62L374,173.6A44.8,44.8,0,0,1,417.47,174.35Z" transform="translate(-154.41 -137.42)"/><path class="cls-52" d="M417.47,173.92,622.11,298.65a20.34,20.34,0,0,1-.56,35.54L418.27,451a54.72,54.72,0,0,1-53.17-.8L161.17,321.73a13.51,13.51,0,0,1,.39-23.62L374,173.17A44.8,44.8,0,0,1,417.47,173.92Z" transform="translate(-154.41 -137.42)"/><path class="cls-53" d="M417.47,173.49,622.11,298.22a20.34,20.34,0,0,1-.56,35.54L418.27,450.52a54.72,54.72,0,0,1-53.17-.8L161.17,321.3a13.51,13.51,0,0,1,.39-23.62L374,172.74A44.8,44.8,0,0,1,417.47,173.49Z" transform="translate(-154.41 -137.42)"/><path class="cls-54" d="M417.47,173.06,622.11,297.79a20.34,20.34,0,0,1-.56,35.54L418.27,450.09a54.72,54.72,0,0,1-53.17-.8L161.17,320.87a13.51,13.51,0,0,1,.39-23.62L374,172.31A44.8,44.8,0,0,1,417.47,173.06Z" transform="translate(-154.41 -137.42)"/><path class="cls-55" d="M417.47,172.63,622.11,297.36a20.35,20.35,0,0,1-.56,35.55L418.27,449.66a54.72,54.72,0,0,1-53.17-.8L161.17,320.44a13.51,13.51,0,0,1,.39-23.62L374,171.88A44.8,44.8,0,0,1,417.47,172.63Z" transform="translate(-154.41 -137.42)"/><path class="cls-56" d="M417.47,172.2,622.11,296.93a20.35,20.35,0,0,1-.56,35.55L418.27,449.23a54.72,54.72,0,0,1-53.17-.8L161.17,320a13.51,13.51,0,0,1,.39-23.62L374,171.45A44.8,44.8,0,0,1,417.47,172.2Z" transform="translate(-154.41 -137.42)"/><path class="cls-57" d="M417.47,171.77,622.11,296.5a20.35,20.35,0,0,1-.56,35.55L418.27,448.8a54.7,54.7,0,0,1-53.17-.8L161.17,319.58a13.51,13.51,0,0,1,.39-23.62L374,171A44.78,44.78,0,0,1,417.47,171.77Z" transform="translate(-154.41 -137.42)"/><path class="cls-58" d="M417.47,171.34,622.11,296.07a20.35,20.35,0,0,1-.56,35.55L418.27,448.37a54.7,54.7,0,0,1-53.17-.8L161.17,319.15a13.5,13.5,0,0,1,.39-23.61L374,170.6A44.78,44.78,0,0,1,417.47,171.34Z" transform="translate(-154.41 -137.42)"/><path class="cls-59" d="M417.47,170.92,622.11,295.64a20.35,20.35,0,0,1-.56,35.55L418.27,447.94a54.7,54.7,0,0,1-53.17-.8L161.17,318.72a13.5,13.5,0,0,1,.39-23.61L374,170.17A44.78,44.78,0,0,1,417.47,170.92Z" transform="translate(-154.41 -137.42)"/><path class="cls-60" d="M417.47,170.49,622.11,295.21a20.35,20.35,0,0,1-.56,35.55L418.27,447.51a54.7,54.7,0,0,1-53.17-.8L161.17,318.29a13.5,13.5,0,0,1,.39-23.61L374,169.74A44.78,44.78,0,0,1,417.47,170.49Z" transform="translate(-154.41 -137.42)"/><path class="cls-61" d="M417.47,170.06,622.11,294.78a20.35,20.35,0,0,1-.56,35.55L418.27,447.08a54.7,54.7,0,0,1-53.17-.8L161.17,317.86a13.5,13.5,0,0,1,.39-23.61L374,169.31A44.78,44.78,0,0,1,417.47,170.06Z" transform="translate(-154.41 -137.42)"/><path class="cls-62" d="M417.47,169.63,622.11,294.35a20.35,20.35,0,0,1-.56,35.55L418.27,446.65a54.7,54.7,0,0,1-53.17-.8L161.17,317.43a13.5,13.5,0,0,1,.39-23.61L374,168.88A44.78,44.78,0,0,1,417.47,169.63Z" transform="translate(-154.41 -137.42)"/><path class="cls-63" d="M417.47,169.2,622.11,293.93a20.34,20.34,0,0,1-.56,35.54L418.27,446.23a54.7,54.7,0,0,1-53.17-.81L161.17,317a13.5,13.5,0,0,1,.39-23.61L374,168.45A44.78,44.78,0,0,1,417.47,169.2Z" transform="translate(-154.41 -137.42)"/><path class="cls-64" d="M417.47,168.77,622.11,293.5a20.34,20.34,0,0,1-.56,35.54L418.27,445.8A54.7,54.7,0,0,1,365.1,445L161.17,316.57a13.5,13.5,0,0,1,.39-23.61L374,168A44.8,44.8,0,0,1,417.47,168.77Z" transform="translate(-154.41 -137.42)"/><path class="cls-65" d="M417.47,168.34,622.11,293.07a20.34,20.34,0,0,1-.56,35.54L418.27,445.37a54.7,54.7,0,0,1-53.17-.81L161.17,316.14a13.5,13.5,0,0,1,.39-23.61L374,167.59A44.8,44.8,0,0,1,417.47,168.34Z" transform="translate(-154.41 -137.42)"/><path class="cls-66" d="M417.47,167.91,622.11,292.64a20.34,20.34,0,0,1-.56,35.54L418.27,444.94a54.7,54.7,0,0,1-53.17-.81L161.17,315.71a13.5,13.5,0,0,1,.39-23.61L374,167.16A44.8,44.8,0,0,1,417.47,167.91Z" transform="translate(-154.41 -137.42)"/><path class="cls-67" d="M417.47,167.48,622.11,292.21a20.34,20.34,0,0,1-.56,35.54L418.27,444.51a54.72,54.72,0,0,1-53.17-.8L161.17,315.29a13.51,13.51,0,0,1,.39-23.62L374,166.73A44.8,44.8,0,0,1,417.47,167.48Z" transform="translate(-154.41 -137.42)"/><path class="cls-68" d="M417.47,167.05,622.11,291.78a20.34,20.34,0,0,1-.56,35.54L418.27,444.08a54.72,54.72,0,0,1-53.17-.8L161.17,314.86a13.51,13.51,0,0,1,.39-23.62L374,166.3A44.8,44.8,0,0,1,417.47,167.05Z" transform="translate(-154.41 -137.42)"/><path class="cls-69" d="M417.47,166.62,622.11,291.35a20.34,20.34,0,0,1-.56,35.54L418.27,443.65a54.72,54.72,0,0,1-53.17-.8L161.17,314.43a13.51,13.51,0,0,1,.39-23.62L374,165.87A44.8,44.8,0,0,1,417.47,166.62Z" transform="translate(-154.41 -137.42)"/><path class="cls-70" d="M417.47,166.19,622.11,290.92a20.34,20.34,0,0,1-.56,35.54L418.27,443.22a54.72,54.72,0,0,1-53.17-.8L161.17,314a13.51,13.51,0,0,1,.39-23.62L374,165.44A44.8,44.8,0,0,1,417.47,166.19Z" transform="translate(-154.41 -137.42)"/><path class="cls-71" d="M417.47,165.76,622.11,290.49a20.35,20.35,0,0,1-.56,35.55L418.27,442.79a54.72,54.72,0,0,1-53.17-.8L161.17,313.57a13.51,13.51,0,0,1,.39-23.62L374,165A44.8,44.8,0,0,1,417.47,165.76Z" transform="translate(-154.41 -137.42)"/><path class="cls-72" d="M417.47,165.33,622.11,290.06a20.35,20.35,0,0,1-.56,35.55L418.27,442.36a54.72,54.72,0,0,1-53.17-.8L161.17,313.14a13.51,13.51,0,0,1,.39-23.62L374,164.58A44.8,44.8,0,0,1,417.47,165.33Z" transform="translate(-154.41 -137.42)"/><path class="cls-73" d="M417.47,164.9,622.11,289.63a20.35,20.35,0,0,1-.56,35.55L418.27,441.93a54.7,54.7,0,0,1-53.17-.8L161.17,312.71a13.51,13.51,0,0,1,.39-23.62L374,164.16A44.78,44.78,0,0,1,417.47,164.9Z" transform="translate(-154.41 -137.42)"/><path class="cls-74" d="M417.47,164.47,622.11,289.2a20.35,20.35,0,0,1-.56,35.55L418.27,441.5a54.7,54.7,0,0,1-53.17-.8L161.17,312.28a13.5,13.5,0,0,1,.39-23.61L374,163.73A44.78,44.78,0,0,1,417.47,164.47Z" transform="translate(-154.41 -137.42)"/><path class="cls-75" d="M417.47,164.05,622.11,288.77a20.35,20.35,0,0,1-.56,35.55L418.27,441.07a54.7,54.7,0,0,1-53.17-.8L161.17,311.85a13.5,13.5,0,0,1,.39-23.61L374,163.3A44.78,44.78,0,0,1,417.47,164.05Z" transform="translate(-154.41 -137.42)"/><path class="cls-76" d="M417.47,163.62,622.11,288.34a20.35,20.35,0,0,1-.56,35.55L418.27,440.64a54.7,54.7,0,0,1-53.17-.8L161.17,311.42a13.5,13.5,0,0,1,.39-23.61L374,162.87A44.78,44.78,0,0,1,417.47,163.62Z" transform="translate(-154.41 -137.42)"/><path class="cls-77" d="M417.47,163.19,622.11,287.91a20.35,20.35,0,0,1-.56,35.55L418.27,440.21a54.7,54.7,0,0,1-53.17-.8L161.17,311a13.5,13.5,0,0,1,.39-23.61L374,162.44A44.78,44.78,0,0,1,417.47,163.19Z" transform="translate(-154.41 -137.42)"/><path class="cls-78" d="M417.47,162.76,622.11,287.48a20.35,20.35,0,0,1-.56,35.55L418.27,439.78a54.7,54.7,0,0,1-53.17-.8L161.17,310.56a13.5,13.5,0,0,1,.39-23.61L374,162A44.78,44.78,0,0,1,417.47,162.76Z" transform="translate(-154.41 -137.42)"/><path class="cls-79" d="M417.47,162.33,622.11,287.06a20.34,20.34,0,0,1-.56,35.54L418.27,439.36a54.7,54.7,0,0,1-53.17-.81L161.17,310.13a13.5,13.5,0,0,1,.39-23.61L374,161.58A44.78,44.78,0,0,1,417.47,162.33Z" transform="translate(-154.41 -137.42)"/><path class="cls-80" d="M417.47,161.9,622.11,286.63a20.34,20.34,0,0,1-.56,35.54L418.27,438.93a54.7,54.7,0,0,1-53.17-.81L161.17,309.7a13.5,13.5,0,0,1,.39-23.61L374,161.15A44.8,44.8,0,0,1,417.47,161.9Z" transform="translate(-154.41 -137.42)"/><path class="cls-81" d="M417.47,161.47,622.11,286.2a20.34,20.34,0,0,1-.56,35.54L418.27,438.5a54.7,54.7,0,0,1-53.17-.81L161.17,309.27a13.5,13.5,0,0,1,.39-23.61L374,160.72A44.8,44.8,0,0,1,417.47,161.47Z" transform="translate(-154.41 -137.42)"/><path class="cls-82" d="M417.47,161,622.11,285.77a20.34,20.34,0,0,1-.56,35.54L418.27,438.07a54.7,54.7,0,0,1-53.17-.81L161.17,308.84a13.5,13.5,0,0,1,.39-23.61L374,160.29A44.8,44.8,0,0,1,417.47,161Z" transform="translate(-154.41 -137.42)"/><path class="cls-83" d="M417.47,160.61,622.11,285.34a20.34,20.34,0,0,1-.56,35.54L418.27,437.64a54.72,54.72,0,0,1-53.17-.8L161.17,308.42a13.51,13.51,0,0,1,.39-23.62L374,159.86A44.8,44.8,0,0,1,417.47,160.61Z" transform="translate(-154.41 -137.42)"/><path class="cls-84" d="M417.47,160.18,622.11,284.91a20.34,20.34,0,0,1-.56,35.54L418.27,437.21a54.72,54.72,0,0,1-53.17-.8L161.17,308a13.51,13.51,0,0,1,.39-23.62L374,159.43A44.8,44.8,0,0,1,417.47,160.18Z" transform="translate(-154.41 -137.42)"/><path class="cls-85" d="M417.47,159.75,622.11,284.48a20.34,20.34,0,0,1-.56,35.54L418.27,436.78a54.72,54.72,0,0,1-53.17-.8L161.17,307.56a13.51,13.51,0,0,1,.39-23.62L374,159A44.8,44.8,0,0,1,417.47,159.75Z" transform="translate(-154.41 -137.42)"/><path class="cls-86" d="M417.47,159.32,622.11,284.05a20.34,20.34,0,0,1-.56,35.54L418.27,436.35a54.72,54.72,0,0,1-53.17-.8L161.17,307.13a13.51,13.51,0,0,1,.39-23.62L374,158.57A44.8,44.8,0,0,1,417.47,159.32Z" transform="translate(-154.41 -137.42)"/><path class="cls-87" d="M417.47,158.89,622.11,283.62a20.34,20.34,0,0,1-.56,35.54L418.27,435.92a54.72,54.72,0,0,1-53.17-.8L161.17,306.7a13.51,13.51,0,0,1,.39-23.62L374,158.14A44.8,44.8,0,0,1,417.47,158.89Z" transform="translate(-154.41 -137.42)"/><path class="cls-88" d="M417.47,158.46,622.11,283.19a20.35,20.35,0,0,1-.56,35.55L418.27,435.49a54.72,54.72,0,0,1-53.17-.8L161.17,306.27a13.51,13.51,0,0,1,.39-23.62L374,157.71A44.8,44.8,0,0,1,417.47,158.46Z" transform="translate(-154.41 -137.42)"/><path class="cls-89" d="M417.47,158,622.11,282.76a20.35,20.35,0,0,1-.56,35.55L418.27,435.06a54.7,54.7,0,0,1-53.17-.8L161.17,305.84a13.51,13.51,0,0,1,.39-23.62L374,157.28A44.8,44.8,0,0,1,417.47,158Z" transform="translate(-154.41 -137.42)"/><path class="cls-90" d="M417.47,157.6,622.11,282.33a20.35,20.35,0,0,1-.56,35.55L418.27,434.63a54.7,54.7,0,0,1-53.17-.8L161.17,305.41a13.5,13.5,0,0,1,.39-23.61L374,156.86A44.78,44.78,0,0,1,417.47,157.6Z" transform="translate(-154.41 -137.42)"/><path class="cls-91" d="M417.47,157.18,622.11,281.9a20.35,20.35,0,0,1-.56,35.55L418.27,434.2a54.7,54.7,0,0,1-53.17-.8L161.17,305a13.5,13.5,0,0,1,.39-23.61L374,156.43A44.78,44.78,0,0,1,417.47,157.18Z" transform="translate(-154.41 -137.42)"/><path class="cls-92" d="M417.47,156.75,622.11,281.47a20.35,20.35,0,0,1-.56,35.55L418.27,433.77a54.7,54.7,0,0,1-53.17-.8L161.17,304.55a13.5,13.5,0,0,1,.39-23.61L374,156A44.78,44.78,0,0,1,417.47,156.75Z" transform="translate(-154.41 -137.42)"/><path class="cls-93" d="M417.47,156.32,622.11,281a20.35,20.35,0,0,1-.56,35.55L418.27,433.34a54.7,54.7,0,0,1-53.17-.8L161.17,304.12a13.5,13.5,0,0,1,.39-23.61L374,155.57A44.78,44.78,0,0,1,417.47,156.32Z" transform="translate(-154.41 -137.42)"/><path class="cls-94" d="M417.47,155.89,622.11,280.61a20.35,20.35,0,0,1-.56,35.55L418.27,432.91a54.7,54.7,0,0,1-53.17-.8L161.17,303.69a13.5,13.5,0,0,1,.39-23.61L374,155.14A44.78,44.78,0,0,1,417.47,155.89Z" transform="translate(-154.41 -137.42)"/><path class="cls-95" d="M417.47,155.46,622.11,280.19a20.34,20.34,0,0,1-.56,35.54L418.27,432.49a54.7,54.7,0,0,1-53.17-.81L161.17,303.26a13.5,13.5,0,0,1,.39-23.61L374,154.71A44.78,44.78,0,0,1,417.47,155.46Z" transform="translate(-154.41 -137.42)"/><path class="cls-96" d="M417.47,155,622.11,279.76a20.34,20.34,0,0,1-.56,35.54L418.27,432.06a54.7,54.7,0,0,1-53.17-.81L161.17,302.83a13.5,13.5,0,0,1,.39-23.61L374,154.28A44.8,44.8,0,0,1,417.47,155Z" transform="translate(-154.41 -137.42)"/><path class="cls-97" d="M417.47,154.6,622.11,279.33a20.34,20.34,0,0,1-.56,35.54L418.27,431.63a54.7,54.7,0,0,1-53.17-.81L161.17,302.4a13.5,13.5,0,0,1,.39-23.61L374,153.85A44.8,44.8,0,0,1,417.47,154.6Z" transform="translate(-154.41 -137.42)"/><path class="cls-98" d="M417.47,154.17,622.11,278.9a20.34,20.34,0,0,1-.56,35.54L418.27,431.2a54.7,54.7,0,0,1-53.17-.81L161.17,302a13.5,13.5,0,0,1,.39-23.61L374,153.42A44.8,44.8,0,0,1,417.47,154.17Z" transform="translate(-154.41 -137.42)"/><path class="cls-99" d="M417.47,153.74,622.11,278.47a20.34,20.34,0,0,1-.56,35.54L418.27,430.77a54.72,54.72,0,0,1-53.17-.8L161.17,301.55a13.51,13.51,0,0,1,.39-23.62L374,153A44.8,44.8,0,0,1,417.47,153.74Z" transform="translate(-154.41 -137.42)"/><path class="cls-100" d="M417.47,153.31,622.11,278a20.34,20.34,0,0,1-.56,35.54L418.27,430.34a54.72,54.72,0,0,1-53.17-.8L161.17,301.12a13.51,13.51,0,0,1,.39-23.62L374,152.56A44.8,44.8,0,0,1,417.47,153.31Z" transform="translate(-154.41 -137.42)"/><path class="cls-101" d="M417.47,152.88,622.11,277.61a20.34,20.34,0,0,1-.56,35.54L418.27,429.91a54.72,54.72,0,0,1-53.17-.8L161.17,300.69a13.51,13.51,0,0,1,.39-23.62L374,152.13A44.8,44.8,0,0,1,417.47,152.88Z" transform="translate(-154.41 -137.42)"/><path class="cls-102" d="M417.47,152.45,622.11,277.18a20.34,20.34,0,0,1-.56,35.54L418.27,429.48a54.72,54.72,0,0,1-53.17-.8L161.17,300.26a13.51,13.51,0,0,1,.39-23.62L374,151.7A44.8,44.8,0,0,1,417.47,152.45Z" transform="translate(-154.41 -137.42)"/><path class="cls-103" d="M417.47,152,622.11,276.75a20.34,20.34,0,0,1-.56,35.54L418.27,429.05a54.72,54.72,0,0,1-53.17-.8L161.17,299.83a13.51,13.51,0,0,1,.39-23.62L374,151.27A44.8,44.8,0,0,1,417.47,152Z" transform="translate(-154.41 -137.42)"/><path class="cls-104" d="M417.47,151.59,622.11,276.32a20.35,20.35,0,0,1-.56,35.55L418.27,428.62a54.72,54.72,0,0,1-53.17-.8L161.17,299.4a13.51,13.51,0,0,1,.39-23.62L374,150.84A44.8,44.8,0,0,1,417.47,151.59Z" transform="translate(-154.41 -137.42)"/><path class="cls-105" d="M417.47,151.16,622.11,275.89a20.35,20.35,0,0,1-.56,35.55L418.27,428.19a54.7,54.7,0,0,1-53.17-.8L161.17,299a13.51,13.51,0,0,1,.39-23.62L374,150.41A44.8,44.8,0,0,1,417.47,151.16Z" transform="translate(-154.41 -137.42)"/><path class="cls-106" d="M417.47,150.73,622.11,275.46a20.35,20.35,0,0,1-.56,35.55L418.27,427.76a54.7,54.7,0,0,1-53.17-.8L161.17,298.54a13.5,13.5,0,0,1,.39-23.61L374,150A44.78,44.78,0,0,1,417.47,150.73Z" transform="translate(-154.41 -137.42)"/><path class="cls-107" d="M417.47,150.31,622.11,275a20.35,20.35,0,0,1-.56,35.55L418.27,427.33a54.7,54.7,0,0,1-53.17-.8L161.17,298.11a13.5,13.5,0,0,1,.39-23.61L374,149.56A44.78,44.78,0,0,1,417.47,150.31Z" transform="translate(-154.41 -137.42)"/><path class="cls-108" d="M417.47,149.88,622.11,274.6a20.35,20.35,0,0,1-.56,35.55L418.27,426.9a54.7,54.7,0,0,1-53.17-.8L161.17,297.68a13.5,13.5,0,0,1,.39-23.61L374,149.13A44.78,44.78,0,0,1,417.47,149.88Z" transform="translate(-154.41 -137.42)"/><path class="cls-109" d="M417.47,149.45,622.11,274.17a20.35,20.35,0,0,1-.56,35.55L418.27,426.47a54.7,54.7,0,0,1-53.17-.8L161.17,297.25a13.5,13.5,0,0,1,.39-23.61L374,148.7A44.78,44.78,0,0,1,417.47,149.45Z" transform="translate(-154.41 -137.42)"/><path class="cls-110" d="M417.47,149,622.11,273.74a20.35,20.35,0,0,1-.56,35.55L418.27,426a54.7,54.7,0,0,1-53.17-.8L161.17,296.82a13.5,13.5,0,0,1,.39-23.61L374,148.27A44.78,44.78,0,0,1,417.47,149Z" transform="translate(-154.41 -137.42)"/><path class="cls-111" d="M417.47,148.59,622.11,273.32a20.34,20.34,0,0,1-.56,35.54L418.27,425.62a54.7,54.7,0,0,1-53.17-.81L161.17,296.39a13.5,13.5,0,0,1,.39-23.61L374,147.84A44.78,44.78,0,0,1,417.47,148.59Z" transform="translate(-154.41 -137.42)"/><path class="cls-112" d="M417.47,148.16,622.11,272.89a20.34,20.34,0,0,1-.56,35.54L418.27,425.19a54.7,54.7,0,0,1-53.17-.81L161.17,296a13.5,13.5,0,0,1,.39-23.61L374,147.41A44.8,44.8,0,0,1,417.47,148.16Z" transform="translate(-154.41 -137.42)"/><path class="cls-113" d="M417.47,147.73,622.11,272.46a20.34,20.34,0,0,1-.56,35.54L418.27,424.76A54.7,54.7,0,0,1,365.1,424L161.17,295.53a13.5,13.5,0,0,1,.39-23.61L374,147A44.8,44.8,0,0,1,417.47,147.73Z" transform="translate(-154.41 -137.42)"/><path class="cls-114" d="M417.47,147.3,622.11,272a20.34,20.34,0,0,1-.56,35.54L418.27,424.33a54.7,54.7,0,0,1-53.17-.81L161.17,295.1a13.5,13.5,0,0,1,.39-23.61L374,146.55A44.8,44.8,0,0,1,417.47,147.3Z" transform="translate(-154.41 -137.42)"/><path class="cls-115" d="M417.47,146.87,622.11,271.6a20.34,20.34,0,0,1-.56,35.54L418.27,423.9a54.72,54.72,0,0,1-53.17-.8L161.17,294.68a13.51,13.51,0,0,1,.39-23.62L374,146.12A44.8,44.8,0,0,1,417.47,146.87Z" transform="translate(-154.41 -137.42)"/><path class="cls-116" d="M417.47,146.44,622.11,271.17a20.34,20.34,0,0,1-.56,35.54L418.27,423.47a54.72,54.72,0,0,1-53.17-.8L161.17,294.25a13.51,13.51,0,0,1,.39-23.62L374,145.69A44.8,44.8,0,0,1,417.47,146.44Z" transform="translate(-154.41 -137.42)"/><path class="cls-117" d="M417.47,146,622.11,270.74a20.34,20.34,0,0,1-.56,35.54L418.27,423a54.72,54.72,0,0,1-53.17-.8L161.17,293.82a13.51,13.51,0,0,1,.39-23.62L374,145.26A44.8,44.8,0,0,1,417.47,146Z" transform="translate(-154.41 -137.42)"/><path class="cls-118" d="M417.47,145.58,622.11,270.31a20.34,20.34,0,0,1-.56,35.54L418.27,422.61a54.72,54.72,0,0,1-53.17-.8L161.17,293.39a13.51,13.51,0,0,1,.39-23.62L374,144.83A44.8,44.8,0,0,1,417.47,145.58Z" transform="translate(-154.41 -137.42)"/><path class="cls-119" d="M417.47,145.15,622.11,269.88a20.34,20.34,0,0,1-.56,35.54L418.27,422.18a54.72,54.72,0,0,1-53.17-.8L161.17,293a13.51,13.51,0,0,1,.39-23.62L374,144.4A44.8,44.8,0,0,1,417.47,145.15Z" transform="translate(-154.41 -137.42)"/><path class="cls-120" d="M417.47,144.72,622.11,269.45a20.35,20.35,0,0,1-.56,35.55L418.27,421.75a54.72,54.72,0,0,1-53.17-.8L161.17,292.53a13.51,13.51,0,0,1,.39-23.62L374,144A44.8,44.8,0,0,1,417.47,144.72Z" transform="translate(-154.41 -137.42)"/><path class="cls-121" d="M417.47,144.29,622.11,269a20.35,20.35,0,0,1-.56,35.55L418.27,421.32a54.72,54.72,0,0,1-53.17-.8L161.17,292.1a13.51,13.51,0,0,1,.39-23.62L374,143.54A44.8,44.8,0,0,1,417.47,144.29Z" transform="translate(-154.41 -137.42)"/><path class="cls-122" d="M417.47,143.86,622.11,268.59a20.35,20.35,0,0,1-.56,35.55L418.27,420.89a54.7,54.7,0,0,1-53.17-.8L161.17,291.67a13.5,13.5,0,0,1,.39-23.61L374,143.12A44.78,44.78,0,0,1,417.47,143.86Z" transform="translate(-154.41 -137.42)"/><path class="cls-123" d="M417.47,143.44,622.11,268.16a20.35,20.35,0,0,1-.56,35.55L418.27,420.46a54.7,54.7,0,0,1-53.17-.8L161.17,291.24a13.5,13.5,0,0,1,.39-23.61L374,142.69A44.78,44.78,0,0,1,417.47,143.44Z" transform="translate(-154.41 -137.42)"/><path class="cls-124" d="M476.52,179.62l50.61,30.69S435.31,240.44,436.75,238,476.52,179.62,476.52,179.62Z" transform="translate(-154.41 -137.42)"/><path class="cls-38" d="M492.42,176.87l-46.86,58.65c-1.82,2.39-5.81,5-8.81,5h-49.5a1.58,1.58,0,0,1-1.28-2.51L443,168.43a7.47,7.47,0,0,1,7.63-2.94Z" transform="translate(-154.41 -137.42)"/><path class="cls-39" d="M492.41,176.77l-46.85,58.65c-1.82,2.39-5.79,5-8.8,5H387.37a1.58,1.58,0,0,1-1.28-2.51l57-69.57a7.45,7.45,0,0,1,7.63-2.93Z" transform="translate(-154.41 -137.42)"/><path class="cls-40" d="M492.4,176.67l-46.84,58.65c-1.82,2.39-5.78,5-8.78,5H387.49a1.57,1.57,0,0,1-1.28-2.5L443,168.3a7.47,7.47,0,0,1,7.63-2.94Z" transform="translate(-154.41 -137.42)"/><path class="cls-41" d="M492.4,176.57l-46.84,58.65c-1.82,2.39-5.76,5-8.76,5H387.62a1.58,1.58,0,0,1-1.29-2.51L443,168.23a7.45,7.45,0,0,1,7.63-2.93Z" transform="translate(-154.41 -137.42)"/><path class="cls-125" d="M492.39,176.47l-46.83,58.65c-1.82,2.39-5.75,5-8.75,5H387.74a1.59,1.59,0,0,1-1.29-2.51L443,168.17a7.45,7.45,0,0,1,7.63-2.94Z" transform="translate(-154.41 -137.42)"/><path class="cls-43" d="M492.38,176.37,445.56,235c-1.82,2.39-5.73,4.95-8.73,4.95h-49a1.59,1.59,0,0,1-1.29-2.51L443,168.1a7.45,7.45,0,0,1,7.63-2.93Z" transform="translate(-154.41 -137.42)"/><path class="cls-126" d="M492.38,176.28l-46.82,58.64c-1.82,2.39-5.71,4.93-8.72,4.93H388a1.58,1.58,0,0,1-1.29-2.5L443,168a7.45,7.45,0,0,1,7.63-2.94Z" transform="translate(-154.41 -137.42)"/><path class="cls-127" d="M492.37,176.18l-46.81,58.64c-1.82,2.39-5.7,4.92-8.7,4.92H388.1a1.59,1.59,0,0,1-1.29-2.51L443,168a7.47,7.47,0,0,1,7.63-2.94Z" transform="translate(-154.41 -137.42)"/><path class="cls-128" d="M492.36,176.08l-46.8,58.64c-1.82,2.39-5.68,4.9-8.68,4.9H388.22a1.59,1.59,0,0,1-1.29-2.51L443,167.9a7.45,7.45,0,0,1,7.63-2.93Z" transform="translate(-154.41 -137.42)"/><path class="cls-129" d="M492.36,176l-46.8,58.64c-1.82,2.39-5.67,4.88-8.67,4.88H388.34a1.59,1.59,0,0,1-1.29-2.51l56-69.15a7.47,7.47,0,0,1,7.63-2.94Z" transform="translate(-154.41 -137.42)"/><path class="cls-130" d="M492.35,175.88l-46.79,58.64c-1.82,2.38-5.65,4.87-8.65,4.87H388.46a1.58,1.58,0,0,1-1.28-2.51L443,167.77a7.45,7.45,0,0,1,7.63-2.93Z" transform="translate(-154.41 -137.42)"/><path class="cls-131" d="M492.35,175.78l-46.79,58.64c-1.82,2.38-5.63,4.85-8.64,4.85H388.58a1.58,1.58,0,0,1-1.28-2.51l55.74-69a7.45,7.45,0,0,1,7.63-2.94Z" transform="translate(-154.41 -137.42)"/><path class="cls-132" d="M492.34,175.68l-46.78,58.64c-1.82,2.38-5.62,4.83-8.62,4.83H388.7a1.58,1.58,0,0,1-1.28-2.51l55.62-69a7.45,7.45,0,0,1,7.63-2.93Z" transform="translate(-154.41 -137.42)"/><path class="cls-133" d="M492.33,175.58l-46.77,58.64C443.74,236.6,440,239,437,239H388.83a1.58,1.58,0,0,1-1.29-2.51L443,167.58a7.45,7.45,0,0,1,7.63-2.94Z" transform="translate(-154.41 -137.42)"/><path class="cls-134" d="M492.33,175.48l-46.77,58.64c-1.82,2.38-5.59,4.8-8.59,4.8H389a1.59,1.59,0,0,1-1.29-2.51L443,167.51a7.47,7.47,0,0,1,7.63-2.94Z" transform="translate(-154.41 -137.42)"/><path class="cls-135" d="M492.32,175.38,445.56,234c-1.82,2.38-5.57,4.78-8.57,4.78H389.07a1.59,1.59,0,0,1-1.29-2.51L443,167.44a7.45,7.45,0,0,1,7.63-2.93Z" transform="translate(-154.41 -137.42)"/><path class="cls-136" d="M492.31,175.28l-46.75,58.64c-1.82,2.38-5.56,4.76-8.56,4.76H389.19a1.59,1.59,0,0,1-1.29-2.51L443,167.38a7.47,7.47,0,0,1,7.63-2.94Z" transform="translate(-154.41 -137.42)"/><path class="cls-137" d="M492.31,175.18l-46.75,58.64c-1.82,2.38-5.54,4.74-8.54,4.74H389.31a1.59,1.59,0,0,1-1.29-2.51l55-68.74a7.45,7.45,0,0,1,7.63-2.93Z" transform="translate(-154.41 -137.42)"/><path class="cls-138" d="M492.3,175.08l-46.74,58.64c-1.82,2.38-5.52,4.73-8.53,4.73h-47.6a1.59,1.59,0,0,1-1.29-2.51L443,167.25a7.45,7.45,0,0,1,7.63-2.94Z" transform="translate(-154.41 -137.42)"/><path class="cls-139" d="M492.29,175l-46.73,58.63c-1.82,2.38-5.51,4.71-8.51,4.71h-47.5a1.59,1.59,0,0,1-1.29-2.51L443,167.18a7.45,7.45,0,0,1,7.63-2.93Z" transform="translate(-154.41 -137.42)"/><path class="cls-140" d="M492.29,174.89l-46.73,58.63c-1.82,2.38-5.49,4.69-8.49,4.69h-47.4a1.59,1.59,0,0,1-1.29-2.51L443,167.12a7.45,7.45,0,0,1,7.63-2.94Z" transform="translate(-154.41 -137.42)"/><path class="cls-141" d="M492.28,174.79l-46.72,58.63c-1.82,2.38-5.48,4.67-8.48,4.67H389.79a1.57,1.57,0,0,1-1.28-2.5L443,167.05a7.47,7.47,0,0,1,7.63-2.94Z" transform="translate(-154.41 -137.42)"/><path class="cls-60" d="M492.28,174.69l-46.72,58.63c-1.82,2.38-5.46,4.66-8.46,4.66H389.91a1.58,1.58,0,0,1-1.28-2.51L443,167a7.45,7.45,0,0,1,7.63-2.93Z" transform="translate(-154.41 -137.42)"/><path class="cls-142" d="M492.27,174.59l-46.71,58.63c-1.82,2.38-5.45,4.64-8.45,4.64H390a1.58,1.58,0,0,1-1.29-2.51L443,166.92a7.47,7.47,0,0,1,7.63-2.94Z" transform="translate(-154.41 -137.42)"/><path class="cls-62" d="M492.26,174.49l-46.7,58.63c-1.82,2.38-5.43,4.62-8.43,4.62h-47a1.59,1.59,0,0,1-1.29-2.51L443,166.85a7.45,7.45,0,0,1,7.63-2.93Z" transform="translate(-154.41 -137.42)"/><path class="cls-63" d="M492.26,174.39,445.56,233c-1.82,2.38-5.41,4.6-8.42,4.6H390.28a1.58,1.58,0,0,1-1.29-2.5L443,166.79a7.45,7.45,0,0,1,7.63-2.94Z" transform="translate(-154.41 -137.42)"/><path class="cls-64" d="M492.25,174.29l-46.69,58.63c-1.82,2.38-5.4,4.59-8.4,4.59H390.4a1.59,1.59,0,0,1-1.29-2.51L443,166.72a7.45,7.45,0,0,1,7.63-2.93Z" transform="translate(-154.41 -137.42)"/><path class="cls-65" d="M492.24,174.19l-46.68,58.63c-1.82,2.38-5.38,4.57-8.38,4.57H390.52a1.59,1.59,0,0,1-1.29-2.51L443,166.66a7.45,7.45,0,0,1,7.63-2.94Z" transform="translate(-154.41 -137.42)"/><path class="cls-66" d="M492.24,174.09l-46.68,58.63c-1.82,2.38-5.37,4.55-8.37,4.55H390.64a1.59,1.59,0,0,1-1.29-2.51L443,166.59a7.47,7.47,0,0,1,7.63-2.94Z" transform="translate(-154.41 -137.42)"/><path class="cls-67" d="M492.23,174l-46.67,58.63c-1.82,2.38-5.35,4.53-8.35,4.53H390.76a1.58,1.58,0,0,1-1.29-2.5L443,166.52a7.45,7.45,0,0,1,7.63-2.93Z" transform="translate(-154.41 -137.42)"/><path class="cls-68" d="M492.22,173.89l-46.66,58.63c-1.82,2.38-5.33,4.52-8.34,4.52H390.88a1.59,1.59,0,0,1-1.29-2.51L443,166.46a7.47,7.47,0,0,1,7.63-2.94Z" transform="translate(-154.41 -137.42)"/><path class="cls-69" d="M492.22,173.79l-46.66,58.63c-1.82,2.38-5.32,4.5-8.32,4.5H391a1.58,1.58,0,0,1-1.28-2.51l53.32-68a7.45,7.45,0,0,1,7.63-2.93Z" transform="translate(-154.41 -137.42)"/><path class="cls-70" d="M492.21,173.7l-46.65,58.62c-1.82,2.38-5.3,4.48-8.3,4.48H391.12a1.58,1.58,0,0,1-1.28-2.51l53.2-68a7.45,7.45,0,0,1,7.63-2.94Z" transform="translate(-154.41 -137.42)"/><path class="cls-143" d="M492.2,173.6l-46.64,58.62c-1.82,2.38-5.29,4.47-8.29,4.47h-46a1.58,1.58,0,0,1-1.28-2.51L443,166.26a7.45,7.45,0,0,1,7.63-2.93Z" transform="translate(-154.41 -137.42)"/><path class="cls-72" d="M492.2,173.5l-46.64,58.62c-1.82,2.38-5.27,4.45-8.27,4.45H391.37a1.59,1.59,0,0,1-1.29-2.51l53-67.86a7.45,7.45,0,0,1,7.63-2.94Z" transform="translate(-154.41 -137.42)"/><path class="cls-73" d="M492.19,173.4,445.56,232c-1.82,2.38-5.26,4.43-8.26,4.43H391.49a1.59,1.59,0,0,1-1.29-2.51L443,166.13a7.47,7.47,0,0,1,7.63-2.94Z" transform="translate(-154.41 -137.42)"/><path class="cls-144" d="M492.19,173.3l-46.63,58.62c-1.82,2.38-5.24,4.41-8.24,4.41H391.61a1.59,1.59,0,0,1-1.29-2.51L443,166.06a7.45,7.45,0,0,1,7.63-2.93Z" transform="translate(-154.41 -137.42)"/><path class="cls-144" d="M492.18,173.2l-46.62,58.62a11.41,11.41,0,0,1-8.23,4.4h-45.6a1.59,1.59,0,0,1-1.29-2.51L443,166a7.47,7.47,0,0,1,7.63-2.94Z" transform="translate(-154.41 -137.42)"/><path class="cls-145" d="M492.17,173.1l-46.61,58.62a11.37,11.37,0,0,1-8.21,4.38h-45.5a1.59,1.59,0,0,1-1.29-2.51L443,165.93a7.45,7.45,0,0,1,7.63-2.93Z" transform="translate(-154.41 -137.42)"/><path class="cls-146" d="M492.17,173l-46.61,58.62a11.3,11.3,0,0,1-8.19,4.36H392a1.59,1.59,0,0,1-1.29-2.51L443,165.87a7.45,7.45,0,0,1,7.63-2.94Z" transform="translate(-154.41 -137.42)"/><path class="cls-147" d="M492.16,172.9l-46.6,58.62a11.26,11.26,0,0,1-8.18,4.34H392.09a1.59,1.59,0,0,1-1.29-2.51L443,165.8a7.45,7.45,0,0,1,7.63-2.93Z" transform="translate(-154.41 -137.42)"/><path class="cls-148" d="M492.15,172.8l-46.59,58.61a11.19,11.19,0,0,1-8.16,4.34H392.21a1.58,1.58,0,0,1-1.28-2.51L443,165.74a7.45,7.45,0,0,1,7.63-2.94Z" transform="translate(-154.41 -137.42)"/><path class="cls-149" d="M492.15,172.7l-46.59,58.61a11.13,11.13,0,0,1-8.15,4.32H392.33a1.58,1.58,0,0,1-1.28-2.51l52-67.45a7.47,7.47,0,0,1,7.63-2.94Z" transform="translate(-154.41 -137.42)"/><path class="cls-150" d="M492.14,172.6l-46.58,58.61a11.08,11.08,0,0,1-8.13,4.3h-45a1.58,1.58,0,0,1-1.28-2.51L443,165.6a7.45,7.45,0,0,1,7.63-2.93Z" transform="translate(-154.41 -137.42)"/><path class="cls-151" d="M492.13,172.5l-46.57,58.61a11,11,0,0,1-8.11,4.28H392.58a1.58,1.58,0,0,1-1.29-2.5L443,165.54a7.47,7.47,0,0,1,7.63-2.94Z" transform="translate(-154.41 -137.42)"/><path class="cls-152" d="M492.13,172.4,445.56,231a11,11,0,0,1-8.1,4.27H392.7a1.59,1.59,0,0,1-1.29-2.51L443,165.47a7.45,7.45,0,0,1,7.63-2.93Z" transform="translate(-154.41 -137.42)"/><path class="cls-153" d="M492.12,172.31l-46.56,58.6a10.93,10.93,0,0,1-8.08,4.25H392.82a1.59,1.59,0,0,1-1.29-2.51L443,165.41a7.45,7.45,0,0,1,7.63-2.94Z" transform="translate(-154.41 -137.42)"/><path class="cls-154" d="M492.12,172.21l-46.56,58.6a10.88,10.88,0,0,1-8.07,4.23H392.94a1.59,1.59,0,0,1-1.29-2.51L443,165.34a7.45,7.45,0,0,1,7.63-2.93Z" transform="translate(-154.41 -137.42)"/><path class="cls-155" d="M492.11,172.11l-46.55,58.6a10.82,10.82,0,0,1-8.05,4.21H393.06a1.58,1.58,0,0,1-1.29-2.5L443,165.28a7.45,7.45,0,0,1,7.63-2.94Z" transform="translate(-154.41 -137.42)"/><path class="cls-156" d="M492.1,172l-46.54,58.6a10.78,10.78,0,0,1-8,4.2H393.18a1.59,1.59,0,0,1-1.29-2.51L443,165.21a7.47,7.47,0,0,1,7.63-2.94Z" transform="translate(-154.41 -137.42)"/><path class="cls-157" d="M492.1,171.91l-46.54,58.6a10.73,10.73,0,0,1-8,4.18H393.3a1.59,1.59,0,0,1-1.29-2.51l51-67a7.45,7.45,0,0,1,7.63-2.93Z" transform="translate(-154.41 -137.42)"/><path class="cls-158" d="M492.09,171.81l-46.53,58.6a10.67,10.67,0,0,1-8,4.16H393.42a1.58,1.58,0,0,1-1.28-2.51l50.9-67a7.47,7.47,0,0,1,7.63-2.94Z" transform="translate(-154.41 -137.42)"/><path class="cls-159" d="M492.08,171.71l-46.52,58.6a10.63,10.63,0,0,1-8,4.14h-44a1.57,1.57,0,0,1-1.28-2.5L443,165a7.45,7.45,0,0,1,7.63-2.93Z" transform="translate(-154.41 -137.42)"/><path class="cls-160" d="M492.08,171.61l-46.52,58.6a10.58,10.58,0,0,1-8,4.13H393.66a1.58,1.58,0,0,1-1.28-2.51L443,165a7.45,7.45,0,0,1,7.63-2.94Z" transform="translate(-154.41 -137.42)"/><path class="cls-161" d="M492.07,171.51l-46.51,58.6a10.52,10.52,0,0,1-8,4.11H393.79a1.58,1.58,0,0,1-1.29-2.51L443,164.88a7.45,7.45,0,0,1,7.63-2.93Z" transform="translate(-154.41 -137.42)"/><path class="cls-162" d="M492.06,171.41,445.56,230a10.48,10.48,0,0,1-7.94,4.09H393.91a1.59,1.59,0,0,1-1.29-2.51L443,164.82a7.45,7.45,0,0,1,7.63-2.94Z" transform="translate(-154.41 -137.42)"/><path class="cls-163" d="M492.06,171.31l-46.5,58.6a10.43,10.43,0,0,1-7.93,4.08H394a1.59,1.59,0,0,1-1.29-2.51L443,164.75a7.47,7.47,0,0,1,7.63-2.94Z" transform="translate(-154.41 -137.42)"/><path class="cls-164" d="M492.05,171.21l-46.49,58.6a10.39,10.39,0,0,1-7.91,4.06h-43.5a1.59,1.59,0,0,1-1.29-2.51L443,164.68a7.45,7.45,0,0,1,7.63-2.93Z" transform="translate(-154.41 -137.42)"/><path class="cls-165" d="M492,171.11l-46.48,58.6a10.36,10.36,0,0,1-7.89,4h-43.4a1.59,1.59,0,0,1-1.29-2.51L443,164.62a7.47,7.47,0,0,1,7.63-2.94Z" transform="translate(-154.41 -137.42)"/><path class="cls-166" d="M492,171l-46.48,58.59a10.32,10.32,0,0,1-7.88,4H394.39a1.59,1.59,0,0,1-1.29-2.51L443,164.55a7.45,7.45,0,0,1,7.63-2.93Z" transform="translate(-154.41 -137.42)"/><path class="cls-167" d="M492,170.92l-46.47,58.59a10.27,10.27,0,0,1-7.86,4H394.51a1.59,1.59,0,0,1-1.29-2.51L443,164.49a7.45,7.45,0,0,1,7.63-2.94Z" transform="translate(-154.41 -137.42)"/><path class="cls-168" d="M492,170.82l-46.47,58.59a10.21,10.21,0,0,1-7.85,4H394.63a1.58,1.58,0,0,1-1.28-2.51L443,164.42a7.45,7.45,0,0,1,7.63-2.93Z" transform="translate(-154.41 -137.42)"/><path class="cls-169" d="M492,170.72l-46.46,58.59a10.17,10.17,0,0,1-7.83,4h-43a1.58,1.58,0,0,1-1.28-2.51L443,164.36a7.45,7.45,0,0,1,7.63-2.94Z" transform="translate(-154.41 -137.42)"/><path class="cls-170" d="M492,170.62l-46.45,58.59a10.11,10.11,0,0,1-7.81,3.95H394.87a1.58,1.58,0,0,1-1.28-2.51L443,164.29a7.47,7.47,0,0,1,7.63-2.94Z" transform="translate(-154.41 -137.42)"/><path class="cls-171" d="M492,170.52l-46.45,58.59a10.08,10.08,0,0,1-7.8,3.94H395a1.58,1.58,0,0,1-1.29-2.51L443,164.22a7.45,7.45,0,0,1,7.63-2.93Z" transform="translate(-154.41 -137.42)"/><path class="cls-172" d="M492,170.42,445.56,229a10,10,0,0,1-7.78,3.92H395.12a1.59,1.59,0,0,1-1.29-2.51L443,164.16a7.47,7.47,0,0,1,7.63-2.94Z" transform="translate(-154.41 -137.42)"/><path class="cls-173" d="M492,170.32l-46.43,58.59a10,10,0,0,1-7.77,3.9H395.24A1.59,1.59,0,0,1,394,230.3L443,164.09a7.45,7.45,0,0,1,7.63-2.93Z" transform="translate(-154.41 -137.42)"/><path class="cls-174" d="M492,170.22l-46.43,58.59a9.92,9.92,0,0,1-7.75,3.88H395.36a1.58,1.58,0,0,1-1.29-2.5L443,164a7.45,7.45,0,0,1,7.63-2.94Z" transform="translate(-154.41 -137.42)"/><path class="cls-175" d="M492,170.12l-46.42,58.59a9.88,9.88,0,0,1-7.74,3.87H395.48a1.59,1.59,0,0,1-1.29-2.51L443,164a7.45,7.45,0,0,1,7.63-2.93Z" transform="translate(-154.41 -137.42)"/><path class="cls-176" d="M492,170l-46.41,58.59a9.84,9.84,0,0,1-7.72,3.85H395.6a1.59,1.59,0,0,1-1.29-2.51l48.73-66a7.45,7.45,0,0,1,7.63-2.94Z" transform="translate(-154.41 -137.42)"/><path class="cls-177" d="M492,169.92l-46.41,58.59a9.78,9.78,0,0,1-7.7,3.83H395.72a1.59,1.59,0,0,1-1.29-2.51l48.61-66a7.47,7.47,0,0,1,7.63-2.94Z" transform="translate(-154.41 -137.42)"/><path class="cls-178" d="M492,169.82l-46.4,58.59a9.74,9.74,0,0,1-7.69,3.81h-42a1.58,1.58,0,0,1-1.29-2.5l48.49-66a7.45,7.45,0,0,1,7.63-2.93Z" transform="translate(-154.41 -137.42)"/><path class="cls-179" d="M492,169.73l-46.4,58.58a9.69,9.69,0,0,1-7.67,3.8H396a1.58,1.58,0,0,1-1.28-2.51L443,163.7a7.47,7.47,0,0,1,7.63-2.94Z" transform="translate(-154.41 -137.42)"/><path class="cls-180" d="M492,169.63l-46.39,58.58A9.64,9.64,0,0,1,437.9,232H396.08a1.58,1.58,0,0,1-1.28-2.51L443,163.63a7.45,7.45,0,0,1,7.63-2.93Z" transform="translate(-154.41 -137.42)"/><path class="cls-38" d="M446.31,234l92-30a7.54,7.54,0,0,1,8.45,2l28.92,33.82-129,50a2,2,0,0,1-2.75-1.63l-2.67-41.46C440.94,243.21,443,235.35,446.31,234Z" transform="translate(-154.41 -137.42)"/><path class="cls-39" d="M446.35,234l91.94-30a7.56,7.56,0,0,1,8.46,2l28.87,33.77L446.73,289.72a2,2,0,0,1-2.75-1.63l-2.68-41.42C441,243.11,443.05,235.32,446.35,234Z" transform="translate(-154.41 -137.42)"/><path class="cls-40" d="M446.39,234l91.89-30a7.54,7.54,0,0,1,8.45,2l28.84,33.73L446.78,289.58A2,2,0,0,1,444,288l-2.7-41.37C441,243,443.09,235.28,446.39,234Z" transform="translate(-154.41 -137.42)"/><path class="cls-41" d="M446.42,233.92,538.26,204a7.55,7.55,0,0,1,8.45,2l28.81,33.69L446.83,289.44a2,2,0,0,1-2.75-1.62l-2.71-41.34C441.06,242.92,443.13,235.25,446.42,233.92Z" transform="translate(-154.41 -137.42)"/><path class="cls-125" d="M446.46,233.89,538.25,204a7.52,7.52,0,0,1,8.44,2l28.78,33.63-128.6,49.74a2,2,0,0,1-2.74-1.63l-2.72-41.3C441.1,242.82,443.17,235.22,446.46,233.89Z" transform="translate(-154.41 -137.42)"/><path class="cls-43" d="M446.5,233.86l91.73-29.92a7.53,7.53,0,0,1,8.44,2l28.75,33.59-128.5,49.67a2,2,0,0,1-2.74-1.63l-2.73-41.26C441.14,242.73,443.21,235.19,446.5,233.86Z" transform="translate(-154.41 -137.42)"/><path class="cls-126" d="M446.54,233.83l91.68-29.92a7.54,7.54,0,0,1,8.44,2l28.71,33.55L447,289a2,2,0,0,1-2.74-1.62l-2.74-41.22C441.18,242.63,443.25,235.15,446.54,233.83Z" transform="translate(-154.41 -137.42)"/><path class="cls-127" d="M446.57,233.8l91.64-29.92a7.54,7.54,0,0,1,8.43,2l28.68,33.5L447,288.9a2,2,0,0,1-2.74-1.63l-2.75-41.18C441.22,242.54,443.29,235.12,446.57,233.8Z" transform="translate(-154.41 -137.42)"/><path class="cls-128" d="M446.61,233.76l91.58-29.9a7.52,7.52,0,0,1,8.43,2l28.64,33.46L447.07,288.76a2,2,0,0,1-2.74-1.63L441.57,246C441.26,242.44,443.33,235.09,446.61,233.76Z" transform="translate(-154.41 -137.42)"/><path class="cls-129" d="M446.65,233.73l91.53-29.9a7.53,7.53,0,0,1,8.42,2l28.61,33.4L447.12,288.62a2,2,0,0,1-2.74-1.62l-2.77-41.11C441.3,242.34,443.36,235.06,446.65,233.73Z" transform="translate(-154.41 -137.42)"/><path class="cls-130" d="M446.69,233.7l91.47-29.89a7.53,7.53,0,0,1,8.43,2l28.57,33.36-128,49.34a1.94,1.94,0,0,1-2.74-1.62l-2.78-41.06C441.34,242.25,443.4,235,446.69,233.7Z" transform="translate(-154.41 -137.42)"/><path class="cls-131" d="M446.72,233.67l91.43-29.89a7.54,7.54,0,0,1,8.42,2l28.54,33.32L447.22,288.35a2,2,0,0,1-2.74-1.62l-2.79-41C441.38,242.15,443.44,235,446.72,233.67Z" transform="translate(-154.41 -137.42)"/><path class="cls-132" d="M446.76,233.64l91.37-29.88a7.51,7.51,0,0,1,8.42,2L575.06,239,447.27,288.21a2,2,0,0,1-2.74-1.62l-2.8-41C441.42,242.06,443.48,235,446.76,233.64Z" transform="translate(-154.41 -137.42)"/><path class="cls-133" d="M446.8,233.6l91.32-29.87a7.53,7.53,0,0,1,8.41,2L575,238.93l-127.7,49.14a1.94,1.94,0,0,1-2.73-1.62l-2.81-40.95C441.46,242,443.52,234.92,446.8,233.6Z" transform="translate(-154.41 -137.42)"/><path class="cls-134" d="M446.84,233.57l91.26-29.86a7.54,7.54,0,0,1,8.42,2L575,238.85l-127.6,49.09a1.94,1.94,0,0,1-2.73-1.62l-2.82-40.91C441.5,241.87,443.56,234.89,446.84,233.57Z" transform="translate(-154.41 -137.42)"/><path class="cls-135" d="M446.87,233.54l91.22-29.86a7.51,7.51,0,0,1,8.41,2l28.41,33.13-127.5,49a1.94,1.94,0,0,1-2.73-1.62l-2.83-40.87C441.54,241.77,443.6,234.86,446.87,233.54Z" transform="translate(-154.41 -137.42)"/><path class="cls-136" d="M446.91,233.51l91.16-29.85a7.52,7.52,0,0,1,8.41,2l28.37,33.09-127.39,49a2,2,0,0,1-2.74-1.62l-2.83-40.83C441.58,241.67,443.63,234.83,446.91,233.51Z" transform="translate(-154.41 -137.42)"/><path class="cls-137" d="M447,233.48l91.11-29.85a7.49,7.49,0,0,1,8.4,2l28.34,33L447.51,287.52a2,2,0,0,1-2.74-1.61l-2.84-40.8C441.62,241.58,443.67,234.79,447,233.48Z" transform="translate(-154.41 -137.42)"/><path class="cls-138" d="M447,233.44l91-29.83a7.52,7.52,0,0,1,8.41,2l28.3,33L447.56,287.39a2,2,0,0,1-2.74-1.62L442,245C441.66,241.48,443.71,234.76,447,233.44Z" transform="translate(-154.41 -137.42)"/><path class="cls-139" d="M447,233.41l91-29.83a7.51,7.51,0,0,1,8.4,2l28.27,33L447.61,287.25a2,2,0,0,1-2.74-1.62L442,244.92C441.7,241.39,443.75,234.73,447,233.41Z" transform="translate(-154.41 -137.42)"/><path class="cls-140" d="M447.06,233.38l91-29.82a7.49,7.49,0,0,1,8.39,2l28.24,32.9-127,48.69a2,2,0,0,1-2.74-1.61l-2.87-40.68C441.74,241.29,443.79,234.7,447.06,233.38Z" transform="translate(-154.41 -137.42)"/><path class="cls-141" d="M447.1,233.35,538,203.53a7.49,7.49,0,0,1,8.39,2l28.21,32.86L447.7,287a2,2,0,0,1-2.73-1.62l-2.88-40.64C441.78,241.19,443.83,234.66,447.1,233.35Z" transform="translate(-154.41 -137.42)"/><path class="cls-60" d="M447.14,233.32,538,203.5a7.53,7.53,0,0,1,8.39,2l28.17,32.82-126.8,48.56a2,2,0,0,1-2.73-1.62l-2.89-40.59C441.82,241.1,443.87,234.63,447.14,233.32Z" transform="translate(-154.41 -137.42)"/><path class="cls-142" d="M447.17,233.28l90.8-29.8a7.49,7.49,0,0,1,8.39,2l28.13,32.77L447.8,286.7a1.94,1.94,0,0,1-2.73-1.61l-2.9-40.56C441.86,241,443.91,234.6,447.17,233.28Z" transform="translate(-154.41 -137.42)"/><path class="cls-62" d="M447.21,233.25,538,203.45a7.51,7.51,0,0,1,8.38,2l28.1,32.72L447.85,286.56a1.94,1.94,0,0,1-2.73-1.61l-2.91-40.52C441.9,240.91,443.94,234.57,447.21,233.25Z" transform="translate(-154.41 -137.42)"/><path class="cls-63" d="M447.25,233.22l90.69-29.79a7.48,7.48,0,0,1,8.38,2l28.07,32.67L447.9,286.43a2,2,0,0,1-2.73-1.62l-2.92-40.48C441.94,240.81,444,234.53,447.25,233.22Z" transform="translate(-154.41 -137.42)"/><path class="cls-64" d="M447.29,233.19l90.64-29.79a7.51,7.51,0,0,1,8.38,2l28,32.63L448,286.29a2,2,0,0,1-2.73-1.61l-2.93-40.44C442,240.71,444,234.5,447.29,233.19Z" transform="translate(-154.41 -137.42)"/><path class="cls-65" d="M447.32,233.16l90.59-29.78a7.49,7.49,0,0,1,8.38,2l28,32.59L448,286.15a1.94,1.94,0,0,1-2.73-1.61l-2.94-40.4C442,240.62,444.06,234.47,447.32,233.16Z" transform="translate(-154.41 -137.42)"/><path class="cls-66" d="M447.36,233.12l90.54-29.77a7.5,7.5,0,0,1,8.37,2l28,32.54L448.05,286a1.94,1.94,0,0,1-2.73-1.6L442.37,244C442.06,240.52,444.1,234.43,447.36,233.12Z" transform="translate(-154.41 -137.42)"/><path class="cls-67" d="M447.4,233.09l90.48-29.76a7.47,7.47,0,0,1,8.37,1.95l27.94,32.49L448.1,285.88a2,2,0,0,1-2.73-1.61l-3-40.33C442.1,240.43,444.14,234.4,447.4,233.09Z" transform="translate(-154.41 -137.42)"/><path class="cls-68" d="M447.44,233.06l90.43-29.76a7.51,7.51,0,0,1,8.37,1.95l27.89,32.45-126,48a1.94,1.94,0,0,1-2.72-1.61l-3-40.29C442.14,240.33,444.18,234.37,447.44,233.06Z" transform="translate(-154.41 -137.42)"/><path class="cls-69" d="M447.47,233l90.38-29.75a7.48,7.48,0,0,1,8.37,1.95l27.86,32.4-125.89,48a1.93,1.93,0,0,1-2.72-1.6l-3-40.25C442.18,240.23,444.21,234.34,447.47,233Z" transform="translate(-154.41 -137.42)"/><path class="cls-70" d="M447.51,233l90.33-29.75a7.49,7.49,0,0,1,8.36,1.95L574,237.56,448.24,285.47a1.94,1.94,0,0,1-2.72-1.61l-3-40.21C442.22,240.14,444.25,234.3,447.51,233Z" transform="translate(-154.41 -137.42)"/><path class="cls-143" d="M447.55,233l90.27-29.73a7.46,7.46,0,0,1,8.36,2L574,237.49,448.29,285.33a1.94,1.94,0,0,1-2.72-1.61l-3-40.17C442.26,240,444.29,234.27,447.55,233Z" transform="translate(-154.41 -137.42)"/><path class="cls-72" d="M447.59,232.93l90.22-29.73a7.49,7.49,0,0,1,8.36,2l27.76,32.27L448.34,285.19a1.93,1.93,0,0,1-2.72-1.6l-3-40.14C442.3,240,444.33,234.24,447.59,232.93Z" transform="translate(-154.41 -137.42)"/><path class="cls-73" d="M447.62,232.9l90.18-29.72a7.46,7.46,0,0,1,8.35,1.94l27.73,32.22L448.39,285.05a1.93,1.93,0,0,1-2.72-1.6l-3-40.09C442.34,239.85,444.37,234.21,447.62,232.9Z" transform="translate(-154.41 -137.42)"/><path class="cls-144" d="M447.66,232.87l90.12-29.72a7.48,7.48,0,0,1,8.35,1.95l27.7,32.17L448.44,284.92a1.94,1.94,0,0,1-2.72-1.61l-3-40.05C442.38,239.75,444.41,234.17,447.66,232.87Z" transform="translate(-154.41 -137.42)"/><path class="cls-144" d="M447.7,232.84l90.07-29.72a7.46,7.46,0,0,1,8.34,1.95l27.66,32.13L448.49,284.78a1.94,1.94,0,0,1-2.72-1.6l-3-40C442.42,239.66,444.45,234.14,447.7,232.84Z" transform="translate(-154.41 -137.42)"/><path class="cls-145" d="M447.74,232.8l90-29.7A7.5,7.5,0,0,1,546.1,205l27.62,32.09L448.53,284.64a1.93,1.93,0,0,1-2.71-1.6l-3.06-40C442.46,239.56,444.48,234.11,447.74,232.8Z" transform="translate(-154.41 -137.42)"/><path class="cls-146" d="M447.77,232.77l90-29.7a7.48,7.48,0,0,1,8.34,2l27.59,32L448.58,284.51a1.94,1.94,0,0,1-2.71-1.61L442.8,243C442.49,239.47,444.52,234.08,447.77,232.77Z" transform="translate(-154.41 -137.42)"/><path class="cls-147" d="M447.81,232.74l89.91-29.69a7.48,7.48,0,0,1,8.34,1.94l27.56,32-125,47.39a1.93,1.93,0,0,1-2.71-1.6l-3.08-39.9C442.53,239.37,444.56,234,447.81,232.74Z" transform="translate(-154.41 -137.42)"/><path class="cls-148" d="M447.85,232.71,537.71,203A7.46,7.46,0,0,1,546,205l27.53,31.94L448.68,284.23a1.93,1.93,0,0,1-2.71-1.6l-3.09-39.86C442.57,239.27,444.6,234,447.85,232.71Z" transform="translate(-154.41 -137.42)"/><path class="cls-149" d="M447.89,232.67,537.69,203a7.48,7.48,0,0,1,8.34,1.94l27.49,31.9L448.73,284.09A1.93,1.93,0,0,1,446,282.5l-3.1-39.83C442.61,239.18,444.64,234,447.89,232.67Z" transform="translate(-154.41 -137.42)"/><path class="cls-150" d="M447.92,232.64,537.68,203a7.48,7.48,0,0,1,8.33,1.94l27.46,31.86L448.78,284a1.94,1.94,0,0,1-2.71-1.6L443,242.58C442.65,239.08,444.68,234,447.92,232.64Z" transform="translate(-154.41 -137.42)"/><path class="cls-151" d="M448,232.61,537.66,203a7.46,7.46,0,0,1,8.33,1.94l27.42,31.81L448.83,283.82a1.93,1.93,0,0,1-2.71-1.6L443,242.48C442.69,239,444.72,233.91,448,232.61Z" transform="translate(-154.41 -137.42)"/><path class="cls-152" d="M448,232.58l89.65-29.66a7.46,7.46,0,0,1,8.32,1.94l27.39,31.76L448.88,283.68a1.93,1.93,0,0,1-2.71-1.59L443,242.38C442.73,238.89,444.76,233.88,448,232.58Z" transform="translate(-154.41 -137.42)"/><path class="cls-153" d="M448,232.55l89.59-29.65a7.47,7.47,0,0,1,8.33,1.93l27.35,31.72-124.38,47a1.93,1.93,0,0,1-2.71-1.6l-3.14-39.67C442.77,238.79,444.79,233.85,448,232.55Z" transform="translate(-154.41 -137.42)"/><path class="cls-154" d="M448.07,232.51l89.55-29.64a7.47,7.47,0,0,1,8.32,1.94l27.32,31.67L449,283.41a1.92,1.92,0,0,1-2.7-1.6l-3.15-39.62C442.81,238.7,444.83,233.81,448.07,232.51Z" transform="translate(-154.41 -137.42)"/><path class="cls-155" d="M448.11,232.48l89.49-29.63a7.44,7.44,0,0,1,8.32,1.93l27.29,31.63L449,283.27a1.92,1.92,0,0,1-2.7-1.59l-3.16-39.59C442.85,238.6,444.87,233.78,448.11,232.48Z" transform="translate(-154.41 -137.42)"/><path class="cls-156" d="M448.15,232.45l89.44-29.63a7.45,7.45,0,0,1,8.31,1.94l27.26,31.58L449.07,283.13a1.92,1.92,0,0,1-2.7-1.59L443.2,242C442.89,238.51,444.91,233.75,448.15,232.45Z" transform="translate(-154.41 -137.42)"/><path class="cls-157" d="M448.19,232.42l89.39-29.62a7.43,7.43,0,0,1,8.31,1.93l27.22,31.53L449.12,283a1.92,1.92,0,0,1-2.7-1.6l-3.18-39.51C442.93,238.41,445,233.72,448.19,232.42Z" transform="translate(-154.41 -137.42)"/><path class="cls-158" d="M448.22,232.39l89.34-29.62a7.46,7.46,0,0,1,8.31,1.93l27.18,31.49L449.17,282.86a1.92,1.92,0,0,1-2.7-1.59l-3.19-39.47C443,238.31,445,233.68,448.22,232.39Z" transform="translate(-154.41 -137.42)"/><path class="cls-159" d="M448.26,232.35l89.29-29.61a7.44,7.44,0,0,1,8.3,1.94L573,236.12l-123.78,46.6a1.92,1.92,0,0,1-2.7-1.59l-3.2-39.43C443,238.22,445,233.65,448.26,232.35Z" transform="translate(-154.41 -137.42)"/><path class="cls-160" d="M448.3,232.32l89.23-29.6a7.44,7.44,0,0,1,8.3,1.93L573,236.05,449.27,282.59a1.92,1.92,0,0,1-2.7-1.6l-3.21-39.39C443.05,238.12,445.06,233.62,448.3,232.32Z" transform="translate(-154.41 -137.42)"/><path class="cls-161" d="M448.34,232.29l89.18-29.6a7.45,7.45,0,0,1,8.3,1.93L572.9,236,449.32,282.45a1.92,1.92,0,0,1-2.7-1.59L443.4,241.5C443.09,238,445.1,233.59,448.34,232.29Z" transform="translate(-154.41 -137.42)"/><path class="cls-162" d="M448.37,232.26l89.13-29.59a7.44,7.44,0,0,1,8.3,1.93l27.05,31.3L449.36,282.31a1.91,1.91,0,0,1-2.69-1.59l-3.23-39.31C443.13,237.93,445.14,233.55,448.37,232.26Z" transform="translate(-154.41 -137.42)"/><path class="cls-163" d="M448.41,232.23l89.08-29.59a7.43,7.43,0,0,1,8.29,1.93l27,31.26L449.41,282.17a1.91,1.91,0,0,1-2.69-1.59l-3.24-39.27C443.17,237.83,445.18,233.52,448.41,232.23Z" transform="translate(-154.41 -137.42)"/><path class="cls-164" d="M448.45,232.19l89-29.57a7.43,7.43,0,0,1,8.29,1.93l27,31.21L449.46,282a1.91,1.91,0,0,1-2.69-1.59l-3.25-39.24C443.21,237.74,445.22,233.49,448.45,232.19Z" transform="translate(-154.41 -137.42)"/><path class="cls-165" d="M448.49,232.16l89-29.57a7.41,7.41,0,0,1,8.28,1.93l27,31.17L449.51,281.9a1.91,1.91,0,0,1-2.69-1.59l-3.26-39.2C443.25,237.64,445.26,233.46,448.49,232.16Z" transform="translate(-154.41 -137.42)"/><path class="cls-166" d="M448.52,232.13l88.92-29.56a7.44,7.44,0,0,1,8.29,1.92l26.91,31.13L449.56,281.76a1.92,1.92,0,0,1-2.7-1.58L443.6,241C443.29,237.55,445.3,233.42,448.52,232.13Z" transform="translate(-154.41 -137.42)"/><path class="cls-167" d="M448.56,232.1l88.87-29.56a7.42,7.42,0,0,1,8.28,1.93l26.88,31.07-123,46.08a1.92,1.92,0,0,1-2.7-1.58l-3.27-39.12C443.33,237.45,445.34,233.39,448.56,232.1Z" transform="translate(-154.41 -137.42)"/><path class="cls-168" d="M448.6,232.07l88.81-29.55a7.43,7.43,0,0,1,8.28,1.92l26.85,31-122.88,46a1.92,1.92,0,0,1-2.7-1.59l-3.28-39.08C443.37,237.35,445.37,233.36,448.6,232.07Z" transform="translate(-154.41 -137.42)"/><path class="cls-169" d="M448.64,232l88.76-29.54a7.41,7.41,0,0,1,8.27,1.93l26.82,31-122.78,46a1.92,1.92,0,0,1-2.7-1.58l-3.29-39C443.41,237.26,445.41,233.32,448.64,232Z" transform="translate(-154.41 -137.42)"/><path class="cls-170" d="M448.67,232l88.72-29.53a7.42,7.42,0,0,1,8.27,1.92l26.78,30.94L449.76,281.21a1.92,1.92,0,0,1-2.7-1.58l-3.3-39C443.45,237.16,445.45,233.29,448.67,232Z" transform="translate(-154.41 -137.42)"/><path class="cls-171" d="M448.71,232l88.66-29.53a7.43,7.43,0,0,1,8.27,1.92l26.75,30.9L449.8,281.08a1.92,1.92,0,0,1-2.69-1.59l-3.32-39C443.49,237.07,445.49,233.26,448.71,232Z" transform="translate(-154.41 -137.42)"/><path class="cls-172" d="M448.75,231.94l88.61-29.52a7.4,7.4,0,0,1,8.26,1.92l26.71,30.85L449.85,280.94a1.92,1.92,0,0,1-2.69-1.58l-3.33-38.93A8.54,8.54,0,0,1,448.75,231.94Z" transform="translate(-154.41 -137.42)"/><path class="cls-173" d="M448.79,231.91l88.55-29.52a7.41,7.41,0,0,1,8.26,1.92l26.68,30.8L449.9,280.8a1.92,1.92,0,0,1-2.69-1.58l-3.34-38.89A8.44,8.44,0,0,1,448.79,231.91Z" transform="translate(-154.41 -137.42)"/><path class="cls-174" d="M448.82,231.87l88.51-29.51a7.43,7.43,0,0,1,8.26,1.92L572.23,235,450,280.66a1.92,1.92,0,0,1-2.69-1.58l-3.35-38.85A8.38,8.38,0,0,1,448.82,231.87Z" transform="translate(-154.41 -137.42)"/><path class="cls-175" d="M448.86,231.84l88.45-29.5a7.42,7.42,0,0,1,8.26,1.92L572.18,235,450,280.53a1.92,1.92,0,0,1-2.69-1.58L444,240.14A8.27,8.27,0,0,1,448.86,231.84Z" transform="translate(-154.41 -137.42)"/><path class="cls-176" d="M448.9,231.81l88.4-29.5a7.42,7.42,0,0,1,8.25,1.92l26.58,30.67L450.05,280.39a1.92,1.92,0,0,1-2.69-1.58L444,240A8.19,8.19,0,0,1,448.9,231.81Z" transform="translate(-154.41 -137.42)"/><path class="cls-177" d="M448.94,231.78l88.34-29.49a7.4,7.4,0,0,1,8.25,1.92l26.55,30.62-122,45.42a1.92,1.92,0,0,1-2.69-1.58L444,239.94A8.09,8.09,0,0,1,448.94,231.78Z" transform="translate(-154.41 -137.42)"/><path class="cls-178" d="M449,231.75l88.3-29.49a7.42,7.42,0,0,1,8.25,1.92L572,234.75,450.15,280.12a1.92,1.92,0,0,1-2.69-1.58l-3.39-38.7A8,8,0,0,1,449,231.75Z" transform="translate(-154.41 -137.42)"/><path class="cls-179" d="M449,231.71l88.24-29.47a7.41,7.41,0,0,1,8.25,1.91L572,234.68,450.19,280a1.91,1.91,0,0,1-2.68-1.58l-3.4-38.65A7.94,7.94,0,0,1,449,231.71Z" transform="translate(-154.41 -137.42)"/><path class="cls-180" d="M449.05,231.68l88.19-29.47a7.4,7.4,0,0,1,8.24,1.92l26.44,30.48L450.24,279.84a1.91,1.91,0,0,1-2.68-1.57l-3.41-38.62A7.85,7.85,0,0,1,449.05,231.68Z" transform="translate(-154.41 -137.42)"/><polygon class="cls-129" points="338.01 39.45 339.13 46.3 339.69 49.73 340.25 53.16 335.84 50.42 333.63 49.05 331.43 47.68 334.72 43.56 338.01 39.45"/><polygon class="cls-131" points="335 43.21 338.19 39.42 339.3 46.26 339.87 49.77 340.43 53.28 338.22 51.9 336.01 50.53 333.86 49.01 331.72 47.49 333.75 44.48 334.38 43.84 335 43.21"/><polygon class="cls-134" points="335.29 42.85 338.37 39.38 339.47 46.22 340.05 49.81 340.62 53.39 338.4 52.01 336.18 50.63 334.09 48.96 332 47.3 333.9 43.99 334.6 43.42 335.29 42.85"/><polygon class="cls-136" points="335.57 42.49 338.55 39.35 339.65 46.18 340.23 49.84 340.81 53.51 338.58 52.12 336.35 50.74 334.32 48.92 332.29 47.1 334.05 43.49 334.81 42.99 335.57 42.49"/><polygon class="cls-139" points="335.75 41.64 338.63 38.83 339.72 45.64 340.31 49.38 340.89 53.13 338.65 51.74 336.41 50.35 334.44 48.38 332.48 46.42 334.1 42.51 334.93 42.08 335.75 41.64"/><polygon class="cls-141" points="336.01 41.16 338.79 38.67 339.86 45.48 340.46 49.3 341.06 53.12 338.81 51.72 336.56 50.33 334.65 48.22 332.74 46.1 334.23 41.9 335.12 41.53 336.01 41.16"/><polygon class="cls-181" points="336.27 40.68 338.94 38.52 340.01 45.31 340.62 49.21 341.22 53.11 338.96 51.71 336.7 50.31 334.85 48.05 333 45.78 334.35 41.28 335.31 40.98 336.27 40.68"/><polygon class="cls-64" points="336.53 40.2 339.1 38.36 340.16 45.15 340.77 49.13 341.38 53.1 339.11 51.7 336.84 50.29 335.05 47.88 333.26 45.47 334.48 40.66 335.5 40.43 336.53 40.2"/><polygon class="cls-66" points="336.79 39.72 339.25 38.21 340.31 44.98 340.93 49.04 341.54 53.09 339.26 51.68 336.99 50.27 335.25 47.71 333.52 45.15 334.6 40.05 335.7 39.88 336.79 39.72"/><polygon class="cls-69" points="337.05 39.24 339.41 38.05 340.45 44.82 341.08 48.95 341.71 53.09 339.42 51.67 337.13 50.26 335.45 47.55 333.78 44.84 334.73 39.44 335.89 39.34 337.05 39.24"/><polygon class="cls-143" points="337.31 38.76 339.56 37.9 340.6 44.65 341.24 48.86 341.87 53.08 339.57 51.66 337.27 50.24 335.66 47.38 334.04 44.52 334.85 38.82 336.08 38.79 337.31 38.76"/><polygon class="cls-144" points="337.57 38.28 339.72 37.74 340.75 44.49 341.39 48.78 342.03 53.07 339.72 51.64 337.42 50.22 335.86 47.21 334.3 44.2 334.98 38.21 336.27 38.24 337.57 38.28"/><polygon class="cls-146" points="337.83 37.8 339.88 37.59 340.9 44.32 341.55 48.69 342.19 53.06 339.88 51.63 337.56 50.2 336.06 47.04 334.56 43.89 335.11 37.59 336.47 37.7 337.83 37.8"/><polygon class="cls-182" points="338.09 37.55 340.03 37.66 341.04 44.38 341.7 48.83 342.36 53.28 340.03 51.84 337.7 50.41 336.26 47.11 334.82 43.8 335.23 37.2 336.66 37.38 338.09 37.55"/><polygon class="cls-183" points="338.35 37.3 340.19 37.74 341.19 44.45 341.86 48.98 342.52 53.5 340.18 52.06 337.85 50.62 336.47 47.17 335.08 43.72 335.36 36.82 336.85 37.06 338.35 37.3"/><polygon class="cls-153" points="338.6 37.05 340.34 37.81 341.34 44.51 342.01 49.12 342.68 53.72 340.34 52.28 337.99 50.83 336.67 47.23 335.35 43.63 335.48 36.44 337.04 36.74 338.6 37.05"/><polygon class="cls-156" points="338.86 36.8 340.5 37.89 341.49 44.58 342.17 49.26 342.84 53.95 340.49 52.49 338.13 51.05 336.87 47.29 335.61 43.54 335.61 36.05 337.24 36.42 338.86 36.8"/><polygon class="cls-158" points="339.19 36.54 340.72 37.96 341.7 44.64 342.39 49.41 343.07 54.17 340.71 52.71 338.34 51.26 337.14 47.36 335.94 43.46 335.8 35.67 337.5 36.1 339.19 36.54"/><polygon class="cls-161" points="339.52 36.29 340.94 38.04 341.92 44.71 342.61 49.55 343.3 54.39 340.93 52.93 338.56 51.47 337.41 47.42 336.26 43.37 335.99 35.28 337.75 35.79 339.52 36.29"/><polygon class="cls-163" points="339.84 36.04 341.17 38.11 342.13 44.77 342.83 49.69 343.53 54.61 341.15 53.15 338.77 51.68 337.68 47.48 336.59 43.28 336.19 34.9 338.01 35.47 339.84 36.04"/><polygon class="cls-165" points="340.17 35.79 341.39 38.19 342.35 44.84 343.06 49.83 343.76 54.83 341.37 53.36 338.98 51.89 337.95 47.55 336.92 43.2 336.38 34.51 338.27 35.15 340.17 35.79"/><polygon class="cls-168" points="340.5 35.54 341.61 38.26 342.56 44.9 343.28 49.98 343.99 55.05 341.59 53.58 339.19 52.1 338.22 47.61 337.25 43.11 336.57 34.13 338.54 34.84 340.5 35.54"/><polygon class="cls-170" points="340.82 35.29 341.84 38.34 342.78 44.97 343.5 50.12 344.22 55.27 341.81 53.79 339.4 52.31 338.49 47.67 337.58 43.03 336.77 33.74 338.8 34.52 340.82 35.29"/><polygon class="cls-184" points="341.27 35.36 342.18 38.73 343.12 45.35 343.85 50.58 344.58 55.81 342.16 54.33 339.74 52.84 338.88 48.05 338.03 43.26 337.09 33.68 339.18 34.52 341.27 35.36"/><polygon class="cls-175" points="341.56 35 342.37 38.7 343.29 45.31 344.03 50.62 344.77 55.93 342.34 54.44 339.91 52.95 339.11 48.01 338.32 43.07 337.24 33.19 339.4 34.09 341.56 35"/><polygon class="cls-178" points="341.84 34.65 342.55 38.67 343.46 45.27 344.21 50.66 344.96 56.05 342.52 54.55 340.07 53.05 339.34 47.97 338.61 42.87 337.39 32.69 339.62 33.67 341.84 34.65"/><polygon class="cls-180" points="337.54 32.2 339.83 33.25 342.13 34.29 343.64 45.23 345.14 56.16 342.69 54.66 340.25 53.16 338.89 42.68 337.54 32.2"/><path class="cls-144" d="M431.84,250.38S365.53,290,277.21,356Z" transform="translate(-154.41 -137.42)"/><path class="cls-75" d="M432,250.45S365.67,290.08,277.32,356Z" transform="translate(-154.41 -137.42)"/><path class="cls-146" d="M432.07,250.53s-66.25,39.6-154.63,105.58Z" transform="translate(-154.41 -137.42)"/><path class="cls-147" d="M432.18,250.6S366,290.19,277.55,356.19Z" transform="translate(-154.41 -137.42)"/><path class="cls-182" d="M432.3,250.68s-66.19,39.56-154.64,105.58Z" transform="translate(-154.41 -137.42)"/><path class="cls-149" d="M432.41,250.75s-66.15,39.54-154.63,105.59Z" transform="translate(-154.41 -137.42)"/><path class="cls-150" d="M432.53,250.83S366.4,290.34,277.89,356.41Z" transform="translate(-154.41 -137.42)"/><path class="cls-183" d="M432.64,250.9S366.55,290.4,278,356.49Z" transform="translate(-154.41 -137.42)"/><path class="cls-152" d="M432.75,251s-66.06,39.47-154.63,105.58Z" transform="translate(-154.41 -137.42)"/><path class="cls-153" d="M432.87,251.05s-66,39.45-154.64,105.59Z" transform="translate(-154.41 -137.42)"/><path class="cls-154" d="M433,251.13s-66,39.42-154.63,105.58Z" transform="translate(-154.41 -137.42)"/><path class="cls-155" d="M433.1,251.2s-66,39.41-154.64,105.59Z" transform="translate(-154.41 -137.42)"/><path class="cls-156" d="M433.21,251.28s-65.93,39.38-154.64,105.58Z" transform="translate(-154.41 -137.42)"/><path class="cls-157" d="M433.32,251.35s-65.89,39.36-154.63,105.59Z" transform="translate(-154.41 -137.42)"/><path class="cls-158" d="M433.44,251.43S367.57,290.76,278.8,357Z" transform="translate(-154.41 -137.42)"/><path class="cls-185" d="M433.55,251.5s-65.83,39.32-154.63,105.59Z" transform="translate(-154.41 -137.42)"/><path class="cls-160" d="M433.66,251.58S367.86,290.87,279,357.17Z" transform="translate(-154.41 -137.42)"/><path class="cls-161" d="M433.78,251.65S368,290.92,279.14,357.24Z" transform="translate(-154.41 -137.42)"/><path class="cls-186" d="M433.89,251.73S368.16,291,279.26,357.32Z" transform="translate(-154.41 -137.42)"/><path class="cls-162" d="M434,251.8S368.3,291,279.37,357.39Z" transform="translate(-154.41 -137.42)"/><path class="cls-163" d="M434.12,251.88s-65.67,39.2-154.64,105.59Z" transform="translate(-154.41 -137.42)"/><path class="cls-164" d="M434.23,252S368.59,291.13,279.6,357.54Z" transform="translate(-154.41 -137.42)"/><path class="cls-165" d="M434.35,252s-65.61,39.15-154.64,105.59Z" transform="translate(-154.41 -137.42)"/><path class="cls-166" d="M434.46,252.1s-65.57,39.13-154.63,105.59Z" transform="translate(-154.41 -137.42)"/><path class="cls-167" d="M434.58,252.18S369,291.29,279.94,357.77Z" transform="translate(-154.41 -137.42)"/><path class="cls-168" d="M434.69,252.25s-65.51,39.09-154.64,105.59Z" transform="translate(-154.41 -137.42)"/><path class="cls-169" d="M434.8,252.33s-65.48,39.06-154.63,105.59Z" transform="translate(-154.41 -137.42)"/><path class="cls-170" d="M434.92,252.4s-65.45,39-154.64,105.59Z" transform="translate(-154.41 -137.42)"/><path class="cls-171" d="M435,252.48s-65.41,39-154.63,105.59Z" transform="translate(-154.41 -137.42)"/><path class="cls-172" d="M435.14,252.55s-65.38,39-154.63,105.59Z" transform="translate(-154.41 -137.42)"/><path class="cls-173" d="M435.26,252.63s-65.35,39-154.64,105.59Z" transform="translate(-154.41 -137.42)"/><path class="cls-174" d="M435.37,252.7s-65.32,38.95-154.63,105.59Z" transform="translate(-154.41 -137.42)"/><path class="cls-175" d="M435.49,252.78S370.2,291.71,280.85,358.37Z" transform="translate(-154.41 -137.42)"/><path class="cls-176" d="M435.6,252.85S370.35,291.76,281,358.44Z" transform="translate(-154.41 -137.42)"/><path class="cls-177" d="M435.71,252.93s-65.22,38.88-154.63,105.59Z" transform="translate(-154.41 -137.42)"/><path class="cls-178" d="M435.83,253s-65.19,38.86-154.64,105.59Z" transform="translate(-154.41 -137.42)"/><path class="cls-179" d="M435.94,253.08s-65.16,38.84-154.63,105.59Z" transform="translate(-154.41 -137.42)"/><path class="cls-180" d="M436.06,253.15S370.93,292,281.42,358.74Z" transform="translate(-154.41 -137.42)"/><ellipse class="cls-144" cx="233.82" cy="122.27" rx="8.12" ry="4.8"/><ellipse class="cls-182" cx="233.82" cy="122.11" rx="8.12" ry="4.8"/><ellipse class="cls-187" cx="233.82" cy="121.95" rx="8.12" ry="4.8"/><ellipse class="cls-188" cx="233.82" cy="121.79" rx="8.12" ry="4.8"/><ellipse class="cls-189" cx="233.82" cy="121.64" rx="8.12" ry="4.8"/><ellipse class="cls-190" cx="233.82" cy="121.48" rx="8.12" ry="4.8"/><ellipse class="cls-191" cx="233.82" cy="121.32" rx="8.12" ry="4.8"/><ellipse class="cls-192" cx="233.82" cy="121.16" rx="8.12" ry="4.8"/><ellipse class="cls-193" cx="233.82" cy="121.01" rx="8.12" ry="4.8"/><ellipse class="cls-194" cx="233.82" cy="120.85" rx="8.12" ry="4.8"/><ellipse class="cls-195" cx="233.82" cy="120.69" rx="8.12" ry="4.8"/><ellipse class="cls-196" cx="233.82" cy="120.53" rx="8.12" ry="4.8"/><ellipse class="cls-197" cx="233.82" cy="120.38" rx="8.12" ry="4.8"/><ellipse class="cls-198" cx="233.82" cy="120.22" rx="8.12" ry="4.8"/><ellipse class="cls-199" cx="233.82" cy="120.06" rx="8.12" ry="4.8"/><ellipse class="cls-200" cx="233.82" cy="119.9" rx="8.12" ry="4.8"/><ellipse class="cls-201" cx="233.82" cy="119.75" rx="8.12" ry="4.8"/><ellipse class="cls-202" cx="233.82" cy="119.59" rx="8.12" ry="4.8"/><ellipse class="cls-203" cx="233.82" cy="119.43" rx="8.12" ry="4.8"/><ellipse class="cls-144" cx="189.55" cy="149.74" rx="8.12" ry="4.8"/><ellipse class="cls-182" cx="189.55" cy="149.59" rx="8.12" ry="4.8"/><ellipse class="cls-187" cx="189.55" cy="149.43" rx="8.12" ry="4.8"/><ellipse class="cls-188" cx="189.55" cy="149.27" rx="8.12" ry="4.8"/><ellipse class="cls-189" cx="189.55" cy="149.11" rx="8.12" ry="4.8"/><ellipse class="cls-190" cx="189.55" cy="148.96" rx="8.12" ry="4.8"/><ellipse class="cls-191" cx="189.55" cy="148.8" rx="8.12" ry="4.8"/><ellipse class="cls-192" cx="189.55" cy="148.64" rx="8.12" ry="4.8"/><ellipse class="cls-193" cx="189.55" cy="148.48" rx="8.12" ry="4.8"/><ellipse class="cls-194" cx="189.55" cy="148.33" rx="8.12" ry="4.8"/><ellipse class="cls-195" cx="189.55" cy="148.17" rx="8.12" ry="4.8"/><ellipse class="cls-196" cx="189.55" cy="148.01" rx="8.12" ry="4.8"/><ellipse class="cls-197" cx="189.55" cy="147.85" rx="8.12" ry="4.8"/><ellipse class="cls-198" cx="189.55" cy="147.7" rx="8.12" ry="4.8"/><ellipse class="cls-199" cx="189.55" cy="147.54" rx="8.12" ry="4.8"/><ellipse class="cls-200" cx="189.55" cy="147.38" rx="8.12" ry="4.8"/><ellipse class="cls-201" cx="189.55" cy="147.22" rx="8.12" ry="4.8"/><ellipse class="cls-202" cx="189.55" cy="147.07" rx="8.12" ry="4.8"/><ellipse class="cls-203" cx="189.55" cy="146.91" rx="8.12" ry="4.8"/><ellipse class="cls-144" cx="141.06" cy="183.43" rx="8.12" ry="4.8"/><ellipse class="cls-182" cx="141.06" cy="183.27" rx="8.12" ry="4.8"/><ellipse class="cls-187" cx="141.06" cy="183.11" rx="8.12" ry="4.8"/><ellipse class="cls-188" cx="141.06" cy="182.95" rx="8.12" ry="4.8"/><ellipse class="cls-189" cx="141.06" cy="182.8" rx="8.12" ry="4.8"/><ellipse class="cls-190" cx="141.06" cy="182.64" rx="8.12" ry="4.8"/><ellipse class="cls-191" cx="141.06" cy="182.48" rx="8.12" ry="4.8"/><ellipse class="cls-192" cx="141.06" cy="182.32" rx="8.12" ry="4.8"/><ellipse class="cls-193" cx="141.06" cy="182.17" rx="8.12" ry="4.8"/><ellipse class="cls-194" cx="141.06" cy="182.01" rx="8.12" ry="4.8"/><ellipse class="cls-195" cx="141.06" cy="181.85" rx="8.12" ry="4.8"/><ellipse class="cls-196" cx="141.06" cy="181.69" rx="8.12" ry="4.8"/><ellipse class="cls-197" cx="141.06" cy="181.54" rx="8.12" ry="4.8"/><ellipse class="cls-198" cx="141.06" cy="181.38" rx="8.12" ry="4.8"/><ellipse class="cls-199" cx="141.06" cy="181.22" rx="8.12" ry="4.8"/><ellipse class="cls-200" cx="141.06" cy="181.06" rx="8.12" ry="4.8"/><ellipse class="cls-201" cx="141.06" cy="180.91" rx="8.12" ry="4.8"/><ellipse class="cls-202" cx="141.06" cy="180.75" rx="8.12" ry="4.8"/><ellipse class="cls-203" cx="141.06" cy="180.59" rx="8.12" ry="4.8"/><path class="cls-152" d="M424.72,300.15a4.05,4.05,0,0,0-4.12,0L401.41,311.3a1.88,1.88,0,0,0,0,3.24l63.2,39a4.79,4.79,0,0,0,4.93.07l19.63-11.42a2,2,0,0,0,0-3.36Z" transform="translate(-154.41 -137.42)"/><path class="cls-153" d="M424.72,300.09a4.05,4.05,0,0,0-4.12,0l-19.19,11.18a1.88,1.88,0,0,0,0,3.24l63.2,39a4.79,4.79,0,0,0,4.93.07l19.63-11.42a2,2,0,0,0,0-3.36Z" transform="translate(-154.41 -137.42)"/><path class="cls-204" d="M424.72,300a4.05,4.05,0,0,0-4.12,0l-19.19,11.18a1.88,1.88,0,0,0,0,3.24l63.2,39a4.79,4.79,0,0,0,4.93.07l19.63-11.42a2,2,0,0,0,0-3.36Z" transform="translate(-154.41 -137.42)"/><path class="cls-155" d="M424.72,300a4,4,0,0,0-4.12,0l-19.19,11.18a1.87,1.87,0,0,0,0,3.23l63.2,39a4.79,4.79,0,0,0,4.93.06L489.16,342a2,2,0,0,0,0-3.36Z" transform="translate(-154.41 -137.42)"/><path class="cls-156" d="M424.72,299.9a4,4,0,0,0-4.12,0l-19.19,11.17a1.88,1.88,0,0,0,0,3.24l63.2,39a4.79,4.79,0,0,0,4.93.06l19.63-11.42a2,2,0,0,0,0-3.35Z" transform="translate(-154.41 -137.42)"/><path class="cls-205" d="M424.72,299.84a4,4,0,0,0-4.12,0L401.41,311a1.88,1.88,0,0,0,0,3.24l63.2,39a4.79,4.79,0,0,0,4.93.06l19.63-11.42a2,2,0,0,0,0-3.35Z" transform="translate(-154.41 -137.42)"/><path class="cls-206" d="M424.72,299.78a4.05,4.05,0,0,0-4.12,0l-19.19,11.18a1.88,1.88,0,0,0,0,3.24l63.2,39a4.79,4.79,0,0,0,4.93.06l19.63-11.42a2,2,0,0,0,0-3.36Z" transform="translate(-154.41 -137.42)"/><path class="cls-185" d="M424.72,299.72a4.05,4.05,0,0,0-4.12,0l-19.19,11.18a1.88,1.88,0,0,0,0,3.24l63.2,39a4.79,4.79,0,0,0,4.93.07l19.63-11.42a2,2,0,0,0,0-3.36Z" transform="translate(-154.41 -137.42)"/><path class="cls-207" d="M424.72,299.66a4.05,4.05,0,0,0-4.12,0l-19.19,11.18a1.88,1.88,0,0,0,0,3.24l63.2,39a4.79,4.79,0,0,0,4.93.07l19.63-11.42a2,2,0,0,0,0-3.36Z" transform="translate(-154.41 -137.42)"/><path class="cls-208" d="M424.72,299.6a4.05,4.05,0,0,0-4.12,0l-19.19,11.18a1.88,1.88,0,0,0,0,3.24l63.2,39a4.79,4.79,0,0,0,4.93.07l19.63-11.42a2,2,0,0,0,0-3.36Z" transform="translate(-154.41 -137.42)"/><path class="cls-93" d="M424.72,299.53a4,4,0,0,0-4.12,0l-19.19,11.17a1.88,1.88,0,0,0,0,3.24l63.2,39a4.79,4.79,0,0,0,4.93.06l19.63-11.41a2,2,0,0,0,0-3.36Z" transform="translate(-154.41 -137.42)"/><path class="cls-209" d="M424.72,299.47a4,4,0,0,0-4.12,0l-19.19,11.17a1.88,1.88,0,0,0,0,3.24l63.2,39a4.79,4.79,0,0,0,4.93.06l19.63-11.42a2,2,0,0,0,0-3.35Z" transform="translate(-154.41 -137.42)"/><path class="cls-210" d="M424.72,299.41a4,4,0,0,0-4.12,0l-19.19,11.17a1.88,1.88,0,0,0,0,3.24l63.2,39a4.79,4.79,0,0,0,4.93.06l19.63-11.42a2,2,0,0,0,0-3.36Z" transform="translate(-154.41 -137.42)"/><path class="cls-211" d="M424.72,299.35a4.05,4.05,0,0,0-4.12,0L401.41,310.5a1.88,1.88,0,0,0,0,3.24l63.2,39a4.82,4.82,0,0,0,4.93.06l19.63-11.42a2,2,0,0,0,0-3.36Z" transform="translate(-154.41 -137.42)"/><path class="cls-97" d="M424.72,299.29a4.05,4.05,0,0,0-4.12,0l-19.19,11.18a1.88,1.88,0,0,0,0,3.24l63.2,39a4.79,4.79,0,0,0,4.93.07l19.63-11.42a2,2,0,0,0,0-3.36Z" transform="translate(-154.41 -137.42)"/><path class="cls-212" d="M424.72,299.23a4.05,4.05,0,0,0-4.12,0l-19.19,11.18a1.88,1.88,0,0,0,0,3.24l63.2,39a4.79,4.79,0,0,0,4.93.07l19.63-11.42a2,2,0,0,0,0-3.36Z" transform="translate(-154.41 -137.42)"/><path class="cls-213" d="M424.72,299.17a4,4,0,0,0-4.12,0l-19.19,11.18a1.88,1.88,0,0,0,0,3.24l63.2,39a4.79,4.79,0,0,0,4.93.07l19.63-11.42a2,2,0,0,0,0-3.36Z" transform="translate(-154.41 -137.42)"/><path class="cls-100" d="M424.72,299.1a4,4,0,0,0-4.12,0l-19.19,11.17a1.88,1.88,0,0,0,0,3.24l63.2,39a4.79,4.79,0,0,0,4.93.06l19.63-11.42a2,2,0,0,0,0-3.35Z" transform="translate(-154.41 -137.42)"/><path class="cls-101" d="M424.72,299a4,4,0,0,0-4.12,0l-19.19,11.17a1.88,1.88,0,0,0,0,3.24l63.2,39a4.79,4.79,0,0,0,4.93.06l19.63-11.42a2,2,0,0,0,0-3.35Z" transform="translate(-154.41 -137.42)"/><path class="cls-214" d="M424.72,299a4.05,4.05,0,0,0-4.12,0l-19.19,11.18a1.88,1.88,0,0,0,0,3.24l63.2,39a4.79,4.79,0,0,0,4.93.06L489.16,341a2,2,0,0,0,0-3.36Z" transform="translate(-154.41 -137.42)"/><path class="cls-215" d="M424.72,298.92a4.05,4.05,0,0,0-4.12,0l-19.19,11.18a1.88,1.88,0,0,0,0,3.24l63.2,39a4.79,4.79,0,0,0,4.93.07L489.16,341a2,2,0,0,0,0-3.36Z" transform="translate(-154.41 -137.42)"/><path class="cls-215" d="M424.72,298.86a4.05,4.05,0,0,0-4.12,0L401.41,310a1.88,1.88,0,0,0,0,3.24l63.2,39a4.79,4.79,0,0,0,4.93.07l19.63-11.42a2,2,0,0,0,0-3.36Z" transform="translate(-154.41 -137.42)"/><path class="cls-104" d="M424.72,298.8a4.05,4.05,0,0,0-4.12,0L401.41,310a1.88,1.88,0,0,0,0,3.24l63.2,39a4.79,4.79,0,0,0,4.93.07l19.63-11.42a2,2,0,0,0,0-3.36Z" transform="translate(-154.41 -137.42)"/><path class="cls-216" d="M424.72,298.74a4,4,0,0,0-4.12,0l-19.19,11.17a1.88,1.88,0,0,0,0,3.24l63.2,39a4.79,4.79,0,0,0,4.93.06l19.63-11.41a2,2,0,0,0,0-3.36Z" transform="translate(-154.41 -137.42)"/><path class="cls-217" d="M424.72,298.67a4,4,0,0,0-4.12,0l-19.19,11.17a1.88,1.88,0,0,0,0,3.24l63.2,39a4.79,4.79,0,0,0,4.93.06l19.63-11.42a2,2,0,0,0,0-3.35Z" transform="translate(-154.41 -137.42)"/><path class="cls-107" d="M424.72,298.61a4,4,0,0,0-4.12,0l-19.19,11.17a1.88,1.88,0,0,0,0,3.24l63.2,39a4.79,4.79,0,0,0,4.93.06l19.63-11.42a2,2,0,0,0,0-3.35Z" transform="translate(-154.41 -137.42)"/><path class="cls-108" d="M424.72,298.55a4.05,4.05,0,0,0-4.12,0L401.41,309.7a1.88,1.88,0,0,0,0,3.24l63.2,39a4.79,4.79,0,0,0,4.93.06l19.63-11.42a2,2,0,0,0,0-3.36Z" transform="translate(-154.41 -137.42)"/><path class="cls-218" d="M424.72,298.49a4.05,4.05,0,0,0-4.12,0l-19.19,11.18a1.88,1.88,0,0,0,0,3.24l63.2,39a4.79,4.79,0,0,0,4.93.07l19.63-11.42a2,2,0,0,0,0-3.36Z" transform="translate(-154.41 -137.42)"/><path class="cls-219" d="M424.72,298.43a4.05,4.05,0,0,0-4.12,0l-19.19,11.18a1.88,1.88,0,0,0,0,3.24l63.2,39a4.79,4.79,0,0,0,4.93.07l19.63-11.42a2,2,0,0,0,0-3.36Z" transform="translate(-154.41 -137.42)"/><path class="cls-111" d="M424.72,298.37a4.05,4.05,0,0,0-4.12,0l-19.19,11.18a1.88,1.88,0,0,0,0,3.24l63.2,39a4.79,4.79,0,0,0,4.93.07l19.63-11.42a2,2,0,0,0,0-3.36Z" transform="translate(-154.41 -137.42)"/><path class="cls-112" d="M424.72,298.3a4,4,0,0,0-4.12,0l-19.19,11.17a1.88,1.88,0,0,0,0,3.24l63.2,39a4.79,4.79,0,0,0,4.93.06l19.63-11.41a2,2,0,0,0,0-3.36Z" transform="translate(-154.41 -137.42)"/><path class="cls-220" d="M424.72,298.24a4,4,0,0,0-4.12,0l-19.19,11.17a1.88,1.88,0,0,0,0,3.24l63.2,39a4.79,4.79,0,0,0,4.93.06l19.63-11.42a2,2,0,0,0,0-3.35Z" transform="translate(-154.41 -137.42)"/><path class="cls-221" d="M424.72,298.18a4,4,0,0,0-4.12,0l-19.19,11.17a1.88,1.88,0,0,0,0,3.24l63.2,39a4.79,4.79,0,0,0,4.93.06l19.63-11.42a2,2,0,0,0,0-3.36Z" transform="translate(-154.41 -137.42)"/><path class="cls-115" d="M424.72,298.12a4.05,4.05,0,0,0-4.12,0l-19.19,11.18a1.88,1.88,0,0,0,0,3.24l63.2,39a4.82,4.82,0,0,0,4.93.06l19.63-11.42a2,2,0,0,0,0-3.36Z" transform="translate(-154.41 -137.42)"/><path class="cls-116" d="M424.72,298.06a4.05,4.05,0,0,0-4.12,0l-19.19,11.18a1.88,1.88,0,0,0,0,3.24l63.2,39a4.79,4.79,0,0,0,4.93.07l19.63-11.42a2,2,0,0,0,0-3.36Z" transform="translate(-154.41 -137.42)"/><path class="cls-222" d="M424.72,298a4.05,4.05,0,0,0-4.12,0l-19.19,11.18a1.88,1.88,0,0,0,0,3.24l63.2,39a4.79,4.79,0,0,0,4.93.07L489.16,340a2,2,0,0,0,0-3.36Z" transform="translate(-154.41 -137.42)"/><path class="cls-118" d="M424.72,297.94a4,4,0,0,0-4.12,0l-19.19,11.18a1.88,1.88,0,0,0,0,3.24l63.2,39a4.79,4.79,0,0,0,4.93.07L489.16,340a2,2,0,0,0,0-3.36Z" transform="translate(-154.41 -137.42)"/><path class="cls-119" d="M424.72,297.87a4,4,0,0,0-4.12,0L401.41,309a1.88,1.88,0,0,0,0,3.24l63.2,39a4.79,4.79,0,0,0,4.93.06l19.63-11.42a2,2,0,0,0,0-3.35Z" transform="translate(-154.41 -137.42)"/><path class="cls-120" d="M424.72,297.81a4,4,0,0,0-4.12,0L401.41,309a1.88,1.88,0,0,0,0,3.24l63.2,39a4.79,4.79,0,0,0,4.93.06l19.63-11.42a2,2,0,0,0,0-3.35Z" transform="translate(-154.41 -137.42)"/><path class="cls-223" d="M424.72,297.75a4.05,4.05,0,0,0-4.12,0L401.41,308.9a1.88,1.88,0,0,0,0,3.24l63.2,39a4.79,4.79,0,0,0,4.93.06l19.63-11.42a2,2,0,0,0,0-3.36Z" transform="translate(-154.41 -137.42)"/><path class="cls-122" d="M424.72,297.69a4.05,4.05,0,0,0-4.12,0l-19.19,11.18a1.88,1.88,0,0,0,0,3.24l63.2,39a4.79,4.79,0,0,0,4.93.07l19.63-11.42a2,2,0,0,0,0-3.36Z" transform="translate(-154.41 -137.42)"/><path class="cls-123" d="M424.72,297.63a4.05,4.05,0,0,0-4.12,0l-19.19,11.18a1.88,1.88,0,0,0,0,3.24l63.2,39a4.79,4.79,0,0,0,4.93.07l19.63-11.42a2,2,0,0,0,0-3.36Z" transform="translate(-154.41 -137.42)"/><g class="cls-224"><polygon class="cls-203" points="250.65 77.23 291.25 24 292.02 23.66 292.84 23.31 295.1 23.08 298.69 23.78 250.65 77.23"/></g><path class="cls-203" d="M445.3,235.37" transform="translate(-154.41 -137.42)"/><g class="cls-224"><polygon class="cls-203" points="293.19 95.05 372.72 68.17 383.92 64.47 385.71 64.26 387.52 64.52 389.44 65.35 391.07 66.7 293.19 95.05"/></g><path class="cls-193" d="M392.21,254.28a15.17,15.17,0,0,1-2.86.89c-.88.21-1.73.22-2.51.45a10.37,10.37,0,0,0-2.23.29,5.14,5.14,0,0,0-2.36,1l-.19-.06c.61-1.94,2.68-2.89,4.53-3.11a17.93,17.93,0,0,1,5.66.37Z" transform="translate(-154.41 -137.42)"/><path class="cls-193" d="M347.78,281.76a15.94,15.94,0,0,1-2.86.89c-.88.21-1.73.22-2.51.45a10.28,10.28,0,0,0-2.23.29,5.22,5.22,0,0,0-2.36,1l-.19-.06c.61-1.93,2.68-2.88,4.53-3.1a17.64,17.64,0,0,1,5.66.37Z" transform="translate(-154.41 -137.42)"/><path class="cls-193" d="M299.37,315.44a15.09,15.09,0,0,1-2.85.89c-.89.21-1.74.22-2.52.45a10.19,10.19,0,0,0-2.22.29,5.25,5.25,0,0,0-2.37,1l-.18-.05c.6-1.94,2.67-2.89,4.52-3.11a18,18,0,0,1,5.67.37Z" transform="translate(-154.41 -137.42)"/><ellipse class="cls-193" cx="235.5" cy="120.27" rx="1.08" ry="0.63"/><ellipse class="cls-193" cx="232.5" cy="118.53" rx="1.08" ry="0.63"/><path class="cls-225" d="M393.77,255.32a2.83,2.83,0,0,1,0,2.83,4.4,4.4,0,0,1-2.41,1.72,12.84,12.84,0,0,1-5.66-.18c1.87-.15,3.74,0,5.46-.56A3.08,3.08,0,0,0,393.77,255.32Z" transform="translate(-154.41 -137.42)"/><ellipse class="cls-193" cx="191.14" cy="147.59" rx="1.08" ry="0.63"/><ellipse class="cls-193" cx="188.14" cy="145.85" rx="1.08" ry="0.63"/><path class="cls-225" d="M349.41,282.65a2.82,2.82,0,0,1,0,2.82,4.35,4.35,0,0,1-2.41,1.72,12.74,12.74,0,0,1-5.67-.18c1.88-.15,3.75,0,5.47-.56A3.07,3.07,0,0,0,349.41,282.65Z" transform="translate(-154.41 -137.42)"/><ellipse class="cls-193" cx="142.67" cy="181.43" rx="1.08" ry="0.63"/><ellipse class="cls-193" cx="139.67" cy="179.69" rx="1.08" ry="0.63"/><path class="cls-225" d="M300.94,316.48a2.83,2.83,0,0,1,0,2.83A4.4,4.4,0,0,1,298.5,321a12.89,12.89,0,0,1-5.67-.18c1.88-.15,3.75,0,5.47-.56A3.08,3.08,0,0,0,300.94,316.48Z" transform="translate(-154.41 -137.42)"/></svg>