<svg id="Layer_1" data-name="Layer 1" xmlns="http://www.w3.org/2000/svg" viewBox="0 0 520.61 368.23"><defs><style>.cls-1{fill:#dd6136;}.cls-2{fill:#dd6237;}.cls-3{fill:#de6338;}.cls-4{fill:#de6439;}.cls-5{fill:#de653a;}.cls-6{fill:#df663b;}.cls-7{fill:#df673c;}.cls-8{fill:#df683d;}.cls-9{fill:#df693e;}.cls-10{fill:#e06a3f;}.cls-11{fill:#e06b40;}.cls-12{fill:#e06c41;}.cls-13{fill:#e16c42;}.cls-14{fill:#e16d43;}.cls-15{fill:#e16e44;}.cls-16{fill:#e26f45;}.cls-17{fill:#e27046;}.cls-18{fill:#e27147;}.cls-19{fill:#e37248;}.cls-20{fill:#e37349;}.cls-21{fill:#e3744a;}.cls-22{fill:#e3754b;}.cls-23{fill:#e4764c;}.cls-24{fill:#e4774d;}.cls-25{fill:#e4784e;}.cls-26{fill:#e5794f;}.cls-27{fill:#e57a50;}.cls-28{fill:#e57b51;}.cls-29{fill:#e67c52;}.cls-30{fill:#e67d53;}.cls-31{fill:#e67e54;}.cls-32{fill:#e67f55;}.cls-33{fill:#e78056;}.cls-34{fill:#e78157;}.cls-35{fill:#e78158;}.cls-36{fill:#e88259;}.cls-37{fill:#e8835a;}.cls-38{fill:#e8845b;}.cls-39{fill:#e9855c;}.cls-40{fill:#e9865d;}.cls-41{fill:#e9875e;}.cls-42{fill:#ea885f;}.cls-43{fill:#ea8960;}.cls-44{fill:#ea8a61;}.cls-45{fill:#ea8b62;}.cls-46{fill:#eb8c63;}.cls-47{fill:#eb8d64;}.cls-48{fill:#eb8e65;}.cls-49{fill:#ec8f66;}.cls-50{fill:#ec9067;}.cls-51{fill:#ec9168;}.cls-52{fill:#ed9269;}.cls-53{fill:#ed936a;}.cls-54{fill:#ed946b;}.cls-55{fill:#ee956c;}.cls-56{fill:#ee966d;}.cls-57{fill:#ee976e;}.cls-58{fill:#ef986f;}.cls-59{fill:#ef9970;}.cls-60{fill:#ef9a71;}.cls-61{fill:#f09b72;}.cls-62{fill:#f09c73;}.cls-63{fill:#f09d74;}.cls-64{fill:#f19e75;}.cls-65{fill:#f19f76;}.cls-66{fill:#f1a077;}.cls-67{fill:#f2a178;}.cls-68{fill:#f2a279;}.cls-69{fill:#f2a37a;}.cls-70{fill:#f2a47b;}.cls-71{fill:#f3a57c;}.cls-72{fill:#f3a67d;}.cls-73{fill:#f3a77e;}.cls-74{fill:#f4a87f;}.cls-75{fill:#f4a980;}.cls-76{fill:#f4aa81;}.cls-77{fill:#f5ab82;}.cls-78{fill:#f5ab83;}.cls-79{fill:#f5ac84;}.cls-80{fill:#f6ad85;}.cls-81{fill:#f6ae86;}.cls-82{fill:#f6af87;}.cls-83{fill:#f6b088;}.cls-84{fill:#f7b189;}.cls-85{fill:#f7b28a;}.cls-86{fill:#f7b38b;}.cls-87{fill:#f8b48c;}.cls-88{fill:#f8b58d;}.cls-89{fill:#f8b68e;}.cls-90{fill:#f9b78f;}.cls-91{fill:#f9b890;}.cls-92{fill:#f9b991;}.cls-93{fill:#f9ba92;}.cls-94{fill:#fabb93;}.cls-95{fill:#fabc94;}.cls-96{fill:#fabd95;}.cls-97{fill:#fbbe96;}.cls-98{fill:#fbbf97;}.cls-99{fill:#fbc098;}.cls-100{fill:#fcc099;}.cls-101{fill:#fcc19a;}.cls-102{fill:#fcc29b;}.cls-103{fill:#fdc39c;}.cls-104{fill:#fdc49d;}.cls-105{fill:#fdc59e;}.cls-106{fill:#fdc69f;}.cls-107{fill:#fec7a0;}.cls-108{fill:#fec8a1;}.cls-109{fill:#fec9a2;}.cls-110{fill:#ffcaa3;}.cls-111{fill:#ffcba4;}.cls-112{fill:#ffcca5;}.cls-113{fill:#ffcca6;}.cls-114{fill:#ffcda7;}.cls-115{fill:#ffcea8;}.cls-116{fill:#ffcea9;}.cls-117{fill:#ffcfaa;}.cls-118{fill:#ffd0ab;}.cls-119{fill:#ffd0ac;}.cls-120{fill:#ffd1ad;}.cls-121{fill:#ffd2ae;}.cls-122{fill:#ffd3af;}.cls-123{fill:#ffd3b0;}.cls-124{fill:#ffd4b1;}.cls-125{fill:#ffd5b2;}.cls-126{fill:#ffd5b3;}.cls-127{fill:#ffd6b4;}.cls-128{fill:#ffd7b5;}.cls-129{fill:#ffd7b6;}.cls-130{fill:#ffd8b7;}.cls-131{fill:#ffd9b8;}.cls-132{fill:#ffd9b9;}.cls-133{fill:#ffdaba;}.cls-134{fill:#ffdbbb;}.cls-135{fill:#ffdbbc;}.cls-136{fill:#ffdcbd;}.cls-137{fill:#ffddbe;}.cls-138{fill:#ffddbf;}.cls-139{fill:#ffdebf;}.cls-140{fill:#ffdfc0;}.cls-141{fill:#ffe0c1;}.cls-142{fill:#ffe0c2;}.cls-143{fill:#ffe1c3;}.cls-144{fill:#ffe2c4;}.cls-145{fill:#ffe2c5;}.cls-146{fill:#ffe3c6;}.cls-147{fill:#ffe4c7;}.cls-148{fill:#ffe4c8;}.cls-149{fill:#ffe5c9;}.cls-150{fill:#ffe6ca;}.cls-151{fill:#ffe6cb;}.cls-152{fill:#ffe7cc;}.cls-153{fill:#ffe8cd;}.cls-154{fill:#ffe8ce;}.cls-155{fill:#ffe9cf;}.cls-156{fill:#ffead0;}.cls-157{fill:#ffebd1;}.cls-158{fill:#ffebd2;}.cls-159{fill:#ffecd3;}.cls-160{fill:#ffedd4;}.cls-161{fill:#ffedd5;}.cls-162{fill:#ffeed6;}.cls-163{fill:#ffefd7;}.cls-164{fill:#ffefd8;}.cls-165{fill:#fff0d9;}.cls-166{fill:#f6b286;}.cls-167{fill:#f7b68c;}.cls-168{fill:#f7ba92;}.cls-169{fill:#f8be97;}.cls-170{fill:#f8c29d;}.cls-171{fill:#f9c5a3;}.cls-172{fill:#f9c9a9;}.cls-173{fill:#facdae;}.cls-174{fill:#fad1b4;}.cls-175{fill:#fbd5ba;}.cls-176{fill:#fbd9c0;}.cls-177{fill:#fbddc6;}.cls-178{fill:#fce1cb;}.cls-179{fill:#fce5d1;}.cls-180{fill:#fde8d7;}.cls-181{fill:#fdecdd;}.cls-182{fill:#fef0e2;}.cls-183{fill:#fef4e8;}.cls-184{fill:#fff8ee;}.cls-185{opacity:0.21;}.cls-186{opacity:0.43;}.cls-187{opacity:0.46;}.cls-188{fill:#ffe1e1;}.cls-189{fill:#ed9564;}.cls-190{opacity:0.66;}.cls-191{fill:#fd7c7e;}.cls-192{fill:#fff;}</style></defs><title>옷_2</title><path class="cls-1" d="M436.75,179.6l222.7,135.73a22.14,22.14,0,0,1-.61,38.68L437.61,481.07a59.48,59.48,0,0,1-57.85-.87L157.83,340.45a14.69,14.69,0,0,1,.43-25.7l231.17-136A48.75,48.75,0,0,1,436.75,179.6Z" transform="translate(-150.47 -119.91)"/><path class="cls-2" d="M436.76,179.36,659.45,315.09a22.15,22.15,0,0,1-.61,38.69L437.62,480.83a59.5,59.5,0,0,1-57.86-.87L157.83,340.21a14.7,14.7,0,0,1,.43-25.7l231.17-136A48.8,48.8,0,0,1,436.76,179.36Z" transform="translate(-150.47 -119.91)"/><path class="cls-3" d="M436.76,179.12l222.7,135.74a22.14,22.14,0,0,1-.61,38.68L437.62,480.6a59.51,59.51,0,0,1-57.85-.88L157.84,340a14.69,14.69,0,0,1,.43-25.7l231.17-136A48.75,48.75,0,0,1,436.76,179.12Z" transform="translate(-150.47 -119.91)"/><path class="cls-4" d="M436.77,178.88,659.46,314.62a22.14,22.14,0,0,1-.61,38.68L437.63,480.36a59.53,59.53,0,0,1-57.86-.88L157.84,339.73a14.7,14.7,0,0,1,.43-25.7l231.17-136A48.77,48.77,0,0,1,436.77,178.88Z" transform="translate(-150.47 -119.91)"/><path class="cls-5" d="M436.77,178.64l222.7,135.74a22.14,22.14,0,0,1-.61,38.68L437.63,480.12a59.53,59.53,0,0,1-57.85-.87L157.85,339.49a14.69,14.69,0,0,1,.43-25.7l231.17-136A48.75,48.75,0,0,1,436.77,178.64Z" transform="translate(-150.47 -119.91)"/><path class="cls-6" d="M436.78,178.41,659.47,314.14a22.14,22.14,0,0,1-.61,38.68L437.64,479.88a59.53,59.53,0,0,1-57.85-.87L157.85,339.25a14.69,14.69,0,0,1,.43-25.69l231.17-136A48.74,48.74,0,0,1,436.78,178.41Z" transform="translate(-150.47 -119.91)"/><path class="cls-7" d="M436.78,178.17,659.48,313.9a22.14,22.14,0,0,1-.61,38.68L437.65,479.64a59.55,59.55,0,0,1-57.86-.87L157.86,339a14.69,14.69,0,0,1,.43-25.7l231.17-136A48.75,48.75,0,0,1,436.78,178.17Z" transform="translate(-150.47 -119.91)"/><path class="cls-8" d="M436.79,177.93,659.48,313.66a22.14,22.14,0,0,1-.61,38.68L437.65,479.4a59.48,59.48,0,0,1-57.85-.87L157.87,338.78a14.7,14.7,0,0,1,.42-25.7l231.17-136A48.8,48.8,0,0,1,436.79,177.93Z" transform="translate(-150.47 -119.91)"/><path class="cls-9" d="M436.79,177.69l222.7,135.73a22.15,22.15,0,0,1-.61,38.69L437.66,479.17a59.53,59.53,0,0,1-57.86-.88L157.87,338.54a14.69,14.69,0,0,1,.43-25.7l231.17-136A48.78,48.78,0,0,1,436.79,177.69Z" transform="translate(-150.47 -119.91)"/><path class="cls-10" d="M436.8,177.45,659.49,313.19a22.14,22.14,0,0,1-.61,38.68L437.66,478.93a59.51,59.51,0,0,1-57.85-.88L157.88,338.3a14.7,14.7,0,0,1,.42-25.7l231.17-136A48.77,48.77,0,0,1,436.8,177.45Z" transform="translate(-150.47 -119.91)"/><path class="cls-11" d="M436.8,177.21,659.5,313a22.14,22.14,0,0,1-.61,38.68L437.67,478.69a59.53,59.53,0,0,1-57.86-.88L157.88,338.06a14.69,14.69,0,0,1,.43-25.7l231.17-136A48.75,48.75,0,0,1,436.8,177.21Z" transform="translate(-150.47 -119.91)"/><path class="cls-12" d="M436.81,177,659.5,312.71a22.14,22.14,0,0,1-.61,38.68L437.67,478.45a59.53,59.53,0,0,1-57.85-.87L157.89,337.82a14.69,14.69,0,0,1,.42-25.69l231.17-136A48.77,48.77,0,0,1,436.81,177Z" transform="translate(-150.47 -119.91)"/><path class="cls-13" d="M436.81,176.74l222.7,135.73a22.14,22.14,0,0,1-.61,38.68L437.68,478.21a59.55,59.55,0,0,1-57.86-.87L157.89,337.58a14.68,14.68,0,0,1,.43-25.69l231.17-136A48.72,48.72,0,0,1,436.81,176.74Z" transform="translate(-150.47 -119.91)"/><path class="cls-14" d="M436.82,176.5,659.51,312.23a22.14,22.14,0,0,1-.61,38.68L437.68,478a59.48,59.48,0,0,1-57.85-.87L157.9,337.35a14.7,14.7,0,0,1,.42-25.7l231.17-136A48.77,48.77,0,0,1,436.82,176.5Z" transform="translate(-150.47 -119.91)"/><path class="cls-15" d="M436.83,176.26,659.52,312a22.15,22.15,0,0,1-.61,38.69L437.69,477.73a59.5,59.5,0,0,1-57.86-.87L157.9,337.11a14.69,14.69,0,0,1,.43-25.7l231.17-136A48.8,48.8,0,0,1,436.83,176.26Z" transform="translate(-150.47 -119.91)"/><path class="cls-16" d="M436.83,176,659.52,311.76a22.14,22.14,0,0,1-.61,38.68L437.69,477.5a59.51,59.51,0,0,1-57.85-.88L157.91,336.87a14.7,14.7,0,0,1,.42-25.7l231.17-136A48.77,48.77,0,0,1,436.83,176Z" transform="translate(-150.47 -119.91)"/><path class="cls-17" d="M436.84,175.78,659.53,311.52a22.14,22.14,0,0,1-.61,38.68L437.7,477.26a59.53,59.53,0,0,1-57.86-.88L157.91,336.63a14.69,14.69,0,0,1,.43-25.7L389.51,175A48.77,48.77,0,0,1,436.84,175.78Z" transform="translate(-150.47 -119.91)"/><path class="cls-18" d="M436.84,175.54,659.53,311.28a22.14,22.14,0,0,1-.6,38.68L437.7,477a59.53,59.53,0,0,1-57.85-.87L157.92,336.39a14.7,14.7,0,0,1,.42-25.7l231.17-136A48.77,48.77,0,0,1,436.84,175.54Z" transform="translate(-150.47 -119.91)"/><path class="cls-19" d="M436.85,175.31,659.54,311a22.14,22.14,0,0,1-.61,38.68L437.71,476.78a59.55,59.55,0,0,1-57.86-.87L157.92,336.15a14.68,14.68,0,0,1,.43-25.69l231.17-136A48.74,48.74,0,0,1,436.85,175.31Z" transform="translate(-150.47 -119.91)"/><path class="cls-20" d="M436.85,175.07,659.54,310.8a22.14,22.14,0,0,1-.6,38.68L437.71,476.54a59.53,59.53,0,0,1-57.85-.87L157.93,335.92a14.7,14.7,0,0,1,.42-25.7l231.17-136A48.77,48.77,0,0,1,436.85,175.07Z" transform="translate(-150.47 -119.91)"/><path class="cls-21" d="M436.86,174.83,659.55,310.56a22.14,22.14,0,0,1-.61,38.68L437.72,476.3a59.5,59.5,0,0,1-57.86-.87L157.93,335.68a14.69,14.69,0,0,1,.43-25.7L389.53,174A48.8,48.8,0,0,1,436.86,174.83Z" transform="translate(-150.47 -119.91)"/><path class="cls-22" d="M436.86,174.59,659.55,310.32A22.15,22.15,0,0,1,659,349L437.72,476.07a59.51,59.51,0,0,1-57.85-.88L157.94,335.44a14.7,14.7,0,0,1,.42-25.7l231.17-136A48.8,48.8,0,0,1,436.86,174.59Z" transform="translate(-150.47 -119.91)"/><path class="cls-23" d="M436.87,174.35,659.56,310.09a22.14,22.14,0,0,1-.61,38.68L437.73,475.83a59.53,59.53,0,0,1-57.86-.88L157.94,335.2a14.69,14.69,0,0,1,.43-25.7l231.17-136A48.77,48.77,0,0,1,436.87,174.35Z" transform="translate(-150.47 -119.91)"/><path class="cls-24" d="M436.87,174.11l222.7,135.74a22.14,22.14,0,0,1-.61,38.68L437.73,475.59a59.51,59.51,0,0,1-57.85-.88L158,335a14.7,14.7,0,0,1,.42-25.7l231.18-136A48.75,48.75,0,0,1,436.87,174.11Z" transform="translate(-150.47 -119.91)"/><path class="cls-25" d="M436.88,173.87,659.57,309.61a22.14,22.14,0,0,1-.61,38.68L437.74,475.35a59.55,59.55,0,0,1-57.86-.87L158,334.72a14.68,14.68,0,0,1,.43-25.69l231.17-136A48.77,48.77,0,0,1,436.88,173.87Z" transform="translate(-150.47 -119.91)"/><path class="cls-26" d="M436.88,173.64l222.7,135.73a22.14,22.14,0,0,1-.61,38.68L437.74,475.11a59.53,59.53,0,0,1-57.85-.87L158,334.48a14.69,14.69,0,0,1,.42-25.69l231.18-136A48.72,48.72,0,0,1,436.88,173.64Z" transform="translate(-150.47 -119.91)"/><path class="cls-27" d="M436.89,173.4,659.58,309.13a22.14,22.14,0,0,1-.61,38.68L437.75,474.87a59.5,59.5,0,0,1-57.86-.87L158,334.25a14.69,14.69,0,0,1,.43-25.7l231.17-136A48.77,48.77,0,0,1,436.89,173.4Z" transform="translate(-150.47 -119.91)"/><path class="cls-28" d="M436.89,173.16l222.7,135.73a22.15,22.15,0,0,1-.61,38.69L437.75,474.63a59.48,59.48,0,0,1-57.85-.87L158,334a14.7,14.7,0,0,1,.42-25.7l231.18-136A48.78,48.78,0,0,1,436.89,173.16Z" transform="translate(-150.47 -119.91)"/><path class="cls-29" d="M436.9,172.92,659.59,308.66a22.14,22.14,0,0,1-.61,38.68L437.76,474.4a59.53,59.53,0,0,1-57.86-.88L158,333.77a14.69,14.69,0,0,1,.43-25.7l231.17-136A48.77,48.77,0,0,1,436.9,172.92Z" transform="translate(-150.47 -119.91)"/><path class="cls-30" d="M436.9,172.68,659.6,308.42A22.14,22.14,0,0,1,659,347.1L437.76,474.16a59.51,59.51,0,0,1-57.85-.88L158,333.53a14.7,14.7,0,0,1,.42-25.7l231.18-136A48.75,48.75,0,0,1,436.9,172.68Z" transform="translate(-150.47 -119.91)"/><path class="cls-31" d="M436.91,172.44,659.6,308.18a22.14,22.14,0,0,1-.61,38.68L437.77,473.92a59.55,59.55,0,0,1-57.86-.87L158,333.29a14.69,14.69,0,0,1,.43-25.7l231.17-136A48.77,48.77,0,0,1,436.91,172.44Z" transform="translate(-150.47 -119.91)"/><path class="cls-32" d="M436.91,172.21l222.7,135.73a22.14,22.14,0,0,1-.61,38.68L437.77,473.68a59.53,59.53,0,0,1-57.85-.87L158,333.05a14.69,14.69,0,0,1,.42-25.69l231.18-136A48.72,48.72,0,0,1,436.91,172.21Z" transform="translate(-150.47 -119.91)"/><path class="cls-33" d="M436.92,172,659.61,307.7a22.14,22.14,0,0,1-.61,38.68L437.78,473.44a59.55,59.55,0,0,1-57.86-.87L158,332.82a14.7,14.7,0,0,1,.43-25.7l231.17-136A48.77,48.77,0,0,1,436.92,172Z" transform="translate(-150.47 -119.91)"/><path class="cls-34" d="M436.92,171.73l222.7,135.73a22.14,22.14,0,0,1-.61,38.68L437.78,473.2a59.48,59.48,0,0,1-57.85-.87L158,332.58a14.69,14.69,0,0,1,.43-25.7l231.17-136A48.78,48.78,0,0,1,436.92,171.73Z" transform="translate(-150.47 -119.91)"/><path class="cls-35" d="M436.93,171.49,659.62,307.22a22.15,22.15,0,0,1-.61,38.69L437.79,473a59.53,59.53,0,0,1-57.86-.88L158,332.34a14.7,14.7,0,0,1,.43-25.7l231.17-136A48.8,48.8,0,0,1,436.93,171.49Z" transform="translate(-150.47 -119.91)"/><path class="cls-36" d="M436.93,171.25,659.63,307a22.14,22.14,0,0,1-.61,38.68L437.79,472.73a59.51,59.51,0,0,1-57.85-.88L158,332.1a14.69,14.69,0,0,1,.43-25.7l231.17-136A48.75,48.75,0,0,1,436.93,171.25Z" transform="translate(-150.47 -119.91)"/><path class="cls-37" d="M436.94,171,659.63,306.75a22.14,22.14,0,0,1-.61,38.68L437.8,472.49a59.51,59.51,0,0,1-57.85-.88L158,331.86a14.7,14.7,0,0,1,.43-25.7l231.17-136A48.77,48.77,0,0,1,436.94,171Z" transform="translate(-150.47 -119.91)"/><path class="cls-38" d="M436.94,170.77l222.7,135.74a22.14,22.14,0,0,1-.61,38.68L437.81,472.25a59.55,59.55,0,0,1-57.86-.87L158,331.62a14.68,14.68,0,0,1,.43-25.69L389.62,170A48.75,48.75,0,0,1,436.94,170.77Z" transform="translate(-150.47 -119.91)"/><path class="cls-39" d="M437,170.54,659.64,306.27A22.14,22.14,0,0,1,659,345L437.81,472a59.53,59.53,0,0,1-57.85-.87L158,331.38a14.69,14.69,0,0,1,.42-25.69l231.17-136A48.77,48.77,0,0,1,437,170.54Z" transform="translate(-150.47 -119.91)"/><path class="cls-40" d="M437,170.3,659.65,306a22.14,22.14,0,0,1-.61,38.68L437.82,471.77A59.5,59.5,0,0,1,380,470.9L158,331.15a14.69,14.69,0,0,1,.43-25.7l231.17-136A48.75,48.75,0,0,1,437,170.3Z" transform="translate(-150.47 -119.91)"/><path class="cls-41" d="M437,170.06,659.65,305.79a22.15,22.15,0,0,1-.61,38.69l-221.22,127a59.48,59.48,0,0,1-57.85-.87L158,330.91a14.7,14.7,0,0,1,.42-25.7l231.17-136A48.8,48.8,0,0,1,437,170.06Z" transform="translate(-150.47 -119.91)"/><path class="cls-42" d="M437,169.82l222.7,135.74a22.14,22.14,0,0,1-.61,38.68L437.83,471.3a59.53,59.53,0,0,1-57.86-.88L158,330.67a14.69,14.69,0,0,1,.43-25.7L389.64,169A48.75,48.75,0,0,1,437,169.82Z" transform="translate(-150.47 -119.91)"/><path class="cls-43" d="M437,169.58,659.66,305.32a22.14,22.14,0,0,1-.61,38.68L437.83,471.06a59.51,59.51,0,0,1-57.85-.88L158.05,330.43a14.7,14.7,0,0,1,.42-25.7l231.17-136A48.77,48.77,0,0,1,437,169.58Z" transform="translate(-150.47 -119.91)"/><path class="cls-44" d="M437,169.34l222.7,135.74a22.14,22.14,0,0,1-.61,38.68L437.84,470.82A59.55,59.55,0,0,1,380,470L158.05,330.19a14.69,14.69,0,0,1,.43-25.7l231.17-136A48.75,48.75,0,0,1,437,169.34Z" transform="translate(-150.47 -119.91)"/><path class="cls-45" d="M437,169.11,659.67,304.84a22.14,22.14,0,0,1-.61,38.68L437.84,470.58a59.53,59.53,0,0,1-57.85-.87L158.06,330a14.69,14.69,0,0,1,.42-25.69l231.17-136A48.74,48.74,0,0,1,437,169.11Z" transform="translate(-150.47 -119.91)"/><path class="cls-46" d="M437,168.87,659.68,304.6a22.14,22.14,0,0,1-.61,38.68L437.85,470.34a59.55,59.55,0,0,1-57.86-.87L158.06,329.72a14.69,14.69,0,0,1,.43-25.7l231.17-136A48.75,48.75,0,0,1,437,168.87Z" transform="translate(-150.47 -119.91)"/><path class="cls-47" d="M437,168.63,659.68,304.36a22.14,22.14,0,0,1-.61,38.68L437.85,470.1a59.48,59.48,0,0,1-57.85-.87L158.07,329.48a14.7,14.7,0,0,1,.42-25.7l231.17-136A48.8,48.8,0,0,1,437,168.63Z" transform="translate(-150.47 -119.91)"/><path class="cls-48" d="M437,168.39,659.69,304.12a22.15,22.15,0,0,1-.61,38.69L437.86,469.87A59.53,59.53,0,0,1,380,469L158.07,329.24a14.69,14.69,0,0,1,.43-25.7l231.17-136A48.77,48.77,0,0,1,437,168.39Z" transform="translate(-150.47 -119.91)"/><path class="cls-49" d="M437,168.15,659.69,303.89a22.14,22.14,0,0,1-.6,38.68L437.86,469.63a59.51,59.51,0,0,1-57.85-.88L158.08,329a14.7,14.7,0,0,1,.42-25.7l231.17-136A48.77,48.77,0,0,1,437,168.15Z" transform="translate(-150.47 -119.91)"/><path class="cls-50" d="M437,167.91,659.7,303.65a22.14,22.14,0,0,1-.61,38.68L437.87,469.39a59.53,59.53,0,0,1-57.86-.88L158.08,328.76a14.69,14.69,0,0,1,.43-25.7l231.17-136A48.77,48.77,0,0,1,437,167.91Z" transform="translate(-150.47 -119.91)"/><path class="cls-51" d="M437,167.67,659.7,303.41a22.14,22.14,0,0,1-.6,38.68L437.87,469.15a59.53,59.53,0,0,1-57.85-.87L158.09,328.52a14.69,14.69,0,0,1,.42-25.69l231.17-136A48.77,48.77,0,0,1,437,167.67Z" transform="translate(-150.47 -119.91)"/><path class="cls-52" d="M437,167.44,659.71,303.17a22.14,22.14,0,0,1-.61,38.68L437.88,468.91A59.55,59.55,0,0,1,380,468L158.09,328.29a14.69,14.69,0,0,1,.43-25.7l231.17-136A48.77,48.77,0,0,1,437,167.44Z" transform="translate(-150.47 -119.91)"/><path class="cls-53" d="M437,167.2,659.71,302.93a22.14,22.14,0,0,1-.6,38.68L437.88,468.67A59.48,59.48,0,0,1,380,467.8L158.1,328.05a14.7,14.7,0,0,1,.42-25.7l231.17-136A48.77,48.77,0,0,1,437,167.2Z" transform="translate(-150.47 -119.91)"/><path class="cls-54" d="M437,167,659.72,302.69a22.15,22.15,0,0,1-.61,38.69L437.89,468.43a59.5,59.5,0,0,1-57.86-.87L158.1,327.81a14.69,14.69,0,0,1,.43-25.7l231.17-136A48.8,48.8,0,0,1,437,167Z" transform="translate(-150.47 -119.91)"/><path class="cls-55" d="M437,166.72,659.72,302.46a22.14,22.14,0,0,1-.6,38.68L437.89,468.2a59.51,59.51,0,0,1-57.85-.88L158.11,327.57a14.7,14.7,0,0,1,.42-25.7l231.18-136A48.75,48.75,0,0,1,437,166.72Z" transform="translate(-150.47 -119.91)"/><path class="cls-56" d="M437,166.48,659.73,302.22a22.14,22.14,0,0,1-.61,38.68L437.9,468a59.53,59.53,0,0,1-57.86-.88L158.11,327.33a14.69,14.69,0,0,1,.43-25.7l231.17-136A48.77,48.77,0,0,1,437,166.48Z" transform="translate(-150.47 -119.91)"/><path class="cls-56" d="M437,166.24,659.74,302a22.14,22.14,0,0,1-.61,38.68L437.9,467.72a59.53,59.53,0,0,1-57.85-.87L158.12,327.09a14.7,14.7,0,0,1,.42-25.7l231.18-136A48.75,48.75,0,0,1,437,166.24Z" transform="translate(-150.47 -119.91)"/><path class="cls-57" d="M437.05,166,659.74,301.74a22.14,22.14,0,0,1-.61,38.68L437.91,467.48a59.55,59.55,0,0,1-57.86-.87L158.12,326.85a14.68,14.68,0,0,1,.43-25.69l231.17-136A48.74,48.74,0,0,1,437.05,166Z" transform="translate(-150.47 -119.91)"/><path class="cls-58" d="M437.05,165.77,659.75,301.5a22.14,22.14,0,0,1-.61,38.68L437.91,467.24a59.51,59.51,0,0,1-57.85-.87L158.13,326.62a14.7,14.7,0,0,1,.42-25.7L389.73,165A48.75,48.75,0,0,1,437.05,165.77Z" transform="translate(-150.47 -119.91)"/><path class="cls-59" d="M437.06,165.53,659.75,301.26a22.14,22.14,0,0,1-.61,38.68L437.92,467a59.5,59.5,0,0,1-57.86-.87L158.13,326.38a14.69,14.69,0,0,1,.43-25.7l231.17-136A48.8,48.8,0,0,1,437.06,165.53Z" transform="translate(-150.47 -119.91)"/><path class="cls-60" d="M437.06,165.29,659.76,301a22.15,22.15,0,0,1-.61,38.69L437.92,466.77a59.51,59.51,0,0,1-57.85-.88L158.14,326.14a14.7,14.7,0,0,1,.42-25.7l231.18-136A48.75,48.75,0,0,1,437.06,165.29Z" transform="translate(-150.47 -119.91)"/><path class="cls-61" d="M437.07,165.05,659.76,300.79a22.14,22.14,0,0,1-.61,38.68L437.93,466.53a59.53,59.53,0,0,1-57.86-.88L158.14,325.9a14.69,14.69,0,0,1,.43-25.7l231.17-136A48.77,48.77,0,0,1,437.07,165.05Z" transform="translate(-150.47 -119.91)"/><path class="cls-62" d="M437.07,164.81l222.7,135.74a22.14,22.14,0,0,1-.61,38.68L437.93,466.29a59.53,59.53,0,0,1-57.85-.87L158.15,325.66a14.7,14.7,0,0,1,.42-25.7L389.75,164A48.75,48.75,0,0,1,437.07,164.81Z" transform="translate(-150.47 -119.91)"/><path class="cls-63" d="M437.08,164.57,659.77,300.31a22.14,22.14,0,0,1-.61,38.68L437.94,466.05a59.55,59.55,0,0,1-57.86-.87L158.15,325.42a14.69,14.69,0,0,1,.43-25.69l231.17-136A48.77,48.77,0,0,1,437.08,164.57Z" transform="translate(-150.47 -119.91)"/><path class="cls-64" d="M437.08,164.34l222.7,135.73a22.14,22.14,0,0,1-.61,38.68L437.94,465.81a59.53,59.53,0,0,1-57.85-.87L158.16,325.19a14.69,14.69,0,0,1,.43-25.7l231.17-136A48.75,48.75,0,0,1,437.08,164.34Z" transform="translate(-150.47 -119.91)"/><path class="cls-65" d="M437.09,164.1,659.78,299.83a22.14,22.14,0,0,1-.61,38.68L438,465.57a59.5,59.5,0,0,1-57.86-.87L158.16,325a14.7,14.7,0,0,1,.43-25.7l231.17-136A48.77,48.77,0,0,1,437.09,164.1Z" transform="translate(-150.47 -119.91)"/><path class="cls-66" d="M437.09,163.86l222.7,135.73a22.15,22.15,0,0,1-.61,38.69L438,465.33a59.48,59.48,0,0,1-57.85-.87L158.17,324.71a14.69,14.69,0,0,1,.43-25.7L389.77,163A48.78,48.78,0,0,1,437.09,163.86Z" transform="translate(-150.47 -119.91)"/><path class="cls-67" d="M437.1,163.62,659.79,299.36a22.14,22.14,0,0,1-.61,38.68L438,465.1a59.51,59.51,0,0,1-57.85-.88L158.17,324.47a14.7,14.7,0,0,1,.43-25.7l231.17-136A48.77,48.77,0,0,1,437.1,163.62Z" transform="translate(-150.47 -119.91)"/><path class="cls-68" d="M437.1,163.38,659.8,299.12a22.14,22.14,0,0,1-.61,38.68L438,464.86a59.53,59.53,0,0,1-57.86-.88L158.18,324.23a14.69,14.69,0,0,1,.43-25.7l231.17-136A48.75,48.75,0,0,1,437.1,163.38Z" transform="translate(-150.47 -119.91)"/><path class="cls-69" d="M437.11,163.14,659.8,298.88a22.14,22.14,0,0,1-.61,38.68L438,464.62a59.53,59.53,0,0,1-57.85-.87L158.18,324a14.7,14.7,0,0,1,.43-25.7l231.17-136A48.77,48.77,0,0,1,437.11,163.14Z" transform="translate(-150.47 -119.91)"/><path class="cls-70" d="M437.11,162.91l222.7,135.73a22.14,22.14,0,0,1-.61,38.68L438,464.38a59.55,59.55,0,0,1-57.86-.87L158.19,323.75a14.68,14.68,0,0,1,.43-25.69l231.17-136A48.72,48.72,0,0,1,437.11,162.91Z" transform="translate(-150.47 -119.91)"/><path class="cls-71" d="M437.12,162.67,659.81,298.4a22.14,22.14,0,0,1-.61,38.68L438,464.14a59.51,59.51,0,0,1-57.85-.87L158.2,323.52a14.7,14.7,0,0,1,.42-25.7l231.17-136A48.77,48.77,0,0,1,437.12,162.67Z" transform="translate(-150.47 -119.91)"/><path class="cls-72" d="M437.12,162.43l222.7,135.73a22.14,22.14,0,0,1-.61,38.68L438,463.9a59.5,59.5,0,0,1-57.86-.87L158.2,323.28a14.69,14.69,0,0,1,.43-25.7l231.17-136A48.78,48.78,0,0,1,437.12,162.43Z" transform="translate(-150.47 -119.91)"/><path class="cls-73" d="M437.13,162.19,659.82,297.92a22.15,22.15,0,0,1-.61,38.69L438,463.67a59.51,59.51,0,0,1-57.85-.88L158.21,323a14.7,14.7,0,0,1,.42-25.7l231.17-136A48.77,48.77,0,0,1,437.13,162.19Z" transform="translate(-150.47 -119.91)"/><path class="cls-74" d="M437.13,162l222.7,135.74a22.14,22.14,0,0,1-.61,38.68L438,463.43a59.53,59.53,0,0,1-57.86-.88L158.21,322.8a14.69,14.69,0,0,1,.43-25.7l231.17-136A48.75,48.75,0,0,1,437.13,162Z" transform="translate(-150.47 -119.91)"/><path class="cls-75" d="M437.14,161.71,659.83,297.45a22.14,22.14,0,0,1-.61,38.68L438,463.19a59.53,59.53,0,0,1-57.85-.87L158.22,322.56a14.7,14.7,0,0,1,.42-25.7l231.17-136A48.77,48.77,0,0,1,437.14,161.71Z" transform="translate(-150.47 -119.91)"/><path class="cls-76" d="M437.14,161.48l222.7,135.73a22.14,22.14,0,0,1-.61,38.68L438,463a59.55,59.55,0,0,1-57.86-.87L158.22,322.32a14.68,14.68,0,0,1,.43-25.69l231.17-136A48.72,48.72,0,0,1,437.14,161.48Z" transform="translate(-150.47 -119.91)"/><path class="cls-77" d="M437.15,161.24,659.84,297a22.14,22.14,0,0,1-.61,38.68L438,462.71a59.53,59.53,0,0,1-57.85-.87L158.23,322.09a14.7,14.7,0,0,1,.42-25.7l231.17-136A48.77,48.77,0,0,1,437.15,161.24Z" transform="translate(-150.47 -119.91)"/><path class="cls-78" d="M437.16,161,659.85,296.73a22.14,22.14,0,0,1-.61,38.68L438,462.47a59.5,59.5,0,0,1-57.86-.87L158.23,321.85a14.69,14.69,0,0,1,.43-25.7l231.17-136A48.77,48.77,0,0,1,437.16,161Z" transform="translate(-150.47 -119.91)"/><path class="cls-79" d="M437.16,160.76,659.85,296.49a22.15,22.15,0,0,1-.61,38.69L438,462.23a59.48,59.48,0,0,1-57.85-.87L158.24,321.61a14.7,14.7,0,0,1,.42-25.7l231.17-136A48.8,48.8,0,0,1,437.16,160.76Z" transform="translate(-150.47 -119.91)"/><path class="cls-80" d="M437.17,160.52,659.86,296.26a22.14,22.14,0,0,1-.61,38.68L438,462a59.53,59.53,0,0,1-57.86-.88L158.24,321.37a14.69,14.69,0,0,1,.43-25.7l231.17-136A48.77,48.77,0,0,1,437.17,160.52Z" transform="translate(-150.47 -119.91)"/><path class="cls-81" d="M437.17,160.28,659.86,296a22.14,22.14,0,0,1-.6,38.68L438,461.76a59.51,59.51,0,0,1-57.85-.88L158.25,321.13a14.7,14.7,0,0,1,.42-25.7l231.17-136A48.77,48.77,0,0,1,437.17,160.28Z" transform="translate(-150.47 -119.91)"/><path class="cls-82" d="M437.18,160,659.87,295.78a22.14,22.14,0,0,1-.61,38.68L438,461.52a59.55,59.55,0,0,1-57.86-.87L158.25,320.89a14.69,14.69,0,0,1,.43-25.7l231.17-136A48.77,48.77,0,0,1,437.18,160Z" transform="translate(-150.47 -119.91)"/><path class="cls-83" d="M437.18,159.81,659.87,295.54a22.14,22.14,0,0,1-.6,38.68L438,461.28a59.53,59.53,0,0,1-57.85-.87L158.26,320.65a14.69,14.69,0,0,1,.42-25.69L389.85,159A48.74,48.74,0,0,1,437.18,159.81Z" transform="translate(-150.47 -119.91)"/><path class="cls-84" d="M437.19,159.57,659.88,295.3a22.14,22.14,0,0,1-.61,38.68L438.05,461a59.53,59.53,0,0,1-57.86-.87L158.26,320.42a14.69,14.69,0,0,1,.43-25.7l231.17-136A48.77,48.77,0,0,1,437.19,159.57Z" transform="translate(-150.47 -119.91)"/><path class="cls-85" d="M437.19,159.33,659.88,295.06a22.14,22.14,0,0,1-.6,38.68L438.05,460.8a59.48,59.48,0,0,1-57.85-.87L158.27,320.18a14.7,14.7,0,0,1,.42-25.7l231.18-136A48.78,48.78,0,0,1,437.19,159.33Z" transform="translate(-150.47 -119.91)"/><path class="cls-86" d="M437.2,159.09,659.89,294.83a22.14,22.14,0,0,1-.61,38.68L438.06,460.57a59.53,59.53,0,0,1-57.86-.88L158.27,319.94a14.69,14.69,0,0,1,.43-25.7l231.17-136A48.77,48.77,0,0,1,437.2,159.09Z" transform="translate(-150.47 -119.91)"/><path class="cls-87" d="M437.2,158.85,659.9,294.59a22.14,22.14,0,0,1-.61,38.68L438.06,460.33a59.51,59.51,0,0,1-57.85-.88L158.28,319.7a14.7,14.7,0,0,1,.42-25.7L389.88,158A48.75,48.75,0,0,1,437.2,158.85Z" transform="translate(-150.47 -119.91)"/><path class="cls-88" d="M437.21,158.61,659.9,294.35a22.14,22.14,0,0,1-.61,38.68L438.07,460.09a59.55,59.55,0,0,1-57.86-.87L158.28,319.46a14.69,14.69,0,0,1,.43-25.7l231.17-136A48.77,48.77,0,0,1,437.21,158.61Z" transform="translate(-150.47 -119.91)"/><path class="cls-89" d="M437.21,158.38l222.7,135.73a22.14,22.14,0,0,1-.61,38.68L438.07,459.85a59.53,59.53,0,0,1-57.85-.87L158.29,319.22a14.69,14.69,0,0,1,.42-25.69l231.18-136A48.72,48.72,0,0,1,437.21,158.38Z" transform="translate(-150.47 -119.91)"/><path class="cls-90" d="M437.22,158.14,659.91,293.87a22.14,22.14,0,0,1-.61,38.68L438.08,459.61a59.55,59.55,0,0,1-57.86-.87L158.29,319a14.69,14.69,0,0,1,.43-25.7l231.17-136A48.77,48.77,0,0,1,437.22,158.14Z" transform="translate(-150.47 -119.91)"/><path class="cls-91" d="M437.22,157.9l222.7,135.73a22.14,22.14,0,0,1-.61,38.68L438.08,459.37a59.48,59.48,0,0,1-57.85-.87L158.3,318.75a14.7,14.7,0,0,1,.42-25.7l231.18-136A48.78,48.78,0,0,1,437.22,157.9Z" transform="translate(-150.47 -119.91)"/><path class="cls-92" d="M437.23,157.66,659.92,293.39a22.15,22.15,0,0,1-.61,38.69L438.09,459.13a59.5,59.5,0,0,1-57.86-.87L158.3,318.51a14.69,14.69,0,0,1,.43-25.7l231.17-136A48.8,48.8,0,0,1,437.23,157.66Z" transform="translate(-150.47 -119.91)"/><path class="cls-93" d="M437.23,157.42l222.7,135.74a22.14,22.14,0,0,1-.61,38.68L438.09,458.9a59.51,59.51,0,0,1-57.85-.88L158.31,318.27a14.7,14.7,0,0,1,.42-25.7l231.18-136A48.75,48.75,0,0,1,437.23,157.42Z" transform="translate(-150.47 -119.91)"/><path class="cls-94" d="M437.24,157.18,659.93,292.92a22.14,22.14,0,0,1-.61,38.68L438.1,458.66a59.53,59.53,0,0,1-57.86-.88L158.31,318a14.7,14.7,0,0,1,.43-25.7l231.17-136A48.77,48.77,0,0,1,437.24,157.18Z" transform="translate(-150.47 -119.91)"/><path class="cls-95" d="M437.24,156.94l222.7,135.74a22.14,22.14,0,0,1-.61,38.68L438.1,458.42a59.53,59.53,0,0,1-57.85-.87L158.32,317.79a14.69,14.69,0,0,1,.43-25.7l231.17-136A48.75,48.75,0,0,1,437.24,156.94Z" transform="translate(-150.47 -119.91)"/><path class="cls-96" d="M437.25,156.71,659.94,292.44a22.14,22.14,0,0,1-.61,38.68L438.11,458.18a59.55,59.55,0,0,1-57.86-.87L158.32,317.55a14.69,14.69,0,0,1,.43-25.69l231.17-136A48.74,48.74,0,0,1,437.25,156.71Z" transform="translate(-150.47 -119.91)"/><path class="cls-97" d="M437.25,156.47,660,292.2a22.14,22.14,0,0,1-.61,38.68L438.11,457.94a59.51,59.51,0,0,1-57.85-.87L158.33,317.32a14.69,14.69,0,0,1,.43-25.7l231.17-136A48.75,48.75,0,0,1,437.25,156.47Z" transform="translate(-150.47 -119.91)"/><path class="cls-98" d="M437.26,156.23,660,292a22.14,22.14,0,0,1-.61,38.68L438.12,457.7a59.5,59.5,0,0,1-57.86-.87L158.33,317.08a14.7,14.7,0,0,1,.43-25.7l231.17-136A48.8,48.8,0,0,1,437.26,156.23Z" transform="translate(-150.47 -119.91)"/><path class="cls-99" d="M437.26,156,660,291.73a22.14,22.14,0,0,1-.61,38.68L438.12,457.47a59.51,59.51,0,0,1-57.85-.88L158.34,316.84a14.69,14.69,0,0,1,.43-25.7l231.17-136A48.75,48.75,0,0,1,437.26,156Z" transform="translate(-150.47 -119.91)"/><path class="cls-100" d="M437.27,155.75,660,291.49a22.14,22.14,0,0,1-.61,38.68L438.13,457.23a59.51,59.51,0,0,1-57.85-.88L158.34,316.6a14.7,14.7,0,0,1,.43-25.7l231.17-136A48.77,48.77,0,0,1,437.27,155.75Z" transform="translate(-150.47 -119.91)"/><path class="cls-101" d="M437.27,155.51,660,291.25a22.14,22.14,0,0,1-.61,38.68L438.14,457a59.55,59.55,0,0,1-57.86-.87L158.35,316.36a14.69,14.69,0,0,1,.43-25.7L390,154.7A48.75,48.75,0,0,1,437.27,155.51Z" transform="translate(-150.47 -119.91)"/><path class="cls-102" d="M437.28,155.28,660,291a22.14,22.14,0,0,1-.61,38.68L438.14,456.75a59.53,59.53,0,0,1-57.85-.87L158.36,316.12a14.69,14.69,0,0,1,.42-25.69L390,154.46A48.74,48.74,0,0,1,437.28,155.28Z" transform="translate(-150.47 -119.91)"/><path class="cls-103" d="M437.28,155,660,290.77a22.14,22.14,0,0,1-.61,38.68L438.15,456.51a59.55,59.55,0,0,1-57.86-.87L158.36,315.89a14.69,14.69,0,0,1,.43-25.7L390,154.22A48.75,48.75,0,0,1,437.28,155Z" transform="translate(-150.47 -119.91)"/><path class="cls-104" d="M437.29,154.8,660,290.53a22.14,22.14,0,0,1-.61,38.68L438.15,456.27a59.48,59.48,0,0,1-57.85-.87L158.37,315.65a14.7,14.7,0,0,1,.42-25.7L390,154A48.8,48.8,0,0,1,437.29,154.8Z" transform="translate(-150.47 -119.91)"/><path class="cls-105" d="M437.29,154.56,660,290.29a22.15,22.15,0,0,1-.61,38.69L438.16,456a59.5,59.5,0,0,1-57.86-.87L158.37,315.41a14.69,14.69,0,0,1,.43-25.7L390,153.74A48.78,48.78,0,0,1,437.29,154.56Z" transform="translate(-150.47 -119.91)"/><path class="cls-106" d="M437.3,154.32,660,290.06a22.14,22.14,0,0,1-.61,38.68L438.16,455.8a59.51,59.51,0,0,1-57.85-.88L158.38,315.17a14.7,14.7,0,0,1,.42-25.7L390,153.51A48.77,48.77,0,0,1,437.3,154.32Z" transform="translate(-150.47 -119.91)"/><path class="cls-107" d="M437.3,154.08,660,289.82a22.14,22.14,0,0,1-.61,38.68L438.17,455.56a59.53,59.53,0,0,1-57.86-.88L158.38,314.93a14.69,14.69,0,0,1,.43-25.7L390,153.27A48.75,48.75,0,0,1,437.3,154.08Z" transform="translate(-150.47 -119.91)"/><path class="cls-108" d="M437.31,153.84,660,289.58a22.14,22.14,0,0,1-.61,38.68L438.17,455.32a59.53,59.53,0,0,1-57.85-.87L158.39,314.69a14.7,14.7,0,0,1,.42-25.7L390,153A48.77,48.77,0,0,1,437.31,153.84Z" transform="translate(-150.47 -119.91)"/><path class="cls-109" d="M437.32,153.61,660,289.34A22.14,22.14,0,0,1,659.4,328L438.18,455.08a59.55,59.55,0,0,1-57.86-.87L158.39,314.45a14.68,14.68,0,0,1,.43-25.69L390,152.79A48.74,48.74,0,0,1,437.32,153.61Z" transform="translate(-150.47 -119.91)"/><path class="cls-110" d="M437.32,153.37,660,289.1a22.14,22.14,0,0,1-.61,38.68L438.18,454.84a59.51,59.51,0,0,1-57.85-.87L158.4,314.22a14.7,14.7,0,0,1,.42-25.7L390,152.55A48.77,48.77,0,0,1,437.32,153.37Z" transform="translate(-150.47 -119.91)"/><path class="cls-111" d="M437.33,153.13,660,288.86a22.15,22.15,0,0,1-.61,38.69L438.19,454.6a59.5,59.5,0,0,1-57.86-.87L158.4,314a14.69,14.69,0,0,1,.43-25.7L390,152.31A48.8,48.8,0,0,1,437.33,153.13Z" transform="translate(-150.47 -119.91)"/><path class="cls-112" d="M437.31,152.64,660,288.37a22.14,22.14,0,0,1-.61,38.68L438.18,454.11a59.55,59.55,0,0,1-57.86-.87L158.39,313.48a14.68,14.68,0,0,1,.43-25.69L390,151.82A48.72,48.72,0,0,1,437.31,152.64Z" transform="translate(-150.47 -119.91)"/><path class="cls-113" d="M437.3,152.14,660,287.88a22.14,22.14,0,0,1-.61,38.68L438.17,453.62a59.53,59.53,0,0,1-57.86-.88L158.38,313a14.69,14.69,0,0,1,.43-25.7L390,151.33A48.75,48.75,0,0,1,437.3,152.14Z" transform="translate(-150.47 -119.91)"/><path class="cls-114" d="M437.29,151.65,660,287.38a22.14,22.14,0,0,1-.61,38.68L438.16,453.12a59.55,59.55,0,0,1-57.86-.87L158.37,312.5a14.69,14.69,0,0,1,.43-25.7L390,150.83A48.75,48.75,0,0,1,437.29,151.65Z" transform="translate(-150.47 -119.91)"/><path class="cls-115" d="M437.28,151.15,660,286.89a22.14,22.14,0,0,1-.61,38.68L438.14,452.63a59.51,59.51,0,0,1-57.85-.88L158.36,312a14.69,14.69,0,0,1,.43-25.7L390,150.34A48.75,48.75,0,0,1,437.28,151.15Z" transform="translate(-150.47 -119.91)"/><path class="cls-116" d="M437.27,150.66,660,286.39a22.15,22.15,0,0,1-.61,38.69L438.13,452.13a59.48,59.48,0,0,1-57.85-.87L158.35,311.51a14.7,14.7,0,0,1,.42-25.7L390,149.84A48.78,48.78,0,0,1,437.27,150.66Z" transform="translate(-150.47 -119.91)"/><path class="cls-117" d="M437.26,150.17,660,285.9a22.14,22.14,0,0,1-.61,38.68L438.12,451.64a59.53,59.53,0,0,1-57.85-.87L158.34,311a14.69,14.69,0,0,1,.42-25.69l231.18-136A48.72,48.72,0,0,1,437.26,150.17Z" transform="translate(-150.47 -119.91)"/><path class="cls-118" d="M437.25,149.67,659.94,285.41a22.14,22.14,0,0,1-.6,38.68L438.11,451.15a59.51,59.51,0,0,1-57.85-.88L158.33,310.52a14.7,14.7,0,0,1,.42-25.7l231.17-136A48.77,48.77,0,0,1,437.25,149.67Z" transform="translate(-150.47 -119.91)"/><path class="cls-119" d="M437.24,149.18,659.93,284.91a22.14,22.14,0,0,1-.6,38.68L438.1,450.65a59.48,59.48,0,0,1-57.85-.87L158.32,310a14.7,14.7,0,0,1,.42-25.7l231.17-136A48.77,48.77,0,0,1,437.24,149.18Z" transform="translate(-150.47 -119.91)"/><path class="cls-120" d="M437.23,148.68,659.92,284.42a22.14,22.14,0,0,1-.61,38.68L438.09,450.16a59.53,59.53,0,0,1-57.85-.87L158.31,309.53a14.7,14.7,0,0,1,.42-25.7l231.17-136A48.77,48.77,0,0,1,437.23,148.68Z" transform="translate(-150.47 -119.91)"/><path class="cls-121" d="M437.22,148.19,659.91,283.92a22.15,22.15,0,0,1-.61,38.69L438.08,449.66a59.48,59.48,0,0,1-57.85-.87L158.3,309a14.7,14.7,0,0,1,.42-25.7l231.17-136A48.8,48.8,0,0,1,437.22,148.19Z" transform="translate(-150.47 -119.91)"/><path class="cls-122" d="M437.21,147.7,659.9,283.43a22.14,22.14,0,0,1-.61,38.68L438.07,449.17a59.53,59.53,0,0,1-57.85-.87L158.28,308.54a14.69,14.69,0,0,1,.43-25.69l231.17-136A48.74,48.74,0,0,1,437.21,147.7Z" transform="translate(-150.47 -119.91)"/><path class="cls-123" d="M437.2,147.2,659.89,282.94a22.14,22.14,0,0,1-.61,38.68L438.06,448.68a59.53,59.53,0,0,1-57.86-.88L158.27,308.05a14.7,14.7,0,0,1,.43-25.7l231.17-136A48.77,48.77,0,0,1,437.2,147.2Z" transform="translate(-150.47 -119.91)"/><path class="cls-124" d="M437.19,146.71,659.88,282.44a22.14,22.14,0,0,1-.61,38.68L438.05,448.18a59.5,59.5,0,0,1-57.86-.87L158.26,307.56a14.69,14.69,0,0,1,.43-25.7l231.17-136A48.77,48.77,0,0,1,437.19,146.71Z" transform="translate(-150.47 -119.91)"/><path class="cls-125" d="M437.18,146.21,659.87,282a22.14,22.14,0,0,1-.61,38.68L438,447.69a59.55,59.55,0,0,1-57.86-.87L158.25,307.06a14.69,14.69,0,0,1,.43-25.7l231.17-136A48.77,48.77,0,0,1,437.18,146.21Z" transform="translate(-150.47 -119.91)"/><path class="cls-126" d="M437.17,145.72,659.86,281.45a22.15,22.15,0,0,1-.61,38.69L438,447.19a59.5,59.5,0,0,1-57.86-.87L158.24,306.57a14.69,14.69,0,0,1,.43-25.7l231.17-136A48.8,48.8,0,0,1,437.17,145.72Z" transform="translate(-150.47 -119.91)"/><path class="cls-127" d="M437.16,145.23,659.85,281a22.14,22.14,0,0,1-.61,38.68L438,446.7a59.55,59.55,0,0,1-57.86-.87L158.23,306.07a14.68,14.68,0,0,1,.43-25.69l231.17-136A48.74,48.74,0,0,1,437.16,145.23Z" transform="translate(-150.47 -119.91)"/><path class="cls-128" d="M437.15,144.73,659.84,280.47a22.14,22.14,0,0,1-.61,38.68L438,446.21a59.53,59.53,0,0,1-57.86-.88L158.22,305.58a14.69,14.69,0,0,1,.43-25.7l231.17-136A48.77,48.77,0,0,1,437.15,144.73Z" transform="translate(-150.47 -119.91)"/><path class="cls-129" d="M437.13,144.24,659.83,280a22.14,22.14,0,0,1-.61,38.68L438,445.71a59.5,59.5,0,0,1-57.86-.87L158.21,305.09a14.69,14.69,0,0,1,.43-25.7l231.17-136A48.75,48.75,0,0,1,437.13,144.24Z" transform="translate(-150.47 -119.91)"/><path class="cls-130" d="M437.12,143.74l222.7,135.74a22.14,22.14,0,0,1-.61,38.68L438,445.22a59.55,59.55,0,0,1-57.86-.87L158.2,304.59a14.69,14.69,0,0,1,.43-25.7l231.17-136A48.75,48.75,0,0,1,437.12,143.74Z" transform="translate(-150.47 -119.91)"/><path class="cls-131" d="M437.11,143.25,659.81,279a22.15,22.15,0,0,1-.61,38.69L438,444.73a59.51,59.51,0,0,1-57.85-.88L158.19,304.1a14.69,14.69,0,0,1,.43-25.7l231.17-136A48.78,48.78,0,0,1,437.11,143.25Z" transform="translate(-150.47 -119.91)"/><path class="cls-132" d="M437.1,142.76,659.8,278.49a22.14,22.14,0,0,1-.61,38.68L438,444.23a59.53,59.53,0,0,1-57.85-.87L158.18,303.6a14.69,14.69,0,0,1,.42-25.69l231.18-136A48.72,48.72,0,0,1,437.1,142.76Z" transform="translate(-150.47 -119.91)"/><path class="cls-133" d="M437.09,142.26,659.79,278a22.14,22.14,0,0,1-.61,38.68L438,443.74a59.51,59.51,0,0,1-57.85-.88L158.17,303.11a14.7,14.7,0,0,1,.42-25.7l231.18-136A48.75,48.75,0,0,1,437.09,142.26Z" transform="translate(-150.47 -119.91)"/><path class="cls-134" d="M437.08,141.77,659.78,277.5a22.14,22.14,0,0,1-.61,38.68L437.94,443.24a59.48,59.48,0,0,1-57.85-.87L158.16,302.62a14.7,14.7,0,0,1,.42-25.7L389.76,141A48.78,48.78,0,0,1,437.08,141.77Z" transform="translate(-150.47 -119.91)"/><path class="cls-135" d="M437.07,141.27,659.76,277a22.14,22.14,0,0,1-.6,38.68L437.93,442.75a59.53,59.53,0,0,1-57.85-.87L158.15,302.12a14.7,14.7,0,0,1,.42-25.7l231.17-136A48.77,48.77,0,0,1,437.07,141.27Z" transform="translate(-150.47 -119.91)"/><path class="cls-136" d="M437.06,140.78,659.75,276.52a22.14,22.14,0,0,1-.61,38.68L437.92,442.26a59.51,59.51,0,0,1-57.85-.88L158.14,301.63a14.7,14.7,0,0,1,.42-25.7L389.73,140A48.77,48.77,0,0,1,437.06,140.78Z" transform="translate(-150.47 -119.91)"/><path class="cls-137" d="M437.05,140.29,659.74,276a22.14,22.14,0,0,1-.61,38.68L437.91,441.76a59.53,59.53,0,0,1-57.85-.87L158.13,301.14a14.7,14.7,0,0,1,.42-25.7l231.17-136A48.77,48.77,0,0,1,437.05,140.29Z" transform="translate(-150.47 -119.91)"/><path class="cls-138" d="M437,139.79,659.73,275.53a22.14,22.14,0,0,1-.61,38.68L437.9,441.27a59.51,59.51,0,0,1-57.85-.88L158.12,300.64a14.7,14.7,0,0,1,.42-25.7L389.71,139A48.77,48.77,0,0,1,437,139.79Z" transform="translate(-150.47 -119.91)"/><path class="cls-139" d="M437,139.3,659.72,275a22.14,22.14,0,0,1-.61,38.68L437.89,440.77A59.48,59.48,0,0,1,380,439.9L158.1,300.15a14.7,14.7,0,0,1,.43-25.7l231.17-136A48.8,48.8,0,0,1,437,139.3Z" transform="translate(-150.47 -119.91)"/><path class="cls-140" d="M437,138.8,659.71,274.54a22.14,22.14,0,0,1-.61,38.68L437.88,440.28a59.55,59.55,0,0,1-57.86-.87L158.09,299.65a14.69,14.69,0,0,1,.43-25.69L389.69,138A48.77,48.77,0,0,1,437,138.8Z" transform="translate(-150.47 -119.91)"/><path class="cls-141" d="M437,138.31,659.7,274.05a22.14,22.14,0,0,1-.61,38.68L437.87,439.79a59.53,59.53,0,0,1-57.86-.88L158.08,299.16a14.69,14.69,0,0,1,.43-25.7l231.17-136A48.77,48.77,0,0,1,437,138.31Z" transform="translate(-150.47 -119.91)"/><path class="cls-142" d="M437,137.82,659.69,273.55a22.14,22.14,0,0,1-.61,38.68L437.86,439.29a59.55,59.55,0,0,1-57.86-.87L158.07,298.67a14.69,14.69,0,0,1,.43-25.7L389.67,137A48.77,48.77,0,0,1,437,137.82Z" transform="translate(-150.47 -119.91)"/><path class="cls-143" d="M437,137.32,659.68,273.06a22.14,22.14,0,0,1-.61,38.68L437.85,438.8a59.53,59.53,0,0,1-57.86-.88L158.06,298.17a14.69,14.69,0,0,1,.43-25.7l231.17-136A48.77,48.77,0,0,1,437,137.32Z" transform="translate(-150.47 -119.91)"/><path class="cls-144" d="M437,136.83,659.67,272.56a22.15,22.15,0,0,1-.61,38.69L437.84,438.3a59.5,59.5,0,0,1-57.86-.87L158.05,297.68a14.69,14.69,0,0,1,.43-25.7L389.65,136A48.8,48.8,0,0,1,437,136.83Z" transform="translate(-150.47 -119.91)"/><path class="cls-145" d="M437,136.34l222.7,135.73a22.14,22.14,0,0,1-.61,38.68L437.83,437.81a59.55,59.55,0,0,1-57.86-.87L158,297.18a14.68,14.68,0,0,1,.43-25.69l231.17-136A48.72,48.72,0,0,1,437,136.34Z" transform="translate(-150.47 -119.91)"/><path class="cls-146" d="M437,135.84l222.7,135.74a22.14,22.14,0,0,1-.61,38.68L437.82,437.32a59.53,59.53,0,0,1-57.86-.88L158,296.69a14.69,14.69,0,0,1,.43-25.7L389.63,135A48.75,48.75,0,0,1,437,135.84Z" transform="translate(-150.47 -119.91)"/><path class="cls-147" d="M436.94,135.35l222.7,135.73a22.14,22.14,0,0,1-.61,38.68L437.81,436.82A59.53,59.53,0,0,1,380,436L158,296.2a14.69,14.69,0,0,1,.43-25.7l231.17-136A48.75,48.75,0,0,1,436.94,135.35Z" transform="translate(-150.47 -119.91)"/><path class="cls-148" d="M436.93,134.85l222.7,135.74a22.14,22.14,0,0,1-.61,38.68L437.79,436.33a59.51,59.51,0,0,1-57.85-.88L158,295.7a14.69,14.69,0,0,1,.43-25.7L389.61,134A48.75,48.75,0,0,1,436.93,134.85Z" transform="translate(-150.47 -119.91)"/><path class="cls-149" d="M436.92,134.36l222.7,135.73a22.15,22.15,0,0,1-.61,38.69L437.78,435.83a59.48,59.48,0,0,1-57.85-.87L158,295.21a14.7,14.7,0,0,1,.42-25.7l231.18-136A48.78,48.78,0,0,1,436.92,134.36Z" transform="translate(-150.47 -119.91)"/><path class="cls-150" d="M436.91,133.87,659.61,269.6a22.14,22.14,0,0,1-.61,38.68L437.77,435.34a59.53,59.53,0,0,1-57.85-.87L158,294.71a14.69,14.69,0,0,1,.42-25.69l231.18-136A48.72,48.72,0,0,1,436.91,133.87Z" transform="translate(-150.47 -119.91)"/><path class="cls-151" d="M436.9,133.37,659.59,269.11a22.14,22.14,0,0,1-.6,38.68L437.76,434.85a59.51,59.51,0,0,1-57.85-.88L158,294.22a14.7,14.7,0,0,1,.42-25.7l231.18-136A48.75,48.75,0,0,1,436.9,133.37Z" transform="translate(-150.47 -119.91)"/><path class="cls-152" d="M436.89,132.88,659.58,268.61a22.14,22.14,0,0,1-.6,38.68L437.75,434.35a59.48,59.48,0,0,1-57.85-.87L158,293.73a14.7,14.7,0,0,1,.42-25.7l231.17-136A48.77,48.77,0,0,1,436.89,132.88Z" transform="translate(-150.47 -119.91)"/><path class="cls-153" d="M436.88,132.38,659.57,268.12A22.14,22.14,0,0,1,659,306.8L437.74,433.86a59.53,59.53,0,0,1-57.85-.87L158,293.23a14.7,14.7,0,0,1,.42-25.7l231.17-136A48.77,48.77,0,0,1,436.88,132.38Z" transform="translate(-150.47 -119.91)"/><path class="cls-154" d="M436.87,131.89,659.56,267.62a22.15,22.15,0,0,1-.61,38.69L437.73,433.36a59.48,59.48,0,0,1-57.85-.87L158,292.74a14.7,14.7,0,0,1,.42-25.7l231.17-136A48.8,48.8,0,0,1,436.87,131.89Z" transform="translate(-150.47 -119.91)"/><path class="cls-155" d="M436.86,131.4,659.55,267.13a22.14,22.14,0,0,1-.61,38.68L437.72,432.87a59.53,59.53,0,0,1-57.85-.87L157.94,292.24a14.69,14.69,0,0,1,.42-25.69l231.17-136A48.74,48.74,0,0,1,436.86,131.4Z" transform="translate(-150.47 -119.91)"/><path class="cls-156" d="M436.85,130.9,659.54,266.64a22.14,22.14,0,0,1-.61,38.68L437.71,432.38a59.53,59.53,0,0,1-57.86-.88L157.92,291.75a14.7,14.7,0,0,1,.43-25.7l231.17-136A48.77,48.77,0,0,1,436.85,130.9Z" transform="translate(-150.47 -119.91)"/><path class="cls-157" d="M436.84,130.41,659.53,266.14a22.14,22.14,0,0,1-.61,38.68L437.7,431.88a59.5,59.5,0,0,1-57.86-.87L157.91,291.26a14.69,14.69,0,0,1,.43-25.7l231.17-136A48.77,48.77,0,0,1,436.84,130.41Z" transform="translate(-150.47 -119.91)"/><path class="cls-158" d="M436.83,129.91,659.52,265.65a22.14,22.14,0,0,1-.61,38.68L437.69,431.39a59.55,59.55,0,0,1-57.86-.87L157.9,290.76a14.69,14.69,0,0,1,.43-25.7l231.17-136A48.77,48.77,0,0,1,436.83,129.91Z" transform="translate(-150.47 -119.91)"/><path class="cls-159" d="M436.82,129.42,659.51,265.15a22.15,22.15,0,0,1-.61,38.69L437.68,430.89a59.5,59.5,0,0,1-57.86-.87L157.89,290.27a14.69,14.69,0,0,1,.43-25.7l231.17-136A48.8,48.8,0,0,1,436.82,129.42Z" transform="translate(-150.47 -119.91)"/><path class="cls-160" d="M436.81,128.93,659.5,264.66a22.14,22.14,0,0,1-.61,38.68L437.67,430.4a59.55,59.55,0,0,1-57.86-.87L157.88,289.77a14.68,14.68,0,0,1,.43-25.69l231.17-136A48.74,48.74,0,0,1,436.81,128.93Z" transform="translate(-150.47 -119.91)"/><path class="cls-161" d="M436.8,128.43,659.49,264.17a22.14,22.14,0,0,1-.61,38.68L437.66,429.91A59.53,59.53,0,0,1,379.8,429L157.87,289.28a14.69,14.69,0,0,1,.43-25.7l231.17-136A48.77,48.77,0,0,1,436.8,128.43Z" transform="translate(-150.47 -119.91)"/><path class="cls-162" d="M436.78,127.94l222.7,135.73a22.14,22.14,0,0,1-.61,38.68L437.65,429.41a59.5,59.5,0,0,1-57.86-.87L157.86,288.79a14.69,14.69,0,0,1,.43-25.7l231.17-136A48.75,48.75,0,0,1,436.78,127.94Z" transform="translate(-150.47 -119.91)"/><path class="cls-163" d="M436.77,127.44l222.7,135.74a22.14,22.14,0,0,1-.61,38.68L437.64,428.92a59.55,59.55,0,0,1-57.86-.87L157.85,288.29a14.69,14.69,0,0,1,.43-25.7l231.17-136A48.75,48.75,0,0,1,436.77,127.44Z" transform="translate(-150.47 -119.91)"/><path class="cls-164" d="M436.76,127l222.7,135.73a22.15,22.15,0,0,1-.61,38.69L437.62,428.43a59.51,59.51,0,0,1-57.85-.88L157.84,287.8a14.69,14.69,0,0,1,.43-25.7l231.17-136A48.78,48.78,0,0,1,436.76,127Z" transform="translate(-150.47 -119.91)"/><path class="cls-165" d="M436.75,126.46l222.7,135.73a22.14,22.14,0,0,1-.61,38.68L437.61,427.93a59.53,59.53,0,0,1-57.85-.87L157.83,287.3a14.68,14.68,0,0,1,.43-25.69l231.17-136A48.72,48.72,0,0,1,436.75,126.46Z" transform="translate(-150.47 -119.91)"/><path class="cls-166" d="M456.13,240.28s-75.91,45.71-172,117.46Z" transform="translate(-150.47 -119.91)"/><ellipse class="cls-166" cx="254.45" cy="133.06" rx="8.84" ry="5.22"/><ellipse class="cls-167" cx="254.45" cy="132.89" rx="8.84" ry="5.22"/><ellipse class="cls-168" cx="254.45" cy="132.71" rx="8.84" ry="5.22"/><ellipse class="cls-169" cx="254.45" cy="132.54" rx="8.84" ry="5.22"/><ellipse class="cls-170" cx="254.45" cy="132.37" rx="8.84" ry="5.22"/><ellipse class="cls-171" cx="254.45" cy="132.2" rx="8.84" ry="5.22"/><ellipse class="cls-172" cx="254.45" cy="132.03" rx="8.84" ry="5.22"/><ellipse class="cls-173" cx="254.45" cy="131.86" rx="8.84" ry="5.22"/><ellipse class="cls-174" cx="254.45" cy="131.69" rx="8.84" ry="5.22"/><ellipse class="cls-175" cx="254.45" cy="131.51" rx="8.84" ry="5.22"/><ellipse class="cls-176" cx="254.45" cy="131.34" rx="8.84" ry="5.22"/><ellipse class="cls-177" cx="254.45" cy="131.17" rx="8.84" ry="5.22"/><ellipse class="cls-178" cx="254.45" cy="131" rx="8.84" ry="5.22"/><ellipse class="cls-179" cx="254.45" cy="130.83" rx="8.84" ry="5.22"/><ellipse class="cls-180" cx="254.45" cy="130.66" rx="8.84" ry="5.22"/><ellipse class="cls-181" cx="254.45" cy="130.49" rx="8.84" ry="5.22"/><ellipse class="cls-182" cx="254.45" cy="130.31" rx="8.84" ry="5.22"/><ellipse class="cls-183" cx="254.45" cy="130.14" rx="8.84" ry="5.22"/><ellipse class="cls-184" cx="254.45" cy="129.97" rx="8.84" ry="5.22"/><ellipse class="cls-166" cx="206.28" cy="162.96" rx="8.84" ry="5.22"/><ellipse class="cls-167" cx="206.28" cy="162.79" rx="8.84" ry="5.22"/><ellipse class="cls-168" cx="206.28" cy="162.62" rx="8.84" ry="5.22"/><ellipse class="cls-169" cx="206.28" cy="162.44" rx="8.84" ry="5.22"/><ellipse class="cls-170" cx="206.28" cy="162.27" rx="8.84" ry="5.22"/><ellipse class="cls-171" cx="206.28" cy="162.1" rx="8.84" ry="5.22"/><ellipse class="cls-172" cx="206.28" cy="161.93" rx="8.84" ry="5.22"/><ellipse class="cls-173" cx="206.28" cy="161.76" rx="8.84" ry="5.22"/><ellipse class="cls-174" cx="206.28" cy="161.59" rx="8.84" ry="5.22"/><ellipse class="cls-175" cx="206.28" cy="161.42" rx="8.84" ry="5.22"/><ellipse class="cls-176" cx="206.28" cy="161.25" rx="8.84" ry="5.22"/><ellipse class="cls-177" cx="206.28" cy="161.07" rx="8.84" ry="5.22"/><ellipse class="cls-178" cx="206.28" cy="160.9" rx="8.84" ry="5.22"/><ellipse class="cls-179" cx="206.28" cy="160.73" rx="8.84" ry="5.22"/><ellipse class="cls-180" cx="206.28" cy="160.56" rx="8.84" ry="5.22"/><ellipse class="cls-181" cx="206.28" cy="160.39" rx="8.84" ry="5.22"/><ellipse class="cls-182" cx="206.28" cy="160.22" rx="8.84" ry="5.22"/><ellipse class="cls-183" cx="206.28" cy="160.05" rx="8.84" ry="5.22"/><ellipse class="cls-184" cx="206.28" cy="159.87" rx="8.84" ry="5.22"/><ellipse class="cls-166" cx="153.51" cy="199.61" rx="8.84" ry="5.22"/><ellipse class="cls-167" cx="153.51" cy="199.44" rx="8.84" ry="5.22"/><ellipse class="cls-168" cx="153.51" cy="199.27" rx="8.84" ry="5.22"/><ellipse class="cls-169" cx="153.51" cy="199.1" rx="8.84" ry="5.22"/><ellipse class="cls-170" cx="153.51" cy="198.93" rx="8.84" ry="5.22"/><ellipse class="cls-171" cx="153.51" cy="198.76" rx="8.84" ry="5.22"/><ellipse class="cls-172" cx="153.51" cy="198.58" rx="8.84" ry="5.22"/><ellipse class="cls-173" cx="153.51" cy="198.41" rx="8.84" ry="5.22"/><ellipse class="cls-174" cx="153.51" cy="198.24" rx="8.84" ry="5.22"/><ellipse class="cls-175" cx="153.51" cy="198.07" rx="8.84" ry="5.22"/><ellipse class="cls-176" cx="153.51" cy="197.9" rx="8.84" ry="5.22"/><ellipse class="cls-177" cx="153.51" cy="197.73" rx="8.84" ry="5.22"/><ellipse class="cls-178" cx="153.51" cy="197.56" rx="8.84" ry="5.22"/><ellipse class="cls-179" cx="153.51" cy="197.39" rx="8.84" ry="5.22"/><ellipse class="cls-180" cx="153.51" cy="197.21" rx="8.84" ry="5.22"/><ellipse class="cls-181" cx="153.51" cy="197.04" rx="8.84" ry="5.22"/><ellipse class="cls-182" cx="153.51" cy="196.87" rx="8.84" ry="5.22"/><ellipse class="cls-183" cx="153.51" cy="196.7" rx="8.84" ry="5.22"/><ellipse class="cls-184" cx="153.51" cy="196.53" rx="8.84" ry="5.22"/><path class="cls-166" d="M484.14,159.84,592,225.58s-66.75,27.52-110.61-2.79S484.14,159.84,484.14,159.84Z" transform="translate(-150.47 -119.91)"/><g class="cls-185"><path class="cls-166" d="M473.9,155.21a78.54,78.54,0,0,0-19.26,22.13c-4.91,8.39-7.56,18.44-5.35,28s8.18,17.7,15.51,24.06c7.18,6.62,16,11.26,25.18,14.41,18.53,6.39,38.69,6.85,58.17,4.8a229.88,229.88,0,0,0,57.27-14,202.28,202.28,0,0,1-57.11,15.34c-19.6,2.29-40,2.1-59-4.21a71.7,71.7,0,0,1-25.69-15.07c-7.41-6.58-13.63-15.15-15.71-25.07s.73-20.31,5.84-28.78A78.75,78.75,0,0,1,473.9,155.21Z" transform="translate(-150.47 -119.91)"/></g><g class="cls-186"><path class="cls-166" d="M473.78,156.16a77.81,77.81,0,0,0-18.89,22.48c-4.77,8.49-7.23,18.57-5,28.09s8.24,17.7,15.56,24.08a69.07,69.07,0,0,0,25.23,14.36c18.59,6.27,38.79,6.45,58.26,4.16a240.7,240.7,0,0,0,57.22-14.49,210.42,210.42,0,0,1-57.05,15.86c-19.58,2.52-40,2.62-59.09-3.56a70.36,70.36,0,0,1-25.75-15c-7.4-6.61-13.61-15.18-15.75-25.09s.46-20.33,5.43-28.9A78.3,78.3,0,0,1,473.78,156.16Z" transform="translate(-150.47 -119.91)"/></g><g class="cls-187"><path class="cls-166" d="M589.18,228a8.39,8.39,0,0,1,3.42,2.45,8.21,8.21,0,0,1,1.83,3.79,8.21,8.21,0,0,1-3.42-2.45A8.46,8.46,0,0,1,589.18,228Z" transform="translate(-150.47 -119.91)"/></g><g class="cls-187"><path class="cls-166" d="M578.59,230.66a9.07,9.07,0,0,1,3.18,3,8.93,8.93,0,0,1,1.42,4.15,9,9,0,0,1-3.18-3A9.2,9.2,0,0,1,578.59,230.66Z" transform="translate(-150.47 -119.91)"/></g><g class="cls-187"><path class="cls-166" d="M568.43,233.61a7.82,7.82,0,0,1,3.14,7.16,7.56,7.56,0,0,1-2.52-3.16A7.84,7.84,0,0,1,568.43,233.61Z" transform="translate(-150.47 -119.91)"/></g><g class="cls-187"><path class="cls-166" d="M557.21,236.26a7.77,7.77,0,0,1,2.52,3.16,7.65,7.65,0,0,1,.62,4,7.82,7.82,0,0,1-3.14-7.16Z" transform="translate(-150.47 -119.91)"/></g><g class="cls-187"><path class="cls-166" d="M547.5,237.83a6,6,0,0,1,2.27,6.37,6,6,0,0,1-2.27-6.37Z" transform="translate(-150.47 -119.91)"/></g><g class="cls-187"><path class="cls-166" d="M537,238.62a7.13,7.13,0,0,1,2.08,3.28,7.05,7.05,0,0,1,.09,3.88,7.05,7.05,0,0,1-2.08-3.28A7.15,7.15,0,0,1,537,238.62Z" transform="translate(-150.47 -119.91)"/></g><g class="cls-187"><path class="cls-166" d="M526.76,239.11a5.92,5.92,0,0,1,.73,6.67,5.83,5.83,0,0,1-1.4-3.22A6,6,0,0,1,526.76,239.11Z" transform="translate(-150.47 -119.91)"/></g><g class="cls-187"><path class="cls-166" d="M518.54,238.62a6.28,6.28,0,0,1-.28,6.92,6.28,6.28,0,0,1,.28-6.92Z" transform="translate(-150.47 -119.91)"/></g><g class="cls-187"><path class="cls-166" d="M508.37,237.19a6,6,0,0,1-1,6.68,5.94,5.94,0,0,1-.54-3.49A6.11,6.11,0,0,1,508.37,237.19Z" transform="translate(-150.47 -119.91)"/></g><g class="cls-187"><path class="cls-166" d="M500.21,235.26a5.4,5.4,0,0,1-1.83,6.1,5.29,5.29,0,0,1-.08-3.35A5.43,5.43,0,0,1,500.21,235.26Z" transform="translate(-150.47 -119.91)"/></g><g class="cls-187"><path class="cls-166" d="M491.86,232.35a5.37,5.37,0,0,1-.37,3.3,5.3,5.3,0,0,1-2.27,2.42,5.3,5.3,0,0,1,2.64-5.72Z" transform="translate(-150.47 -119.91)"/></g><g class="cls-187"><path class="cls-166" d="M484.89,228.4a6.1,6.1,0,0,1-1.26,3.34,6,6,0,0,1-2.91,2.06,6.1,6.1,0,0,1,1.26-3.34A6.17,6.17,0,0,1,484.89,228.4Z" transform="translate(-150.47 -119.91)"/></g><g class="cls-187"><path class="cls-166" d="M476.57,223a6.21,6.21,0,0,1-1.26,3.34,6.1,6.1,0,0,1-2.91,2.06,6.09,6.09,0,0,1,4.17-5.4Z" transform="translate(-150.47 -119.91)"/></g><g class="cls-187"><path class="cls-166" d="M471.33,217.88a6.09,6.09,0,0,1-5.25,4.35,6,6,0,0,1,2-3A6.11,6.11,0,0,1,471.33,217.88Z" transform="translate(-150.47 -119.91)"/></g><g class="cls-187"><path class="cls-166" d="M466.52,211.42a6.38,6.38,0,0,1-2.1,3,6.29,6.29,0,0,1-3.39,1.34,6.36,6.36,0,0,1,2.1-3A6.45,6.45,0,0,1,466.52,211.42Z" transform="translate(-150.47 -119.91)"/></g><g class="cls-187"><path class="cls-166" d="M462.26,203.82a6.41,6.41,0,0,1-2.57,2.57,6.17,6.17,0,0,1-3.56.73,6.35,6.35,0,0,1,2.57-2.57A6.43,6.43,0,0,1,462.26,203.82Z" transform="translate(-150.47 -119.91)"/></g><g class="cls-187"><path class="cls-166" d="M461,195.5a6.07,6.07,0,0,1-6.59,1.7,6.08,6.08,0,0,1,6.59-1.7Z" transform="translate(-150.47 -119.91)"/></g><g class="cls-187"><path class="cls-166" d="M461.51,188.79a5.74,5.74,0,0,1-6.59,0,5.71,5.71,0,0,1,3.29-1A5.86,5.86,0,0,1,461.51,188.79Z" transform="translate(-150.47 -119.91)"/></g><g class="cls-187"><path class="cls-166" d="M463.6,183a6,6,0,0,1-3.47.67,5.92,5.92,0,0,1-3.24-1.4,6,6,0,0,1,6.71.73Z" transform="translate(-150.47 -119.91)"/></g><g class="cls-187"><path class="cls-166" d="M466.34,177.39a6,6,0,0,1-3.45.51,5.84,5.84,0,0,1-3.14-1.54,5.83,5.83,0,0,1,6.59,1Z" transform="translate(-150.47 -119.91)"/></g><g class="cls-187"><path class="cls-166" d="M470.12,171.88a6.51,6.51,0,0,1-3.66.33,6.43,6.43,0,0,1-3.24-1.72,6.42,6.42,0,0,1,3.66-.33A6.51,6.51,0,0,1,470.12,171.88Z" transform="translate(-150.47 -119.91)"/></g><g class="cls-187"><path class="cls-166" d="M474.35,166.58a6.56,6.56,0,0,1-3.7-.16,6.48,6.48,0,0,1-3-2.13,6.59,6.59,0,0,1,6.73,2.29Z" transform="translate(-150.47 -119.91)"/></g><g class="cls-187"><path class="cls-166" d="M480,161.27a7.42,7.42,0,0,1-3.91-.48,7.21,7.21,0,0,1-3.12-2.41,7.45,7.45,0,0,1,7,2.89Z" transform="translate(-150.47 -119.91)"/></g><path class="cls-188" d="M467,226.5" transform="translate(-150.47 -119.91)"/><path class="cls-189" d="M484.14,159.84S438.73,191,479.47,221.4c0,0-38-24.5,9.75-58.47Z" transform="translate(-150.47 -119.91)"/><g class="cls-190"><path class="cls-166" d="M409,247a7.59,7.59,0,0,0-3.09.24,26.36,26.36,0,0,0-3,.78,10.11,10.11,0,0,0-2.69.94c-.71.28-1,1-.26,2.08a2.15,2.15,0,0,1-1.43-1.21,2.28,2.28,0,0,1,.64-2.09,7.87,7.87,0,0,1,3.18-1.73,13,13,0,0,1,3.42-.37A4.35,4.35,0,0,1,409,247Z" transform="translate(-150.47 -119.91)"/></g><g class="cls-190"><path class="cls-166" d="M360.76,277a7.59,7.59,0,0,0-3.09.24,28.7,28.7,0,0,0-3,.78A10.11,10.11,0,0,0,352,279c-.7.28-1,1-.26,2.08a2.12,2.12,0,0,1-1.43-1.21,2.3,2.3,0,0,1,.64-2.09,7.87,7.87,0,0,1,3.18-1.73,13,13,0,0,1,3.42-.37A4.35,4.35,0,0,1,360.76,277Z" transform="translate(-150.47 -119.91)"/></g><g class="cls-190"><path class="cls-166" d="M307.89,313.78a7.75,7.75,0,0,0-3.09.25,26.52,26.52,0,0,0-3,.78,10,10,0,0,0-2.69.94c-.7.27-1,1-.26,2.08a2.13,2.13,0,0,1-1.42-1.21,2.27,2.27,0,0,1,.64-2.09,7.69,7.69,0,0,1,3.18-1.73,12.55,12.55,0,0,1,3.42-.37A4.37,4.37,0,0,1,307.89,313.78Z" transform="translate(-150.47 -119.91)"/></g><polygon class="cls-191" points="336.45 36.43 338.75 43.02 441.54 105.67 446.17 103.22 336.45 36.43"/><polygon class="cls-189" points="335.68 38.23 333.67 39.92 338.75 43.02 335.68 38.23"/><path class="cls-192" d="M410.27,247.75a3.06,3.06,0,0,1,0,3.07,4.74,4.74,0,0,1-2.62,1.87,13.94,13.94,0,0,1-6.17-.19c2-.17,4.08,0,5.95-.61A3.35,3.35,0,0,0,410.27,247.75Z" transform="translate(-150.47 -119.91)"/><path class="cls-192" d="M362.41,277.65a3.08,3.08,0,0,1,0,3.08,4.79,4.79,0,0,1-2.62,1.87,14.08,14.08,0,0,1-6.17-.2c2-.17,4.08,0,5.94-.61A3.35,3.35,0,0,0,362.41,277.65Z" transform="translate(-150.47 -119.91)"/><path class="cls-192" d="M309.52,314.3a3.08,3.08,0,0,1,0,3.08,4.79,4.79,0,0,1-2.62,1.87,13.94,13.94,0,0,1-6.17-.2c2-.16,4.08,0,5.95-.6A3.36,3.36,0,0,0,309.52,314.3Z" transform="translate(-150.47 -119.91)"/></svg>